<mxfile host="app.diagrams.net" modified="2023-06-09T17:25:14.720Z" agent="Mozilla/5.0 (Windows NT 10.0; Win64; x64; rv:109.0) Gecko/20100101 Firefox/113.0" etag="p99l_5bh7zCOpEf3IZaL" version="21.3.7" type="github" pages="2">
  <diagram id="6a731a19-8d31-9384-78a2-239565b7b9f0" name="Page-1">
    <mxGraphModel dx="1434" dy="754" grid="1" gridSize="10" guides="1" tooltips="1" connect="1" arrows="1" fold="1" page="1" pageScale="1" pageWidth="1169" pageHeight="827" background="#003469" math="0" shadow="0">
      <root>
        <mxCell id="0" />
        <mxCell id="1" parent="0" />
        <mxCell id="2019" value="" style="rounded=1;whiteSpace=wrap;html=1;dashed=1;strokeColor=none;strokeWidth=2;fillColor=#E6E6E6;fontFamily=Verdana;fontSize=12;fontColor=#00BEF2" parent="1" vertex="1">
          <mxGeometry x="40" y="120" width="165" height="670" as="geometry" />
        </mxCell>
        <mxCell id="2020" value="" style="rounded=1;whiteSpace=wrap;html=1;dashed=1;strokeColor=none;strokeWidth=2;fillColor=#E6E6E6;fontFamily=Verdana;fontSize=12;fontColor=#00BEF2" parent="1" vertex="1">
          <mxGeometry x="220" y="120" width="165" height="670" as="geometry" />
        </mxCell>
        <mxCell id="2021" value="" style="rounded=1;whiteSpace=wrap;html=1;dashed=1;strokeColor=none;strokeWidth=2;fillColor=#E6E6E6;fontFamily=Verdana;fontSize=12;fontColor=#00BEF2" parent="1" vertex="1">
          <mxGeometry x="400" y="120" width="165" height="670" as="geometry" />
        </mxCell>
        <mxCell id="2022" value="" style="rounded=1;whiteSpace=wrap;html=1;dashed=1;strokeColor=none;strokeWidth=2;fillColor=#E6E6E6;fontFamily=Verdana;fontSize=12;fontColor=#00BEF2" parent="1" vertex="1">
          <mxGeometry x="580" y="120" width="165" height="670" as="geometry" />
        </mxCell>
        <mxCell id="2023" value="" style="rounded=1;whiteSpace=wrap;html=1;dashed=1;strokeColor=none;strokeWidth=2;fillColor=#E6E6E6;fontFamily=Verdana;fontSize=12;fontColor=#00BEF2" parent="1" vertex="1">
          <mxGeometry x="760" y="120" width="165" height="670" as="geometry" />
        </mxCell>
        <mxCell id="2024" value="" style="rounded=1;whiteSpace=wrap;html=1;dashed=1;strokeColor=none;strokeWidth=2;fillColor=#E6E6E6;fontFamily=Verdana;fontSize=12;fontColor=#00BEF2" parent="1" vertex="1">
          <mxGeometry x="940" y="120" width="165" height="670" as="geometry" />
        </mxCell>
        <mxCell id="2025" value="Event" style="whiteSpace=wrap;html=1;dashed=1;strokeColor=none;strokeWidth=2;fillColor=#3399FF;fontFamily=Helvetica;fontSize=18;fontColor=#FFFFFF;fontStyle=1" parent="1" vertex="1">
          <mxGeometry x="40" y="120" width="165" height="60" as="geometry" />
        </mxCell>
        <mxCell id="2026" value="Compute" style="whiteSpace=wrap;html=1;dashed=1;strokeColor=none;strokeWidth=2;fillColor=#3399FF;fontFamily=Helvetica;fontSize=18;fontColor=#FFFFFF;fontStyle=1" parent="1" vertex="1">
          <mxGeometry x="220" y="120" width="165" height="60" as="geometry" />
        </mxCell>
        <mxCell id="2027" value="Data&lt;div&gt;Services&lt;/div&gt;" style="whiteSpace=wrap;html=1;dashed=1;strokeColor=none;strokeWidth=2;fillColor=#3399FF;fontFamily=Helvetica;fontSize=18;fontColor=#FFFFFF;fontStyle=1" parent="1" vertex="1">
          <mxGeometry x="400" y="120" width="165" height="60" as="geometry" />
        </mxCell>
        <mxCell id="2028" value="Data&lt;div&gt;Storage&lt;/div&gt;" style="whiteSpace=wrap;html=1;dashed=1;strokeColor=none;strokeWidth=2;fillColor=#3399FF;fontFamily=Helvetica;fontSize=18;fontColor=#FFFFFF;fontStyle=1" parent="1" vertex="1">
          <mxGeometry x="580" y="120" width="165" height="60" as="geometry" />
        </mxCell>
        <mxCell id="2029" value="App&lt;div&gt;Services&lt;/div&gt;" style="whiteSpace=wrap;html=1;dashed=1;strokeColor=none;strokeWidth=2;fillColor=#3399FF;fontFamily=Helvetica;fontSize=18;fontColor=#FFFFFF;fontStyle=1" parent="1" vertex="1">
          <mxGeometry x="760" y="120" width="165" height="60" as="geometry" />
        </mxCell>
        <mxCell id="2030" value="&amp;nbsp; &amp;nbsp;Presentation" style="whiteSpace=wrap;html=1;dashed=1;strokeColor=none;strokeWidth=2;fillColor=#3399FF;fontFamily=Helvetica;fontSize=18;fontColor=#FFFFFF;fontStyle=1" parent="1" vertex="1">
          <mxGeometry x="940" y="120" width="165" height="60" as="geometry" />
        </mxCell>
        <mxCell id="2031" value="" style="shape=mxgraph.arrows.two_way_arrow_horizontal;html=1;verticalLabelPosition=bottom;verticalAlign=top;strokeWidth=2;strokeColor=none;dashed=1;fillColor=#FFFFFF;fontFamily=Verdana;fontSize=12;fontColor=#00BEF2" parent="1" vertex="1">
          <mxGeometry x="180" y="131" width="67" height="39" as="geometry" />
        </mxCell>
        <mxCell id="2032" value="" style="shape=mxgraph.arrows.two_way_arrow_horizontal;html=1;verticalLabelPosition=bottom;verticalAlign=top;strokeWidth=2;strokeColor=none;dashed=1;fillColor=#FFFFFF;fontFamily=Verdana;fontSize=12;fontColor=#00BEF2" parent="1" vertex="1">
          <mxGeometry x="360" y="131" width="67" height="39" as="geometry" />
        </mxCell>
        <mxCell id="2033" value="" style="shape=mxgraph.arrows.two_way_arrow_horizontal;html=1;verticalLabelPosition=bottom;verticalAlign=top;strokeWidth=2;strokeColor=none;dashed=1;fillColor=#FFFFFF;fontFamily=Verdana;fontSize=12;fontColor=#00BEF2" parent="1" vertex="1">
          <mxGeometry x="540" y="131" width="67" height="39" as="geometry" />
        </mxCell>
        <mxCell id="2034" value="" style="shape=mxgraph.arrows.two_way_arrow_horizontal;html=1;verticalLabelPosition=bottom;verticalAlign=top;strokeWidth=2;strokeColor=none;dashed=1;fillColor=#FFFFFF;fontFamily=Verdana;fontSize=12;fontColor=#00BEF2" parent="1" vertex="1">
          <mxGeometry x="720" y="131" width="67" height="39" as="geometry" />
        </mxCell>
        <mxCell id="2035" value="" style="shape=mxgraph.arrows.two_way_arrow_horizontal;html=1;verticalLabelPosition=bottom;verticalAlign=top;strokeWidth=2;strokeColor=none;dashed=1;fillColor=#FFFFFF;fontFamily=Verdana;fontSize=12;fontColor=#00BEF2" parent="1" vertex="1">
          <mxGeometry x="900" y="131" width="67" height="39" as="geometry" />
        </mxCell>
        <mxCell id="2036" value="" style="verticalLabelPosition=bottom;html=1;verticalAlign=top;strokeColor=none;fillColor=#003366;shape=mxgraph.azure.cloud_service;dashed=1;fontFamily=Helvetica;fontSize=18;fontColor=#FFFFFF;opacity=25" parent="1" vertex="1">
          <mxGeometry x="90" y="180" width="970" height="600" as="geometry" />
        </mxCell>
        <mxCell id="2037" value="" style="verticalLabelPosition=bottom;html=1;verticalAlign=top;strokeColor=none;fillColor=#3399FF;shape=mxgraph.azure.tablet;dashed=1;fontFamily=Helvetica;fontSize=14;fontColor=#004C99" parent="1" vertex="1">
          <mxGeometry x="66" y="401" width="50" height="37.5" as="geometry" />
        </mxCell>
        <mxCell id="2038" value="" style="verticalLabelPosition=bottom;html=1;verticalAlign=top;strokeColor=none;fillColor=#3399FF;shape=mxgraph.azure.mobile;dashed=1;fontFamily=Helvetica;fontSize=14;fontColor=#004C99" parent="1" vertex="1">
          <mxGeometry x="146" y="395" width="35" height="50" as="geometry" />
        </mxCell>
        <mxCell id="2039" value="Devices" style="verticalLabelPosition=bottom;html=1;verticalAlign=top;strokeColor=none;fillColor=#3399FF;shape=mxgraph.azure.laptop;dashed=1;fontFamily=Helvetica;fontSize=14;fontColor=#004C99" parent="1" vertex="1">
          <mxGeometry x="96" y="451" width="50" height="30" as="geometry" />
        </mxCell>
        <mxCell id="2040" value="Applications" style="verticalLabelPosition=bottom;html=1;verticalAlign=top;strokeColor=none;fillColor=#3399FF;shape=mxgraph.azure.mobile_services;dashed=1;fontFamily=Helvetica;fontSize=14;fontColor=#004C99" parent="1" vertex="1">
          <mxGeometry x="107" y="250" width="32.5" height="50" as="geometry" />
        </mxCell>
        <mxCell id="2041" value="Social" style="verticalLabelPosition=bottom;html=1;verticalAlign=top;strokeColor=none;fillColor=#3399FF;shape=mxgraph.azure.user;dashed=1;fontSize=14;fontColor=#004C99" parent="1" vertex="1">
          <mxGeometry x="92" y="680" width="47.5" height="50" as="geometry" />
        </mxCell>
        <mxCell id="2042" value="" style="verticalLabelPosition=bottom;html=1;verticalAlign=top;strokeColor=none;fillColor=#3399FF;shape=mxgraph.azure.github_code;dashed=1;fontSize=14;fontColor=#004C99" parent="1" vertex="1">
          <mxGeometry x="133" y="560" width="50" height="50" as="geometry" />
        </mxCell>
        <mxCell id="2043" value="" style="verticalLabelPosition=bottom;html=1;verticalAlign=top;strokeColor=none;fillColor=#3399FF;shape=mxgraph.azure.dropbox_code_source;dashed=1;fontSize=14;fontColor=#004C99" parent="1" vertex="1">
          <mxGeometry x="73" y="563" width="50" height="47.5" as="geometry" />
        </mxCell>
        <mxCell id="2044" value="Repositories" style="text;html=1;strokeColor=none;fillColor=none;align=center;verticalAlign=middle;whiteSpace=wrap;overflow=hidden;dashed=1;fontSize=14;fontColor=#004C99" parent="1" vertex="1">
          <mxGeometry x="60" y="620" width="120" height="20" as="geometry" />
        </mxCell>
        <mxCell id="2045" value="Azure Website" style="verticalLabelPosition=bottom;html=1;verticalAlign=top;strokeColor=none;fillColor=#3399FF;shape=mxgraph.azure.azure_website;dashed=1;fontSize=14;fontColor=#004C99" parent="1" vertex="1">
          <mxGeometry x="278" y="258" width="50" height="50" as="geometry" />
        </mxCell>
        <mxCell id="2046" value="Mobile Services" style="verticalLabelPosition=bottom;html=1;verticalAlign=top;strokeColor=none;fillColor=#3399FF;shape=mxgraph.azure.mobile_services;dashed=1;fontSize=14;fontColor=#004C99" parent="1" vertex="1">
          <mxGeometry x="287" y="661" width="32.5" height="50" as="geometry" />
        </mxCell>
        <mxCell id="2047" value="Windows Azure Management Portal" style="text;html=1;strokeColor=none;fillColor=none;align=center;verticalAlign=middle;whiteSpace=wrap;overflow=hidden;dashed=1;fontSize=36;fontColor=#FFFFFF;fontFamily=Helvetica;fontStyle=1" parent="1" vertex="1">
          <mxGeometry x="40" y="50" width="1060" height="50" as="geometry" />
        </mxCell>
        <mxCell id="2048" value="Business&amp;nbsp;&lt;div&gt;Analytics&lt;/div&gt;" style="rounded=1;whiteSpace=wrap;html=1;dashed=1;strokeColor=none;strokeWidth=2;fillColor=#FFFFFF;fontFamily=Helvetica;fontSize=14;fontColor=#FFB366;opacity=75;verticalAlign=top;fontStyle=1" parent="1" vertex="1">
          <mxGeometry x="410" y="190" width="140" height="260" as="geometry" />
        </mxCell>
        <mxCell id="2049" value="Data&lt;div&gt;Management&lt;/div&gt;" style="rounded=1;whiteSpace=wrap;html=1;dashed=1;strokeColor=none;strokeWidth=2;fillColor=#FFFFFF;fontFamily=Helvetica;fontSize=14;fontColor=#FFB366;opacity=75;verticalAlign=top;fontStyle=1" parent="1" vertex="1">
          <mxGeometry x="413" y="460" width="140" height="320" as="geometry" />
        </mxCell>
        <mxCell id="2050" value="SQL Reporting" style="verticalLabelPosition=bottom;html=1;verticalAlign=top;strokeColor=none;fillColor=#3399FF;shape=mxgraph.azure.sql_reporting;dashed=1;fontSize=14;fontColor=#004C99" parent="1" vertex="1">
          <mxGeometry x="460" y="258" width="40" height="50" as="geometry" />
        </mxCell>
        <mxCell id="A29jTYmpPLQcULDlcNwX-2085" value="" style="edgeStyle=orthogonalEdgeStyle;rounded=0;orthogonalLoop=1;jettySize=auto;html=1;" edge="1" parent="1" source="2051" target="2054">
          <mxGeometry relative="1" as="geometry" />
        </mxCell>
        <mxCell id="2051" value="HDInsight" style="verticalLabelPosition=bottom;html=1;verticalAlign=top;strokeColor=none;fillColor=#3399FF;shape=mxgraph.azure.hdinsight;dashed=1;fontSize=14;fontColor=#004C99" parent="1" vertex="1">
          <mxGeometry x="458" y="355" width="50" height="50" as="geometry" />
        </mxCell>
        <mxCell id="2052" value="SQL Database" style="verticalLabelPosition=bottom;html=1;verticalAlign=top;strokeColor=none;fillColor=#3399FF;shape=mxgraph.azure.sql_database;dashed=1;fontFamily=Helvetica;fontSize=14;fontColor=#004C99" parent="1" vertex="1">
          <mxGeometry x="464" y="600" width="37.5" height="50" as="geometry" />
        </mxCell>
        <mxCell id="2053" value="Tables" style="verticalLabelPosition=bottom;html=1;verticalAlign=top;strokeColor=none;fillColor=#3399FF;shape=mxgraph.azure.storage_table;dashed=1;fontFamily=Helvetica;fontSize=14;fontColor=#004C99" parent="1" vertex="1">
          <mxGeometry x="458" y="689" width="50" height="45" as="geometry" />
        </mxCell>
        <mxCell id="2054" value="Blobs" style="verticalLabelPosition=bottom;html=1;verticalAlign=top;strokeColor=none;fillColor=#3399FF;shape=mxgraph.azure.storage_blob;dashed=1;fontFamily=Helvetica;fontSize=14;fontColor=#004C99" parent="1" vertex="1">
          <mxGeometry x="457" y="523" width="50" height="45" as="geometry" />
        </mxCell>
        <mxCell id="2055" value="Storage Management" style="rounded=1;whiteSpace=wrap;html=1;dashed=1;strokeColor=none;strokeWidth=2;fillColor=#FFFFFF;fontFamily=Helvetica;fontSize=14;fontColor=#FFB366;opacity=75;verticalAlign=top;fontStyle=1" parent="1" vertex="1">
          <mxGeometry x="594" y="240" width="140" height="280" as="geometry" />
        </mxCell>
        <mxCell id="2056" value="Storage Servers" style="verticalLabelPosition=bottom;html=1;verticalAlign=top;strokeColor=none;fillColor=#3399FF;shape=mxgraph.azure.server_rack;dashed=1;fontFamily=Helvetica;fontSize=14;fontColor=#004C99" parent="1" vertex="1">
          <mxGeometry x="639" y="316" width="50" height="50" as="geometry" />
        </mxCell>
        <mxCell id="2057" value="Database" style="verticalLabelPosition=bottom;html=1;verticalAlign=top;strokeColor=none;fillColor=#3399FF;shape=mxgraph.azure.database;dashed=1;fontFamily=Helvetica;fontSize=14;fontColor=#004C99" parent="1" vertex="1">
          <mxGeometry x="644" y="414" width="37.5" height="50" as="geometry" />
        </mxCell>
        <mxCell id="2058" value="Physical&lt;div&gt;Data Storage&lt;/div&gt;" style="verticalLabelPosition=bottom;html=1;verticalAlign=top;strokeColor=none;fillColor=#3399FF;shape=mxgraph.azure.vhd;dashed=1;fontFamily=Helvetica;fontSize=14;fontColor=#004C99" parent="1" vertex="1">
          <mxGeometry x="643" y="590" width="40" height="50" as="geometry" />
        </mxCell>
        <mxCell id="2059" value="Identity" style="rounded=1;whiteSpace=wrap;html=1;dashed=1;strokeColor=none;strokeWidth=2;fillColor=#FFFFFF;fontFamily=Helvetica;fontSize=14;fontColor=#FFB366;opacity=75;verticalAlign=top;fontStyle=1" parent="1" vertex="1">
          <mxGeometry x="773" y="196" width="140" height="134" as="geometry" />
        </mxCell>
        <mxCell id="2060" value="Windows Azure&amp;nbsp;&lt;div&gt;Active Directorry&lt;/div&gt;" style="verticalLabelPosition=bottom;html=1;verticalAlign=top;strokeColor=none;fillColor=#3399FF;shape=mxgraph.azure.azure_active_directory;dashed=1;fontFamily=Helvetica;fontSize=14;fontColor=#004C99" parent="1" vertex="1">
          <mxGeometry x="819" y="225" width="47.5" height="50" as="geometry" />
        </mxCell>
        <mxCell id="2061" value="Performance" style="rounded=1;whiteSpace=wrap;html=1;dashed=1;strokeColor=none;strokeWidth=2;fillColor=#FFFFFF;fontFamily=Helvetica;fontSize=14;fontColor=#FFB366;opacity=75;verticalAlign=top;fontStyle=1" parent="1" vertex="1">
          <mxGeometry x="774" y="341" width="140" height="199" as="geometry" />
        </mxCell>
        <mxCell id="2062" value="Caching" style="verticalLabelPosition=bottom;html=1;verticalAlign=top;strokeColor=none;fillColor=#3399FF;shape=mxgraph.azure.azure_cache;dashed=1;fontFamily=Helvetica;fontSize=14;fontColor=#004C99" parent="1" vertex="1">
          <mxGeometry x="821" y="376" width="45" height="50" as="geometry" />
        </mxCell>
        <mxCell id="2063" value="Content&amp;nbsp;&lt;div&gt;Delivery Network&lt;/div&gt;" style="verticalLabelPosition=bottom;html=1;verticalAlign=top;strokeColor=none;fillColor=#3399FF;shape=mxgraph.azure.content_delivery_network;dashed=1;fontFamily=Helvetica;fontSize=14;fontColor=#004C99" parent="1" vertex="1">
          <mxGeometry x="819" y="455" width="50" height="32.5" as="geometry" />
        </mxCell>
        <mxCell id="2064" value="Messaging" style="rounded=1;whiteSpace=wrap;html=1;dashed=1;strokeColor=none;strokeWidth=2;fillColor=#FFFFFF;fontFamily=Helvetica;fontSize=14;fontColor=#FFB366;opacity=75;verticalAlign=top;fontStyle=1" parent="1" vertex="1">
          <mxGeometry x="773" y="550" width="140" height="229" as="geometry" />
        </mxCell>
        <mxCell id="2065" value="Queues" style="verticalLabelPosition=bottom;html=1;verticalAlign=top;strokeColor=none;fillColor=#3399FF;shape=mxgraph.azure.queue_generic;dashed=1;fontFamily=Helvetica;fontSize=14;fontColor=#004C99" parent="1" vertex="1">
          <mxGeometry x="820" y="576" width="50" height="15" as="geometry" />
        </mxCell>
        <mxCell id="2066" value="Service Bus" style="verticalLabelPosition=bottom;html=1;verticalAlign=top;strokeColor=none;fillColor=#3399FF;shape=mxgraph.azure.service_bus;dashed=1;fontFamily=Helvetica;fontSize=14;fontColor=#004C99" parent="1" vertex="1">
          <mxGeometry x="824" y="624" width="45" height="50" as="geometry" />
        </mxCell>
        <mxCell id="2067" value="Media Services" style="verticalLabelPosition=bottom;html=1;verticalAlign=top;strokeColor=none;fillColor=#3399FF;shape=mxgraph.azure.media_service;dashed=1;fontFamily=Helvetica;fontSize=14;fontColor=#004C99" parent="1" vertex="1">
          <mxGeometry x="821" y="703" width="45" height="50" as="geometry" />
        </mxCell>
        <mxCell id="2068" value="Cloud&lt;div&gt;Services&lt;/div&gt;" style="rounded=1;whiteSpace=wrap;html=1;dashed=1;strokeColor=none;strokeWidth=2;fillColor=#FFFFFF;fontFamily=Helvetica;fontSize=14;fontColor=#FFB366;opacity=75;verticalAlign=top;fontStyle=1" parent="1" vertex="1">
          <mxGeometry x="233" y="397" width="140" height="223" as="geometry" />
        </mxCell>
        <mxCell id="2069" value="Cloud" style="verticalLabelPosition=bottom;html=1;verticalAlign=top;strokeColor=none;fillColor=#3399FF;shape=mxgraph.azure.cloud;dashed=1;fontSize=14;fontColor=#004C99" parent="1" vertex="1">
          <mxGeometry x="278" y="449" width="50" height="32.5" as="geometry" />
        </mxCell>
        <mxCell id="2070" value="Virtual Machine" style="verticalLabelPosition=bottom;html=1;verticalAlign=top;strokeColor=none;fillColor=#3399FF;shape=mxgraph.azure.virtual_machine;dashed=1;fontSize=14;fontColor=#004C99" parent="1" vertex="1">
          <mxGeometry x="278" y="536" width="50" height="40" as="geometry" />
        </mxCell>
        <mxCell id="2071" value="Web Dashboards" style="verticalLabelPosition=bottom;html=1;verticalAlign=top;strokeColor=none;fillColor=#3399FF;shape=mxgraph.azure.laptop;dashed=1;fontFamily=Helvetica;fontSize=14;fontColor=#004C99" parent="1" vertex="1">
          <mxGeometry x="998" y="301" width="50" height="30" as="geometry" />
        </mxCell>
        <mxCell id="2072" value="Certificates" style="verticalLabelPosition=bottom;html=1;verticalAlign=top;strokeColor=none;fillColor=#3399FF;shape=mxgraph.azure.certificate;dashed=1;fontFamily=Helvetica;fontSize=14;fontColor=#004C99" parent="1" vertex="1">
          <mxGeometry x="998" y="399" width="50" height="40" as="geometry" />
        </mxCell>
        <mxCell id="2073" value="Enterprise&lt;div&gt;Services&lt;/div&gt;" style="verticalLabelPosition=bottom;html=1;verticalAlign=top;strokeColor=none;fillColor=#3399FF;shape=mxgraph.azure.enterprise;dashed=1;fontFamily=Helvetica;fontSize=14;fontColor=#004C99" parent="1" vertex="1">
          <mxGeometry x="1008" y="518" width="30" height="50" as="geometry" />
        </mxCell>
        <mxCell id="2074" value="Seminars" style="verticalLabelPosition=bottom;html=1;verticalAlign=top;strokeColor=none;fillColor=#3399FF;shape=mxgraph.azure.user;dashed=1;fontFamily=Helvetica;fontSize=14;fontColor=#004C99" parent="1" vertex="1">
          <mxGeometry x="1001" y="630" width="47.5" height="50" as="geometry" />
        </mxCell>
        <mxCell id="2075" value="" style="arrow;html=1;endArrow=block;endFill=1;strokeColor=none;strokeWidth=4;fontFamily=Helvetica;fontSize=36;fontColor=#FFB366;fillColor=#FFB366;" parent="1" edge="1">
          <mxGeometry width="100" height="100" relative="1" as="geometry">
            <mxPoint x="167" y="283" as="sourcePoint" />
            <mxPoint x="247" y="283" as="targetPoint" />
          </mxGeometry>
        </mxCell>
        <mxCell id="2076" value="" style="arrow;html=1;endArrow=block;endFill=1;strokeColor=none;strokeWidth=4;fontFamily=Helvetica;fontSize=36;fontColor=#FFB366;fillColor=#FFB366;opacity=100" parent="1" edge="1">
          <mxGeometry width="100" height="100" relative="1" as="geometry">
            <mxPoint x="347" y="283" as="sourcePoint" />
            <mxPoint x="427" y="283" as="targetPoint" />
          </mxGeometry>
        </mxCell>
        <mxCell id="2077" value="" style="arrow;html=1;endArrow=block;endFill=1;strokeColor=none;strokeWidth=4;fontFamily=Helvetica;fontSize=36;fontColor=#FFB366;fillColor=#FFB366;" parent="1" edge="1">
          <mxGeometry width="100" height="100" relative="1" as="geometry">
            <mxPoint x="527" y="360" as="sourcePoint" />
            <mxPoint x="607" y="360" as="targetPoint" />
          </mxGeometry>
        </mxCell>
        <mxCell id="2078" value="" style="arrow;html=1;endArrow=block;endFill=1;strokeColor=none;strokeWidth=4;fontFamily=Helvetica;fontSize=36;fontColor=#FFB366;fillColor=#FFB366;" parent="1" edge="1">
          <mxGeometry width="100" height="100" relative="1" as="geometry">
            <mxPoint x="714" y="426" as="sourcePoint" />
            <mxPoint x="794" y="426" as="targetPoint" />
          </mxGeometry>
        </mxCell>
        <mxCell id="2079" value="" style="arrow;html=1;endArrow=block;endFill=1;strokeColor=none;strokeWidth=4;fontFamily=Helvetica;fontSize=36;fontColor=#FFB366;fillColor=#FFB366;" parent="1" edge="1">
          <mxGeometry width="100" height="100" relative="1" as="geometry">
            <mxPoint x="714" y="270" as="sourcePoint" />
            <mxPoint x="794" y="270" as="targetPoint" />
          </mxGeometry>
        </mxCell>
        <mxCell id="2080" value="" style="arrow;html=1;endArrow=block;endFill=1;strokeColor=none;strokeWidth=4;fontFamily=Helvetica;fontSize=36;fontColor=#FFB366;fillColor=#FFB366;" parent="1" edge="1">
          <mxGeometry width="100" height="100" relative="1" as="geometry">
            <mxPoint x="887" y="438" as="sourcePoint" />
            <mxPoint x="967" y="438" as="targetPoint" />
          </mxGeometry>
        </mxCell>
        <mxCell id="2081" value="" style="arrow;html=1;endArrow=block;endFill=1;strokeColor=none;strokeWidth=4;fontFamily=Helvetica;fontSize=36;fontColor=#FFB366;fillColor=#FFB366;" parent="1" edge="1">
          <mxGeometry width="100" height="100" relative="1" as="geometry">
            <mxPoint x="894" y="664" as="sourcePoint" />
            <mxPoint x="974" y="664" as="targetPoint" />
          </mxGeometry>
        </mxCell>
        <mxCell id="2082" value="" style="arrow;html=1;endArrow=block;endFill=1;strokeColor=none;strokeWidth=4;fontFamily=Helvetica;fontSize=36;fontColor=#FFB366;fillColor=#FFB366;" parent="1" edge="1">
          <mxGeometry width="100" height="100" relative="1" as="geometry">
            <mxPoint x="707" y="639" as="sourcePoint" />
            <mxPoint x="787" y="639" as="targetPoint" />
          </mxGeometry>
        </mxCell>
        <mxCell id="2083" value="" style="arrow;html=1;endArrow=block;endFill=1;strokeColor=none;strokeWidth=4;fontFamily=Helvetica;fontSize=36;fontColor=#FFB366;fillColor=#FFB366;" parent="1" edge="1">
          <mxGeometry width="100" height="100" relative="1" as="geometry">
            <mxPoint x="534" y="624" as="sourcePoint" />
            <mxPoint x="614" y="624" as="targetPoint" />
          </mxGeometry>
        </mxCell>
        <mxCell id="2084" value="" style="arrow;html=1;endArrow=block;endFill=1;strokeColor=none;strokeWidth=4;fontFamily=Helvetica;fontSize=36;fontColor=#FFB366;fillColor=#FFB366;" parent="1" edge="1">
          <mxGeometry width="100" height="100" relative="1" as="geometry">
            <mxPoint x="347" y="536" as="sourcePoint" />
            <mxPoint x="427" y="536" as="targetPoint" />
          </mxGeometry>
        </mxCell>
        <mxCell id="2085" value="" style="arrow;html=1;endArrow=block;endFill=1;strokeColor=none;strokeWidth=4;fontFamily=Helvetica;fontSize=36;fontColor=#FFB366;fillColor=#FFB366;" parent="1" edge="1">
          <mxGeometry width="100" height="100" relative="1" as="geometry">
            <mxPoint x="174" y="688" as="sourcePoint" />
            <mxPoint x="254" y="688" as="targetPoint" />
          </mxGeometry>
        </mxCell>
      </root>
    </mxGraphModel>
  </diagram>
  <diagram id="-rjhTyjBhZZxLoLLz195" name="Page-2">
    <mxGraphModel dx="1687" dy="887" grid="1" gridSize="10" guides="1" tooltips="1" connect="1" arrows="1" fold="1" page="1" pageScale="1" pageWidth="1169" pageHeight="827" math="0" shadow="0">
      <root>
        <mxCell id="0" />
        <mxCell id="1" parent="0" />
        <mxCell id="33baKkjj-bV65DGkrXEN-1" value="" style="shape=image;verticalLabelPosition=bottom;verticalAlign=top;imageAspect=0;aspect=fixed;image=data:image/png,iVBORw0KGgoAAAANSUhEUgAAAccAAAHGCAYAAAABoEAXAAAACXBIWXMAAA7EAAAOxAGVKw4bAAAAB3RJTUUH5wYJEDgZWg+M+wAAIABJREFUeJzsvemTJMd55vl73T0ir6rqC2jcBwESpAiSoihySIniUiPyAzXSrGZoNruzshmtmeZv2rW1/bKHVqJGEi/xpkjxJsUDBEncAAE0zu5G31WVRxzu735wj8jI6mo0hS6guwvxmGVHZ1RkZERkhD/+Xs8rqqr06LEX0PRqIOm97LKthF1WGna/GUN6QVkXCAZnLUYcYJZf7wNiFERWv1cNpNtcVVCJm0hzfN3jpe6sFMC1p+Y1rgkad9ecQVAIIb6MhSBg09caBRWwErevFvHvEtL+0n6MLj8XZPm+Xab1A7e6f2eW2wF4H48hnitoiMvmUjgDJh2PKqAeCIhIetnVa9K9FLv+LvGL1HtCAJvny+9W4okaxSAoO39zs2MZr8fKd+52/7T3Tkh/TxcZQMzK/nr0eK2Qnhx77B1qoCIN9+llaQhm50CrBASfliFuF7LVXUp3uSTJ4D3LWzcOhqoel7m0jVLVNd57RIQsyxAxePUYMWjasaJ49agEhAzLMB5mQ4Tp/3UNVQV5BkUJ8xlMpzCbwnwe3xcVvPIKVF4p5iXT+YzZ9pTpbEGxWFDVgVD7uM+gKJG0FZPGdxNJRJrxPiyXxGXuMowzDLKcfJgxGg7JhxmDLMdayw03jslzGI9hbR0OrMfl2hoMhpC5yB8i8ZpKurYNnQTmBEpUFSsOg0PStQohYI2LEwzPchu7ZC9fx71EolVEOszd+a3ae2Hn6COR55a82ExWlr/9cj8m3RgmzhS690uPHleInhx77CFqlAWRJB1gEVwiIrfL9s2Al6yXhhwb68GwtByEZDHEAVJDXIpxK/srfYm1gsEBQuhYJwrUPo2jumOobcbsEAnvwnk4dx7OnwucO7vNmbMztrdKXjm1SV1ayspQlVBWBu/B14L3IR2PwZj4sibDGIOIQUTwPlmwQRK5r1pP0ryX5rEMK8uyWqwQT7SAk9VnFO8LxASQGvAINWJqnPVYV3PDDRNGY8OBjRGHj6xzw+ENDh3OOXgAhmM4eBCMi5YlrM5Ngkar07D6t+ZwVZefu+iXDhXBg8uy3S3T5lIY0IsIMXQ2FLoTr3h/dY5j96/v0eNfjZ4ce+wZlECgIpJjHMAMJIJqBrUIs4vrS+JOki+QpbXYHfG8j99lLGLid6iC94Hae7JBhhLwKgQfrTA0fswHGA4iQVYlzOZw7iwcfxlefPFlTp8pePGFgqLMqaoK1Ug6isH7EK1Qm6GqBI0uSJs5jFhMcyzBgTpCiJZVCIEQQrS2VMlc43ZsTqrjUhRBw47hXVbJcTCI3680+9W09CgVuAqI1nKzdxHFmXiMs+kWxoBL5A1gjGDF4GzJocOOtXXLkRsOcuSGDW68AQ4fgSOHo/WpgG24SSNhIh5nBIehLgKipnVbG4kTD+n+3NqZlqhZmommBilQ/I5r00xyut6IdOzdSY4sbckePa4UPTn22DNEctwtltigocRdYkLaHdTq3T8ujftUYoxPBWOS1ZcGyQvb8f1wSDvobk/h+Ak4dRqeefoUZ85scfzls5w9t42vHDYbkecjrF1nPptQ1651x9rMYK1FTHTbihNCqPFaL0lKIIQaVcEwAAwWixqJMUcjWEy0gaqQYo6yjClisCKtMzrGIIUgmmKNoY091sUi7k8UjMEZg1gbY4jGE7QEG9AgeO9RrzEWqgbBkrsBIgajJhE3BJ8Mc1MRwhbW1bgMrNQYWzMcwoGNjPFYuO32I9xww5g77x5w260wGi9ds6KQATaNKCHFVI1lOdnpLlukM5capOrEJg0kDwAYQjvZerU7rCfHHnuDnhx77CkudzPJpTa4VOJO+8FkVO6wFGDpdPNVNEpefhGeegqefvo0L584zYXNKcUiUFUGYzKQIcbmGDcELFUNi3lBUQYOHLoZDbK0ytBIgupRUrywOQmjyWWa4pdpGwAJphM7BNH43hkbrdmwjC0iMeaIkRiLbLcPnc+DGiV3GQGF4PEaUB/wGhkuEP2e0aXroqtV4/EJBhHLdGsbYxxG4t9Nso6NMYgJZFmBUlLXNaEuqesStMZlBmfBaACtQDyDTDh4cIPbb7uVu+7KuekovPU+yDJwDqxLiUPEvJ8QYJB1PAS7/Ma73hdp2cYipbtt46nwgCAM2N2F36PHvw49OfZ4ffBa7irpxptinLIbbQoaXaLWLL2vp87Ac88teObZY5w4UfL0YxUaDkTPrIBKBhiCJrenOFATU4ECBC9gHdZajLXM5lvx/4n0vNIm/kQSNMvESBGMuEigPqB4xNQgNUYjCS4TbGKaqPpAQFuybEhRguwgR1aXaCLV5u9h9fMaUDHUHjA5LlnZDcnHyxuiFdySefSLLs9PKasClYAzFmstmbGI0ZhIFGpsNFjjoYYaTW5uZ4R8sE02eImjNxnectdd3HPvndxxm+XgIRjkrCQA2bTc6UNYyVbdeR91A6BtZrHvLA0wpCfHHnuBnhx77CFi8kTwcaAyJmaeamI4MdGF15QaIDHr1FhAFKWioiDgqRCEIZZxazFWJZw6BS+9AE88vsWxZ05x7lxBVRq8OjRYjES3ZksHAqhBG5dsilsFQBNJtEk7UmFkGjNoRVLmTpMlYkFd+qxdrsO02aZIAClAfKcUY4e7tFmq2bVkY8XdKtFS67636ZxMcmCv7tegOkAbS5SQYpYKUiMaQPxyfTrO9ncjQ8M6SpMxHJCUGCPUIB6rMdnHtElUzfQlxRoDGBEIBUHnZFnF0ZvXuOfeo9xy2xrvfrdjMIbJMFqX8RcoYrwUYcAkHmKDjjWpKVZ5UQZsKtUJIWCcpUePvUBPjj32ECmRhoAvy2hZORfLFUIgiME618YMVRVnl7bDooaZeKyzrUVxYQueemLBww89x7Fj59neFMpiQF0OCTrCmQMYMyR4iw81RkqQurXu0MbSM8kdK4kg0zpZbiOUWJmBlDQEK4lYJdi0dLsQZ2NKKlCzaw2nmrhed9pKOzZT2WXtkv5ELJeOujXE3e6tk+EbQDSRbWgioOmYU3kMGUHXCWTtOpMINZKjIlrHz4pPZLvMJjVhAP4glgHGBlTn1GELYYpxc7J8QeXPcuutY952383c89abuPnmdQ4cgsko2nuuTlHGNkNZEanTdzSxaIPWsWxEGGCdWZJoH3TssUfoybHH3kHBFxqTMHIF64ECKAFPIGDIUHICA5QsFqgnV1rloRJ49gX41S/h8cef5uSJsxQlODvB2jWm2yVKhpCDyTGSg6Tau1BiTfyurtXYkJhiV96Hi2rkAlZ9S6PLRJhmuUyQidi5NMm63A3dbJRXuYRXRI6KmprV4+mWikh002Kim3fFqSmoKN7UaIfcZenUXq5LFpxZOY5Yp1qXGRoMiGJNwFow1AQtCWHGeJKhoaCqtxEKxpOM22+/hfvefgt33w7vfCuMmmSqxHlV2IRQIBJraAd2DOTAAOqMagGZIWUD7TitHj1eI3py7LF3UFjJwhfPojpPkJI8E4QMxVKRUxY51jichfNn4ddPwlPPzPjRT46zqMbUdbSyrHVYm4E6vArOxTik9566rqlDJIwYJwT1u2W6JsJZIQTTyQptvHSRNEzjIgXadJ/GQmrcknStpubkLUFz4Dd17e10jC7jmyuWZsfibOKFF59iqheVMh3jTus2mVTJNdy4hNvroaAmEMwUNVV7jdrdK61rGpVdEqvi34bDIVVVUVVRpCEzdhnDVZjNtxk4i3WGEGqqqiBoHTOMsxm3HF1w9x0D3v6Ou3nLWzNuvBFs1lzRCijwvsT7wMCtYWXYlkR6DzbFNnv0uFL05Nhj76CwmEUVFpMRY4qyLPHQVLDtga1NeOKJwAM/PcaTT5xkuqVgDoO5CR/GQEMEgq+Vsiwp64o8zxEnOJcSRUIghESI6rBmvFovDnSJLEkBtLE4iTmeMXamDrQxP7qPRSLAZEEu3+94dFQI5K36zmWxM+uGDjleHKXsXJNL7c8jJHJsLcaOv7FjReqOutP4/xpMATvqDEOSJgg7iRZWXNRIDVomgQKLiE1iBxC8QVTJXBQBCG0iULJCjcGaEl+cJrMzsjywtq7ccuuIt73jJt59/4g77ohx6+WRV1TlDFXPIHdYySCV0vTocaXoybHHnkHTP4EosRaALI/r5wVsb8PPHjzHM0+f4sknT3D+fI1zhxkODwND6pCxmDs0uLa8wNosKt6k8a6q4thsm8KKUFOFClFPwCEy2VEzuSMulohRdDUe1w7+mkW34yXPsonFwc5BOE4E3O4JOBctw6UTcl7lc5bdE3mitRuJX1bcnctjXMZQLz725tyEOk4gkkXd3Y+2ZLkkXu3uRzzFYhOXWTLjwDgkWAKCxWKMJXgamdtljSrgg+J9hbPgTI0xNRoKhBlZVjAeBwbDOR/58Lu4/Y6Mt7wFhqP4O4dQY02V5AEy+mzVHnuBnhx77BmUwLSakWUTIFoMZ05Hl+nPH9zkqSdOE1hnOoNFBcZluNxRa82imlLXJQfWN1JdYXQLSpCUwKNoEJzLU3F7IOCxxmAzQ+4yxAqzat7WBzaQRGSmQ5qmmxijkurnFC+h42btYpVM4j4vplBv/O6lGJ3Si1dbrtY5Xvz3bmnIzr/H8+oe02qMs0uyu8EANph2X8tdNTHYZp22xNndRhTWRuMoLFB7Ku/xVSAkDVaxTXlJjQ8VqgE1gnMG5wzWCbPFNE6KyDHqIMR7wGiNoWKYl4wnFbffNuSd7zrKu94FR2+OCTxlEbNge69qj71AT477DjsyInfmgCQ3545PtNo1F8WSpNmicTQalmvorF/mE25N4cknCx584BhPPn6e8+cyCDcicoiqHGBshs1j2Kv0NWU1xQ1gMnHMZ1u0iScaLY7GlacqWLEteTYao42EmtcKyTxqlm5FSaO3SfG3hihR0yGSdE4SUPGdhJsdJNrZtr08HTJSUYLUqAmXIL/QKe7ffdkVB3hVcrxIZCAem2ldnqs/5E5VulWkO0DBBtuJL64mHAVJtZbJ6m3+FjN9433nS4/BJqs/Wovt7+M9KopzDudiLLX0ZXSLJ61YlYBikZAj5EgYYL2NlSdAWWyRZQXGbmHMBdY2Su6990be//63cN/b4dBGrMEkXYXuvd9m6MJSw7YTc724zjbdM7tdssvnVvW4ztGT475CIFa/N7Ehlg9xJyclULdKLk1SvyGLQ0EJJiYeLtPipUYTpW7PF2TDCVZMKw2twHQLzp6Hr319i5deXvDKyTNUpSBmRKgz0EEMRKaEkIZTwi6lBqtYzah8dcQj6hLB0gLcSXIXJ5U0VtGr4/LHcCm3Z8x6Nb/B8lKff/Xlb3Z8ux9z8zlZuV6rv8VyHnAx8a5a2pc+huVws0tMF9CG2VKJjEn3S2vNUmHwqFYgFcZUGOsxRnF2kw//3t381jsO8rb7YDSKbluv4ASEKrrVUYIPZHYQk8TqGMtEYNufiZ1PsAQcdQm5HeBM55B3Jh53/98T5r5BT477CTvHnR0PrQoEjSX2KopJcaQYY4u2o2smzk1yowa8eDyeGoszWZPSwnwOm5vw7DPwwM+e4uFHTjKZvJvNbUtZljjnMMbgGxUV5wjhUk69Hm8GXG64edWEo10+33QkAXAyR/Qka+OKm289wP3vupPfeZ/j6NHkdq2gmF/gyMYEQaPqkJeUDQ21r8FVqeQoTjBt6vwRaqUoKkajPH3xjuOSXVf3uI7Rk+N+Q6BjKTb9FX2rGAMuEqJajCxdpIaUKBGSW0qgDsnVZZYWYlHG5JoTJ+ChX27z8wee5rnnz5HZDTYO3s6FqeBDkh7LYgeJMgkC5HneEmWPNyf2ghy724hIu09RxYYKrefUfgtrZxw8bLjv7TfxwQ/dyv3vgszG+1yB3ASEgpoCrSsGbkxVDWPjF6nIcnDSzdxtspnTschSPkGpkiM267hse1zP6MlxH6HNFm3jhAUwx7S6k1kSZh4s2Q46HsdoISLRlVWlNk/Wxma/0xn86peehx55nkcefonp1DIaHSV3BygqKAqwg2HrJIv9C2M9orWWwWBAVTU1dD3ejLhSctxtuxiDjje+0wyDMMgU4yrK8hx1OMfBDeHIDY7f//A7eNe7DYcPw2wGZbXJ4YMjDCWCw+qgE4qItaNaLxCXk1KWgG5IISaGQd1my0qfLbsv0JPjPkJTQxjdQhVNx4I4o3XAAF9bnInxSK0hhArr6qhmY2I0ssKiOo5xRR+txJ/+2PPznx/j5IkFZT1EZEQ2GBMQyiK2cLL5AA1CncSuG/HupizDOdeT45sce0GOzTaN1dj2tAzCgfEGs9kCX9dkmWCNUvkt8DOsmWPdlBtuGPC+372b3/vwQY7eBJhYIuQERiYkybxEcCnLLACm0bejagqJUqVsbOzdRO571+r+QE+O+whKwOMJaRbbIMYTLeDwFbi2jxCgFbg0AojhfKHkg1iE/9wx+NEPj/OrXxzn/FkHHMTXE4IOEJOBEWr1+FBgHOR5TllW7QBobXSvdpv+Ng12e7w5caXkuPPvzf4aklws5uQuZzAYYU2Geo+vaoz4WHNbR53XqjpDli34rXfewkc++lbueweMsighIEAoIYT0rKSE6RDAuAooO+QY6ypDSmiz9HHH/YKeHPcRYhp6kdyaOaTuCiuZhJoy87qZiBotyc0tcGvw81/CD773BM88c5LZtkV1grWHcNkGsxlYNwSTEVQJoohJWaIhYEVXZvZAm8bvvSfLMnq8ebFX5NglxeV6z3CsVFXBYu4JwZDbMXk2RoJQliX4GqVkPILBSCmLTYwreMdv3cO/+d0h77wPDh5IkQaBoGBsLFXxocR2sml1FyHXnhj3D3py3FcIRFcqQNaSXpuCL6B4BKEmoMHFDvIKm+fh5Cvwqb9/hlNnPNNZSeZGiB1SLALeW1w2ovIGMY4QYo2isZY8zwlaUxQFVsAmV2rouFcbF2t/u725sZfk2N1XdN8HtoszTCYj8nxMXQq+BCM5GgyhVkaDAWU5R0ONyxQNJVU9Q4xnPJxz712OD/6be3nv71rW16HW2LTZUQM1NqVyC7FP6EWKCr1jZN+gJ8f9BO28BEIFJgkxKxWlLrDiKBEMQwC2t+ChX8IPvvs0Dz10ktHkXjyj5S6lq44SayhX1VGWvRMh1kj248Nrx14lrFyt/V9tLIUKiMpHHT3ZxoMirRiALoUBJCBUDF3FYv4Kt94x5o8+/k7e94FYLxlCwJmSHN9mpYbKYNTF9lqNiIABSbrzO8MIZVmS5/kbcBV67AV6ctxPSBk55ZYnX7MpVhJid/uhA8mAHA+c24Rf/WLBv/zgeX791CZWbuTQ4bs4c7Yk4GJxuYlFjyoBpCZ0ev81pKndchA1mNAnsl8JenK8AqghyFIDNmrFLgUmgEuKTDQiA3VZsr6RUfszzBYvctfdI/7o4+/hA+8bMBmm7iDqcShWDPgkttE4bDq6501Nbx9nvz7Rk+N1htUYy84/Eqs3krrNfLrJaH1EbFUbO2JszeCnP53z/e8/zfMvlBCO4OwRFoVjNq+YTAZRyqvjjl0ZTiQkYowDzkrvPyW1fLqOB9irjJ4crwBqCI27s20vVsdl0zB5RTjWtIpNRiONjsdjzl84h9HAxoEh6rcpy9PcdceY337PzXzsY2uMhpAbCHWB0UCeuaiFCFGSZ8cl9N63Gds9rh/05HidYWecZSdClbLs8vj8T+c1+cgxm8MDP5/xrW89xubmhAubA8pqjNcJyhCxDufA12Wqi0z762irAq225soxCa37SjT0luMVoCfHK4DGQv1l15MaQ9LKlZoVvUCVRIwu3dSpdMModfBYHLkb4KuCxeI8mZmzsV5x260Z/8NH7+GD74c8h1DDMEux/hDADOKiQ4RNtnYTd+9xfaAnx+sMu8lntX9jWdt/9nwgywyjETzxBHzpS49y7NiCujzCdJ5TVkOywYR8nIOFsppSVRW5Haf2Rz65UtOsu23yS5wlN70PNUfJkBBnzEbmaZbe47WgJ8crRXwKBNruLF3vRkRjMUprOYZk7hXVnNF4gPeera0tMptz+PBhcoHp9gVCvUVmt3n72w/ysY/dzP33gxtAYM5QSIk/Sc4uySf2uD7Rk+N1hlf7uTyClygEoAovPQ+f+9wTPPrwCQw34sNhvF9HZIJxSR+1mlKFKflQGY/HlLPU2UGSQLOkxsDSkX1rydGC5kB6T8BI0ZPjFaAnxyuBdpJtYCU1rO1j2VHg72wTiF1CrFXmixnOOTbWD+CDcOHcNnUdmAxH+LpgfSwsyuOUxQu893038T/+h3fylnui12YtS3FJojtVNXYh6XH9oSfH6xg7a71qDNMAL74MP/r+WX7xwDGKxRoSDrFY5IgOU4qCgvVYpwQpqUKBsfEhDlXYEY+xrbtqFcssP/Bx2XQD6au9XjN6cnztEF3mTrf3MCY1Z+6el3bi5p37l0BdFWRuAJJR14E6RGFy5xwiipjAbPs047Hh0MEB0+lpFvNNfvf97+HP/mTEgSHceGRZ69tIJzZSitZaelwf6MnxqmG37hQBbQVPbRQw7pRmQLMMaIoMhpBcqT5agp/94hYP/uolXnr+As4cxprD1OUAw4jBwOKDUvoCZYF1itiADzXeV6uz3MYq1NRZXbsFz91kh2rpdlVZWpI9XhN6cnztaMkxEWNI/S2DCCs9TlPfzvY+bpJ1CFhj0CCEYPABBIc4CwRqrcksBC0JWsXm2SJYcVFo357ik396K2+/b8Ltd1icAe8hd/GxrapiKYJxUZ9QdnnOaY8ropl87sRvsk2Pfy16ctxzNHG5dIPu6PmmaRtpb+bl5VdqPAVg8CFH6iH5zrHKxVlujWVaGlwOVYAf/AC+9tXHOHvWEHS8EhNcWn/pe6SZMS9LM3ZH07dqtweuu4/OefeWY4+riJWcm6Rzmoo4Olule1V2PoM73bGr93FM9Ln0MyMyx1cvcdfda3zkw+/gQx+CySRVVPmazHq0rhE7gJDiGo2B2+6k+4rdPuKGjfdmVWEqHmGUtIsYcLGXp8drQU+Oe4o0g1OiRtsus8Mm21PY2bpJUDwLZlgyDGMsBq1BS7CNIIcqC6/YQWzb+shj8NV/OsZTT0+xcgPFPKPbVqdHjx5vFJTBUAhhi7o6yT1vmfCnf3wf7313FDW3Esm7nG2SmxzyYdMpIPJZ0zuubTIOSkEkR9JGli75JecttONJU8rS40rRk+OeYnf5NmCHu6R7Myd3ZSLSOm0jwKLcZpwPmh7tnD4z5dDhA/gAL5+Eb3/nFD//5cuc2zTU1ZjZXBiPD9O7NXv0uBpQgq+o6ikb4xxnpgjnef/v3M3HP3aE226DgY3z5hAWCAViHVoHyrJmMDq0Ol60ZVMNg4aOFRzHjTb0QudzPfYEPTnuKZobGXa6MoHOzd51R3a2U/ACZRnb4zgb3SXTxZQsO4C1A7YuwEMPKz/60bM89dQ5prMhNj9Alk9Qyajqpttxjx493mhURcmRg4coygXlfJuB84RwlttvH/KRj9zL7/0eoLC2DoY5i3KTUT4AYHt7wdraUdiV8JqxpUZbE9NFjdcmL6HZtn/89wQ9Oe45wiX+32B3d2uDqgKTAQK1VrFWi4zpwnD2HHz5C0/w+GObnDrp2Fi/Ezc4yLnz2xSVZ2NjjTpUnVhKjx493khsTNZ58bkTDAZjbji8wXxeImbGcLhgPjvG+z5wMx//+N289a1gBCwVIWxSLLZZH6+zjCsOVj1PkLylTQwy+mJ1h4dKenLcM/TkuNdYcaM2gfImDa1JkulmzjXLOBusaxAbY5N1miAuavje90/zT9/4JSdegtzdAXqEqhxgzZBs6PAeZvNNBiPbk2OPHlcDalhsz7nhyA0sFp7pvGB9fRw71izOMlmrKYuXuPEm5aMfvY8Pvv8g62swykGoEeYIVXSVMgIGrKQmtMk7yyQd3dEdpCfHvUNPjnsJjcX3QOqZOE8vT7yrB6DDlEmaPiPEVhYUaRcjpjPIhnFfjz8JX/7qkzz2+GkwhxgObmS6sJQLQcgxJk+p5JBlMC97hZoePa4WhnZAWZaYzOFDYFbMGI/HjMZDtrfP46SkmL9C8Kf5nffczif/433ce0+0IouyZjycYaiAITBZJoQ38+tOJusyBrkzQafHXqAnx71ElxwFkIJIjhWRHDNglKzH9Jk2ZTsqhhdVhrNw/gL887e3+NGPnuP0WQf2CEHGzAuPdbGuSlXRVL8sSaFGnO/JsUePqwRnDEVRUGvBYDzAZo7pbEFdwWSyRrko2BgPyWTBdOtFNtYW/P6H3s6//cMNjt4cvUaGeeoXGbvjtOUp3TrI1vkUUgwyrux74uwdenLcS+iyctAIqZaxYJlt1mSZuVjnZISQapaVGG+0Fh58oOJb33qCY8/XVOUteI5QeEel8eEJtgApMNSYYDBqkRCD+ip9zLFHj6uDpXydSk0wSpBG6TWGVHIzplwUZAIDV1HOTmFlm99+zz38wR9s8J7fieGU0TCOFlUVGDiDkdQfUi4OyZTlApOBFZfIsSfIvUBPjnuIbinxShlx0KQkE6jrBc5lBCweh+CoPMznMB7D5/7hBZ59Zsqzx+ZM5+sYczvBDKlTJqtaUDtFZI7BIypIyDFhgKhBGy3UHj16vMGI5KgSCBLaSW9oa54tvhYkCLlxDBxoNSdUcyYDy4FDNb/7gYP80cfHZAMgNCICAUMRVXZqRdRiJMfYxI4CSqCqK3I3uHqnv8/Qk+MeQglJ5QZMyEGXPGXShK7WLawRAsIi5FRFxnAAL70MX/jH53nsodPMp2OKeoDNDmLcOj44KhRcQG0ZrUaJiT6RHB0mdB6Knhx79LhKaDSwYh2iYpZt3iQQtMAZiSRaBiwWZ3LqQikWZzl0Q8Vtt2f81/96F7fcBtMpbKzXOOZYKiRls2rI8LXFOkEaElawvdG4Z+jJcQ+h1CgLPBYTRq3CmkhK0DFQ+gLrLCWWoEII8OPchbfBAAAgAElEQVR/ga999RecOK44bsXXQ1QGiHMEDJWv8dSYTFGTMtVSOx4wSIjap7GbRk+MPXpcTQRMUqlqxPtBTRm9R8zIBxajgcWiRGvLIN8glxFB4fz5FzhyoyHPzvKJP34Xf/hvhTyL1mNZnmWcDzBNuUdwVLF5Di6P330dS+Nec+jJcQ+h1ECFRzAMIEjLVSKpPENhXkE+gHMX4POff5mf/OQYZXWIulpnkB8l1BkejxglUCd9RY84IYSAmtgBoyHH+BDGp6KfOPbocfUQ2ucxA40JNRBLNTAFPmxjXcBlUaXV1wZfZyhDMpMzHBrOXzhJ5s5jzRn+8KP38sefuInRAA6sQ10rohWZTb0iFeoago9jSp+uunfoyXEPoSkYH2OO8SGRlMEa0ktTAs6vHoJ//NLDvPBiQek30LBGPjhEWRo8Aokco4KqEkK0FuMDkXrQNcF5XT4RPTn26HF1EJIbNT73glGDqEmtlKO6jXWBebmN9xXZcAAuo6oheEFMTmYHcVvdYm1Ucv7Mk9x524i/+IsPcudtsLEWk/2gKRdL44uP7/veynuHnhz3EEq8SdWAlZomUzUghHpCXRu8hy9+YZMf/8uLbM1GLPwIZIK4jEVdYbIalYAhQ1VSqzkBVUIIqaVUNEdVYjZc/G5JLXt69OhxNbAkx2gpGhSrMfwhajAqGDdksSgp6gqTGWSgYDzBxl6Pvs7QOoD3aLXg8EYG1QVGbpuP/dG7+NCHHDccAZdBrYHazxgOmkYDS83VHleOnhwviWXsTne52aRVyl+Vg6tTz18jFU2RrtecshB8Bf/3//Usx46VnHhZyIc3MVo7wPbCMy+nZEMhmAViFYMjeIPWgsVixQEG1WVj1mgwJoLs3ao9elxVtOQo0VK0WkerUVMdsloW88BgOMHlDk+gCHM8BUEWeBRnJuCFTDJyZ1hsb2P8jINrBl+9wgfefzd/8NHD3Pe2WNZVlp7hMCAUBAKGEcvGA3E0uHiAj76t3gP76ujJcSfa4vzozozJ2W7lz0qNocCgSfg3yjyph8qeI3MWz4DCDzAmNiR++BH42799jDNnHeoPoDoi0NQmKkK0GH2XdAHTuEwTAYvI65t0E66sGa6+zk/cfm7W+0bgSq/f1R4uLnd8cpnDu+zxmys7f5XYGLmhpdXjkegNSs9y01c1SFsdnRLrWOm3Gq3QWM5RV1u85a6D/LtP3MZvvydakFkGVqYIFaoZwRusiwlBCizqEhEhs42FuQz8tFPqnd2DevTkeBHam6SRZzLtrb7cxINWcZ4ocUaIT9u4KRWBwDpK7LDxrW/D57/4K/L8VjY3TSLGeKMajd3IpYktXubwXvfBvyfHfY2eHF9fcryi65dilEislQRPSBNhkwg1MwFnCkw4wyf++N38+z8BY6EoZgwGJbkZEJulK7WHLBugTddH9TgRGq9YJMcmgag5gVc9/DcVenJ8NSS5pniBlg1HvY/1hbbxXshSG7XSESox9rg1g8//4wm++70nyId3cPJUydrkVoIu08ri3K6OQXgJBH115eCeHHtyvBL05HgNkyMxNhlDJgpSR3LU2J7KKJig1NWUA2ue+ex53v++m/mLv3graxvgA2SuxFIBObDa9LwKkBkgTcSbPrFRvac5gFc9vDcVenJcQdNrcZe2UpKaGKsheBuzwjRu5tWjcgEjE8pqgAi8cgr+6q8f5tEnTjBZu5Oz5wLD0Q1UfgCaE+/ClI3aWo4Q1NKT46vsvyfHK0JPjtcLOabJcoccUUuGI7NKsTjD2rhitv0Md9094b/95Ye4/c6YsaoUGPJWabWuEgU6GskuljkVvdzcpdCT4wpCqik0SFccPP2tjfUFFy1KibMxj0fsDFhnugXPPwf//e8e5fkXz5LnhyiqAeP1o5w/v8DlExQXH2IJqVSjIUfTk+Nl0JPjlaEnx2udHAG0E4+M5KhkiDoGdszW5nkOb4whbGLsFuXiJAc2Av/lL36f+98DTWhRPFiBrHtI3a9vnVShYzj2RNmgJ8cOlJpAQQxWj2jj5F2Xg5ZgBFVLrQZxUVZcge05/PgH8LlPP0JRCSYbs1jAcLTBdBEQm4Nk7a5i4D520RCNFmtPjq+OnhyvDD05Xg/kyNJyjAeFYkFzZlslt9+6wda5EqHA2Blab3PkcM50/hx/8mf38973HeKmozFnNVQwzNJ+vY8BypWOQDExKKTGkQbbE2RCfxV2IGajeqBaclRDkgEIAqYmmC2CneKJ5Pj0s/Cdb8Ff/80vsfntbE5zFsWQg0fu5MJ2TVHBeG29800d14b2ro0ePXrA0s25S2gHuOHoBs+9cIFsmOMG62xtgxscZWs+ZrY4xNe+8hTf/fY5jh8Hr9GKrCpPCAXYDjErHSsyEJuyl3DZlMA3D3rLsYMoGl4Qg9UWyyBmoXatR6PgFiiemVqCjjh9Cr7xjZKvf/1R1iZ3sL0dGA6HBISiKskGIzBCWZbYlMUTLcUmIYfY6kZNn616GfSW45WhtxyvYcuxyValKfNYZqtGy9FR18pwMGE+nZM7x9okYz6fEeoFa2uG7elx1iZzfvu9t/Oxjx3lrXenU6o9mdPlRDwlG0bLsSYQcyoMWRI379GTYwdRyTTOnsqqYJxNEM0hgM5BhoCNlmUt4LE88xx85jPP8OADUyaTu6iDtKIB7Y29y/PSPMRta6vuQ3EVcbnB5XJ4vcmxR49Xw3V9/6pJTcubcSAQjF8elwpRyDwWYTTxyShPF0s/CDVrE+X8+V9zzz1r/OX/ej933QlVAZMRiFSgFb6qsPkQiBPy0gcym2F6cYAWPTl2oARKKiwWQfF1jVGDExflKNJMq+mt+NAj8OnPPMgzxzyT0Tuo6hF1iOQamkC30HliOx27k+6b0aUGKywLg68WruvBpcebHtf1/aspEZAoDBLHkbo9qZYggWZavZxkh5Zcy8U2hw5arDnLaHSB//hnv8MHPwi+Bg3bTEYANYuqJM8mGEYohqqEPH8jT/jaRm8/r8DgGOCJwezMZfhQgKmBQFEKNnOUNTzwM/jK157mqV8LYo5SZpLcIPUKGUaFt4vJrqtPAaBth+/e59+jx5sVO7ndqImtDETbUMxKO3Vp1iSBc2PIh2ssCqUqxpw5NeMrX3mOqrqL938ARuM1NsszjHNlkFmKckFmh1iJEaPW3dqjtxy7aPJuptOaPHdkGTSJM7Ei0XD+LDz6CHz5i8f49TNzDh+5F8lyLmyfxWS2E3MIO5ZdmGQxNm6SuC6i7i3HHj1eI67r+7epZ2yxHEOiezUl8XXHhzZpx7RKXetrE86e3iazws03Tzh+4inG43P8p//pA3zko4IxkMsci0dwhDrHYSIprs7Z39ToyXEHVGN/NJPKHIvSY/OYRDMv4etf2eQH332JkyfGjCd3sajAU+BGJUW5hbPDVurp0ujcgbrTeO/dqj16vFZc9/dvl+xaNGNCVM1p1zXbtdnuQlnUDAYjjAwIIZKpD5vAafLBOT78B3fwyU/exsYQptslh9dyRGGxXTIc5dFldrWvwTWC3q26EwqZjSRZKrjc4oHjr8BPf3Ke73znOS6cX0fcDbEyyEDta0JdxAzVKq18VXTFxLtKFVeXGHv06HGVIZ6OZiXLsg7i2JC0Vy8eY6KguXOOEGrccEi5qNjc3uLgoTGj0W2cfmXGD390HMKIf/eJw9x0KKeqIHcwXFN8eR7r1uhpIaK/Cjsgyedee7CpwP/UKfjWN0/ywx+8yPnzE244fBeb05qz2xc4cuQAFsfWtmeQ5XFyd9npp1mNLbTFvjslznv06PHmgS6FxleEnZclHhdFJXeEZ5xzWCvMi/N4ag7dOKCoF5TbgRtv+S3K2SZf++pzOH+IP/sTIbPAqCIfnsfmBTCgp4WIfeZW7WoGph9Yu66SjnZq25R0BzTefl5iEe0rp+ErX32RH/7oJYriCMiN1N7h8pygNfPFJuPxkDwfcuH8JuPhsHMjXxrtRZeGFiOuNjle926pHm9qXN/3r+7owiGtm1Vai7FbdA1toFANKuC9YjKowhzjlHycsZgXzGeetdE6Vi2mnhHKk/zeB27hz//8EIcOwWx6nPV1B4yA4Wq4p9VjhYtHqP2r07rPyLEGFun/ay3RhdZLUaFUqcR/FDcLYE38T13XiMspajAmiod/+tMv8suHXgG5kbIeoeQxB7XVlos3smiMSypcVdfolRYpX9+DS48e1zsu0R6jJcdLfWwZqwwSUFOBxB6xTaKPBIuWgfHAoeE8dXWcd99/iP/85/dyyy0w3VpwaL3AiIVqjVCDyaMuyHRxlvW1CbHTR9fzVQPVsi9k+vt+wP44i4tw6RG61oDBpV6LSsMVGiqscyxqwMJLL8M/fPo5Hn74LLU/Ql1NUAYEBDVKzCqtMS1BEuuMXu9T69Gjxz7GJVrWXW7C3Xig0kebSa5o2qPGV5YNCFjyfINscCOPP3WGT/33Z3jkcRitDxEOUBcBTCRGraMc6/raOvPFfPl1O2OiS33N13ri1xz2mXPZga4t3Q+yzE6OZbIZJmSIjU2IjZEoOkGg8AXODLAWnnsOvvKVZ3nwgecJehSbT6jqHK8OrN+lbjHQftk+ujl69OhxHUECRpfKXCteoBS7tCanLBZopQyHGxSLbR7+5fM45xjnd/K2uyHoRjRUpU56rJGwczdmRchEoz4PMkiWZNhXxsH+tBxbF0MFFAgeIf7OAwFfxIxll6YGC18hboIHTpyEz37uKR78+YsMx7fh8sP4MCTP1yirwG5iwPvphujRo8f1jWjL7Zykx7XeK0YGFIVQFJb1tVsZDG/l8cdO8TefeoRf/xpwMediWm0BBYGCxbzA2jyOf41YQLJGIzNm8YP7iFL2z5lAG2NcTpg6N0jTPiOAE8iSTNLZC+cIZgBiOXES/r+/eoKnnpzjsttRDrO1CWXpEAuvGnDuxCB79OjR42qg60I1u7yqyjMcWfLBOouFZWvq8P4AxXyDF18MfOZzL/P8izGSWATDIiwQPFlmUy7Q7t1CQvLM6T6ilH2VkNOlpyjGG0V7CdlKkpcGkEFIjaniHOvUK/A3f/MQDz54gbX1e6lLx/YcsuwAmBwfIB9AFQqQEqORaW1yV5hgCdJ08X5DT3sFfUJOjx5vXkhTOy0eqJfPo+agGXUlDPIholBVIMxRFjhXMxop0+lx7r//EJ/40zv5rbeDS0mOeZPB2pWYS/v2sly1nwR29lnMEVasN82WMeLm11OPZHUUCDcTIGalfuXLZ/jxj89w8NDbKKohs5nHmCHDcU5ZQVWHmMJ6kXHYUahQ08cde/TocXWQrLo0RQdxiNbE7NI4EGZZzqIosGZAPgANIxSLEc9ssQ3uAA/86gXIa0aje7jnTof6EcF4DPWSIKUh4MDFGaz7A/vHBgbiD1UR/adm1ZRsepeFLTA11gzxGE6chH/4u+f55jee4ejR96FykOmsYrx+iPVDa5w9P6WqA+sHDVtbm0BYydSKbgTbtpLZbzdIjx49rieYNBbZjqxcggSy3GCt4rJAUJgXM3xQcBmLSvB2xOTAHTz6yBaf/fSLvPA8WLH4OkeDab8iJj3GMg5SL8j9hn3mVo1NO0tfM7TriId6AS4HTAC/Cbnh3IVt1g/cytY2/D//7/M88MA5svytbM8Fm8VCXJWlRbgiIqBVUsiPa0ywxMwtCygYf0V1jq93M9rLNgPe582O93uz5Gv9/K52s+Vr/fwvh1c9/k7LK/BRh7W17lK/2B2kGVpPV0CNp/RTxsMhplaq+Sneed+E//K/3Mldd0JZwHgEhDJm7eOpfIWxY5QBdQWDbP+4VfeZ5WhQBGcHhBRudEPwvib4LcgNW9MZGwdu5exZ+Pu/O84Tj83x/ibms5zhcEwQk+oYQ7q5SpASoUTotqMiMUF3drZfbosePXpcj4j9j5sxyeywHlNDZKkuemnq+jEcjClKoSyGOHcrJ44P+drXFzzzTMy58AqFL9EUp3J2iKqiGjB239hZwD6LOQoG9Q5nHbWHeVGxtpZhh55FVeAYMprczPYUvvrlc/zgeycRcycuO8j2vCLPgKJOfvouOsX9jWnUEmN6C9GifL1PskePHj0uBdEYXxSI41ZXrJz4HtCmu0czYAmtko7WNSoOY0ecOx/44fdfwMotHDqyxoHDYPMBZajJTQ44RMGHKblzyD5SyNlX5AhgNP5YxoDLFJXkD7djAmuEAJ/7/Am+971XULkVYw8DMFzL2Z5u4bKL3aKijQZE+tEvshjpSzl69Ohx1REktIRnUpH+kiBhVcXm4lrIYl4yHEyQ4KJ8nF1nvih46JGzSF7yyf90mPVJhpiMeaWMHBgBZyR61ohhpv2A/XEWHVgD5SJ21BgMHWWo2ZzXqKxRK3z2c5v89KdnqOqjDEZHObu5xbxcMBwpVb0NRK3UlRcxRdpoLNkw6tLfmm+tCRJffcupHj16XA3EXIm6fYXU2kppEnSaxEGXokPmopfWSmYdhpoqzMmGjrWNGzhzwfDDf3mWb/7zBV45k2hVhEVBFAMAtCmd2yfYX+SYanDyDGKTz4qyguFoQl3Dd78D3/nuc5zbnOBlndJDPrTUzJkuLrC2nieNVIeoWXmRxMVFd95QqQejVCn4vb/87j169LhOIIqaKr5EUQkp4SZlsK5ksbp2wo86JMT34+GAUBdU9QKlotaCWmswIyp/iK99/XF+9kDNfB4NkTyJqRhxiN9fdLLv3KoED1aAiu3tbYbjI2iAXzwIX/jCoxTFjYQwpKwrMrtgctAyXdQU5YKNtQ3qMpKeaWKLoq0bNaTLJbqMMQYhkmLjw0/dOXr06NHjjUVMImxzU5vMVU2tr0QwIbpXowpqd6yKE33nhLKcIxiyzFLWFwDIBznWHOTc2QU/+v5xcnMHH/wAHDyQ4pjqQFzHfXv949olx50ty6h3rNzFty01mBKMRTGsbxyhDvDAz+HLX3qaU6cNg8EEsQNGAyj9ggsXZgyGlnw0YWtzzsitt/JIQcBoIEiaYbUH1m1Z1RUd2F8zpx49elxnUIPZGdpJSToCS0uy3T7RosQwka8DeMiGsUHDoq5wziE2Y7o958jhe3jssScIfpMjR+7nve8GcaarT34JhKUOy8oytXXWV/vs1cG1WefYEbZdJoXOgQIIlD4gjMnseFlZIRB0TgjbODtiUa0BUf3mf/vfH+P5Fz3rG3exNVMUl/zxAUSjlbiD2CTJwDWGo2j6EXfWGcmO5qOX6yxzlesErzYud7tdrunXZW9Xc2UX8HLyea/3918prlT+70pxtetcr7RpXLhMWOT1rpO8kvtPRVEjtHWNKp1J/c4v2jFQdZoqG0KKX2rMo8CgYpAg+KLk8IGcc+ee4K47HH/5397LvW+BooTJMA7Vvi5RFbIsQwlUdYWIYqyN+wZMEvg0uPi+abHV/nP1cZ2ZOpGIcpuT2RzV2HqqLJUQaowYrB1xdqvAOCgK+D//j4dYzMdk2RHOXyhYrfmhJUZRhzTdryWsVmxAbBq62yt+gMtMm3r06NHjdYWoYFQwauMSdh+zdksalGXj9rCSid/US6bQklqmRWB9/TZOnxH+/u8f5dfPxNjjooLSg3OOLMuo6xofPJnLMNbh1V+UJ9suuyUl1wiuTXLsck17hA4YUdUOYYQQU42dgywPiCmTWtwa1h5hugWf+ewrHHv+AmfOlBg7xroxiun8EE3flf3XqLNHjx49/tVoyXNnyUeUylzbOMh0WhHCEJE1Hn/sON/45nOcPgPWxqYOmrRcvdatpWuIST+GQXplGNxKauO1RIxwTZLjslHx6tFZYIQzB5K6fFxrLIgEal/ig6H24Cx87WubfPtbj3Dw0D0sqgwY4txgWau4EjPUV59V9ejRo8d+RyJFo50xccVgMKjCcLDO9jwQ2GBt4y4e/tUJvvilU8zncewNAUIw5NkQZ12rSOnspVJcamLIrOBaMlCuMXIMKAHFoxQoBUKFEGJJRUi+6aYvowWoIzF6JWiGBvjhj+Cb//wk4/V7OHdWmYxvwoecre0FIKv9HiXJxDU77dGjR483LWIeRkuMHWNBBc6c3WSyPsDaCZsXPEEPMV9s8ItfvMJXv1qwKGkNmyhWJ9Qh0IRKV7y72jgIPZLG+mtpDL7GyLFBo/hes9vF8n4pJu5DjYhjmB/CAI8+Cl/4x6eZzkaU1TpeJ4gZsSg8Ls+j63xlRpSWOxNrevTo0eNNiyYGmfIt0vvhcMi8AMwQm68znVuCHGQ6G/PDHz7Jo4/A9gw0lbtVleKsQwTqnaqcuvP7rq0x+BolR1i9SGblutU+iedSEYJizAD18Oyz8MUvneTlV2ry0c2cPrNg/dBBFrUnCAxGGat9rNK+e/To0aMH3eSbi+QxpWa8ljOfV9TBM5xMMHZIrUOCrnFh0/HNbz7Gow+X1HVq8CPLBEilWsYVtbuMogTXWqvka5gZmh/IXlTzqCb6p5WaojaEAKdOwTe/fpKHHj3OkRvvZDZXjtx4C+fOz8EYxmuOre3Yj/EiaKNef+38MD169OjxRiNIrHlsa70xqbwkWnbb020GI4cxgelsTsBgsyFVcHjG/OyB53jwwRO8/HJMzrEOylqptCJzXJzYryThlIxrTZf1GqtzDKljtSb1eBNVHpq6RwFMDSzwzPEMMGxQzuGrXwh84UsP4gc3UzEhKtpELcGVfowS206JLt0Gy36MjQvhteNK68z2e53j5XC1r9/V/v4rxX6vc7wc3uy/3xUdfyOVCSB1qnNMvR6l0w+SJXlKIk1Bscw5MlGOPf0z/uf//Ef8h0+OAcgG4KjxfkZuB4CFYDv1GzSSPle9TriLa4emgaUpL8SZRLa0Gtvs1YoizJKY7piihO9+P/CDHxzDuTsIDIBlE081Jcu+jN1+jGbH9/Xo0aNHD4jlGMtBd0kTQmxyLFIhjZ60eFQCSsbZ88qtd7yX73z/Mb7xTagDzOegOIzNiXkkZQyLGd/sNBlA19Y4fI2RI6z4ny+SkIuWpZhBbD+F49gL8Pl//AkXpmOKekLQvKN+41MmVIWg8aWRH40mAYDop22N0x49evR4s0KFZCUm61BjN4/YgKHJMI09b9sX8YUaxKzhwwYXNjP+6Z8e5JGHYJhDWQMMk43pk7Hil9I4jV71NTQIX4PkmLCTGCWuKoMBDlBpxtYUPvWpB6n8QYowJrgBKt0CybDj1ex7SYqtbFxf49ijR483M2RHBn/Xu9Zp7t70t10ZM1O3IpNP2JoGNg7eyakzgX/6xq95+Xjsr1vWoOqSIaKJIEMi5DfuNH9TXHPkeJEIW7sixOCvGbG9DQT46786xjPPFqg9xLSqkCyS3UX9GNsXqR9jhxShU8ZxDU1bevTo0eMNRtuXNiGOmy6+gk3SdKmh/I7xNSBsz2aY4YStqTKe3MZTv77AZz/zMtPtOIz7kKPkyy+Uuk1ovdYI8pojxxW0NYl120gzKAxH8K1vwk9+cpxDh9/BidNz7NDipYyfU5s+3GQ/Jf+5Nu8dreu2JcZrr86mR48ePd44NH7TTrlbY9apBZq+j0Lb8za49P80thqhUg+SozpB9DCPP3qGb/9z9KAGDz44FKGpZVfqa5KJrsFDSkjWIlTpFfXytzbh3Cn420/9mKM3vo/TZ5SNAzf+/+y92bMk153f9/mdc3Kpqts7urGRBEDsIEAS5HADBRLD4ezSjMJ+0VjhFzvkcPhNsv8KWw926EEvfpKtCVkxD/YoPJrF4oxAEiDBBQRA7Ghi724svd2lqjLznPPzw8msyqpbDYDo2+ju6fpG5M26VZlZWZknz2/7/n4/oqkJZpp27Zp3Rtc2KLbt6+7/ZTs+Eo0nmuUs1TXWWGONawlJYEUTemTSdu7sWY5GLSZmGM2QmGFijlFDVhrqMKUcjphMIcuOIXqEH/zdczzzVCrg0hkpyVcXoMt/vMJ6N1yBwnE5QT8VvI1YIpBb+Ff/27McPngvb7y+hciQLB+SlRk71Wbvhl7op3V1jFZYiOt+jGusscYaLeJSDeo2D7Kdl+OKObaeVhw+eJDNzS2My8BmnBt7xvWAf/t//Ryv4BUCw1nz+JQKEntycVXh8y7Nb2nptTfca6ffJchz7AdzV2B1x8vZ2ocdrM0QzZlOoEipMpzdqhiNCv7N//4ur7xiefuUA3cAW8I4blHpFpmzOD/AxF6H64WA8QrsKht3Bakua6yxxhqfKPq5c8yINnPE2ae7p/CW3QopVUPaetVSI9Jg5RxffPA6/tv/5vrUTQlF4xalydDGIuJStKtnIKWUkjRHp8z37vu7UJmbR8U6ztAeTeGfnKnUl+wXWjOv3B4CFAOYTpLhvTEqePTvtnj+hVO88+4O00pRhYAiIqnJqbaNPld12Fj3Y1xjjTXW+BAszYNdY4bZEluG6Yo1ETsrJp7+jxIJ4ggUePbx0vFz/Me/blBgZyo4kwq2oAGCT2V1gMX8SjOzK9ujssAPWSFH9gKXQDguaxot5CMsAGRt0doaBIIIMcL5s/C9//QMZ87XeI3kA4O4mCK8se14HS7RT1pjjTXWWOODIRGkapc2wb+NV6I5xJIz7zU89uhzvP0mqAfBMq0aJDeQK0lQul6aXbc4EsHSMq/D2n0nvSIxe4crT5JEg9EM64RxNSUvYXsH/v2fvck771mMO0g2GJKVQmRC01QQFWcKDHaWU7rGGmusscYnCW3dqb2+jB3TVTPQEtERMR7gT//NswxKUuis2GA63UmWaVf8petD387nZvY3CUmdScQIJl6SQmefsHBcTjJdXidDEEk/Oi8KNMITTwQef+xNVG6iCgOaCHUcU4dtYvRkJiOXDDdL4VhjjTXWWOOTRQRTJQE5m9NdawkmAVkUx9g8a3jj1Zq/+UsIEXyAshyQmLIsukd7gnIurDqiZoew6PbdI3xCwnFF/8QLrE0bz218Kj/+wkvwvb99BnE34sMBopg5MekAACAASURBVAzxWBTIMkteOAxC9JHQrM3GNdZYY43Lgl0NkjvxIrP/hZxzZyMHDnyWv/h/f85bb6Tc9UBB7VcINmn33mXzzAVkmvUDex10vAyW44WWFpK0CdWC0+/Do4/+ijfenFAOr6cKGeJGYEskz7F5hjFCiA00ikUue1eCNdZYY41rEl2MUFv3Z8dcRWfM1br2HDp4A++/5ynzT/Nnf3ac8Rgqb7Bu3yLjdAVPsotAJqlh2iVxWXVVO8KLwN4Lxwvmm3zQic9Pw4ckHMXAU09NePbZ93H5UbbGDZicJhjqRqkraGqlaRpCM0WMMixHe/xj1lhjjTXW+GgwRM1Ai3lrK2jdnQ3RNGSFo/GK6oAzZ5VT73j+/D+cwRioQqq7OquMJp5UAMZzYfmRJGknJPf213zCiDo3f31oA7CkhsUKSEtKevst+PP/5xdEfwwxB1ABm4OqYqTAMECjAyLOGUSgqieX/PxV9QOXax2X+vqsr/8aVzKu7fEpoEW75KS5PQlGzATMhLrZISsdYnPy/CDnzwlPP3OKZ55JxcmnNWhbFW1z/D5KhVIxqTaZxSRZzokwu97ZC1wmtqqgKNZks1MwklhKTYSdMfzFX7xL5j7D+S2LDwVRlLrZmZ+2ZinQC22LqjXWWGONNS4b1LQpG0WvGEDbfaMtSyemYVxtgVHUObLyIO+86/nBD97j9OlkHNUxpNz24YiIJ9IgxpPiiv3uSn0Wq+y5MPvEhaOIIWpMvb/ELrhhI8mt+tSz8MTP3qCqN1AdkOclELFd9YRZ/ss8uUUlouuA4xprrLHGZUJrtJCKkie0Jei6YgFGibEBG6h9hc03mFQ5P/nJm/z8561HVUq8GpRUoHwappRZjtLMysz1p/q2WRZ7nanwyQvHto9iJxhDaNM32tdvnYTv/d3LKAd5/+yU4egA1qUWJ1lm26bFvdSPtjBOqvl35bU9WWONNda45iDJUjTENtcxFQIQEfJBTpSGSb1DUBiNjlL7fTz6/dd4+0Ta3IeMSAnkZLYAIKinT2hZFpIJeyfSLoNbtWM0pf+CT75mFMZjeOyHY154cQt1Q3xswMLO9iZOHL6K807U1GknTcHYIIZw5ZU0WGONNda4RtCVmqt7tVVJgjEOIBZoLHAup4lTslKo/ISoloOHPs1rr2/xV399gnPnwFqY1EKkAFL4Lca2iusS6VNmJev2Fp+wOGlzUzrzTueCsa7h1VfhRz95A5vfzOZOzcGjB2j8mOl0zLDYT6gVqxFDwNC02gkodtZ2bB19XGONNda4DJBISshvQBpkRqBxiaQTBwRvaOpIVM9gX07Qms2dbcSUOHeYH/7weV58AWKEPEuFx2PMaTA4W7IgsjohuSAVr7oiAEtf1fN9mvblyRNjHvvBU5w/l2Pd9agz2NLjdUxROmIEJ8PWs9z0KjF0yaDSlhRaY4011ljjk0evfJzUyXhRg4nZzHKEEsVhrTCdbmNyISscm1tTyvIwVTXksR/+ijffSAIyRrAmx5JjcPPuSqsaWewx9l44dvat9iv/zKuro3NBrwpBUn+v19+GH/30JHlxlM3Niv37D3Lu7CYxRobDIVtb2zjXpn/KPAU0HSgJyDUf5wqAtn3edDnvaLnxmjKvahFYGO1qUkC/t9617P5iurY2UZQogSgNUcLCcef7dt/bc/2ou8CxrxG0nd1TY3CYXSNpgNBe03lXvXYn+tbC4r3c/UCKMruvs2X2nRe6t6vPdb707t21fP+uBMji6FgWMVYMRZ7jXM7Zs+fJsoIjR4+ys7ODRsORQ3fw5JMn+OWz4D1UVU8Gdh07OmtxtnQkTbfr+y7qp+xtP8fuwnQNiue/w9A9GN22gTpY1MHrb8G//JcvMK2uo/YlUQxIg8H3qi6kpFLBL7FSpW26mS6clQ+2Hi91rpFc4u//sONfVqghIGgq6IdKRHSxYaqI9MpLpbECMXVVwUBIE113R42atoF1+t2qEWNALIhRYoztQxMTKUsMQRoMDWICVhxGc4gDJDhC9IyGOdPqLEigqmo0FBzcf5Tz56dkpc7c9St/4ofcvyv6/nwI+oJRTUU0FWpSEekoBsUSg0NVsMZR5BliGnyYEP0E1eTdSSlWaZISuiop7XUJSa01MyHWb6cQURMXJtjlZ11Ve2z1rpVRKxTFY2fJ42tcHnT3q3vG7cL9Uu16PPbTMtL8LmqQ4FE22b9/m3/2393DfZ9L3kUNWwxsDqHoCccApkJxEPPe+xd+Rn+d59N9+CYXj+VTDeMJdlRgBM6P4W//8xbnxwcJ8SDG1K1QFFIgtoV03aBhOfS697UR1rgYdGziGZ27K3shBqOaJsdWmKUuKnPlJrkW/Nz6lE7ZSnBZTtRA09Q0sUE0IALWCuIy0KydkCMaISiEoITGIzFiEKZmymQ6YTB0lGVBUxuapntwrm33w3xe6YRMJ6zS5Ja5EtTRNA1bm9sggTKHPBsiIvjGohiMSNv8dq5QqHZuoyRsgVZIhv4ZtOs0JkQFFU0Ce7ZuK4bMRlJfFV/PBZcX3f1bbjjfe75n2y1uo4BxI3xVIzi+/+gZrr/5MEcPQWZLFM+ibFvMedwVfrxI7LFwnLs1+j9i4YTFp2uiqarN8ZfhiSeex4cbyYtIWFV8do2rAxIxnWU10xbdQow5NaZOZSCM+FaQpjwolUiw9eL+2pWhSuNq6pt0HCNkWY4zFmlndI0ZsXHJljCDdHyjifSVZxCVEAImttsGR1nm+KahDmNs3hfS1yAkohLanLR5P75kupdILKhqKIqCwhVkFKAeiyVMItPplMH+0Ux4BfVIVKIGYgyoBrI8KS5d/lv6ls5dZjE6xGh/WopEBIMSFYSQtpZm9rmRpIgprUthzT24OiERaHC5o2o8P/3ZS9z3ua/z7W9BlIxIRWZqRC3Etg1WdDPng+yxdNxb4dh3m4pPA3qhxh4E32DLAUTY2oYffP8ttrcdUSI2WwvHqxuayFLQavQWo661Ajst0c7Gr6idM9wUMMllrj1etqgy6w6uBpdlqCpRParQhBrVZBkGbynzg23OsSESUE1uQYsgYsmcI89zRmwQNOAbQ1RBdUpZlvhrePxpm6Q9txpJ901z0BI0Z5An6zo2U0KscCoYKTGUSF5SVzVqEgvdmAyTgZUsKTCi1PV45vrSmUXReRrAxLBovMsCYyENE00d5tPYaWl40rQeg4IFi2SNqwhKHcbs2yiZbI0JfsBPn3idz99/C4eOgEZDZqpkecmoVdpkdv/VaE+ZvnjsvVt1Jr0VwbenGQGHEvExYiz4CD95An7x5Dvk2TFwGTuTc2QyYJ3Jf3UiVa/wIAHBYBAEl1hmdDFjZbFy/3z/gEeNJfasN9MnWEiyPJWAeo+S4o/OWgZ5hpGc2Ph2zqyJWqG6g5iAywRrMna2PSIbZNmIUFvqKoJY1FQEGi5NxtTVA53R8WHelT3DxJSI7X2NkQlZPmVUKDYKTV0Tmw1EMnKXpZSq6FGv1D60btXkHTCuaJUd7XVRmK9VaqLt8tnmHoO5NdnWQ9GYjjMTsF2lrGvdMX41I6ZaquJQcobDmzh+/DSPPw7f/S6U5RDlLIm7MEhegkC69bZBaFAZ7Bkp69LEHGdjNSZiRleAFoPLRwSFd9+DR394nGk9Is/3MSgtW9vvkRVrze+qRccc7Io8zGRMvwlpO5rFtMQMWSJo9Ag6M+tgHgurptsYK+TOIKZ1g2qdPA6yTVNv40zEWkMmDWJrXBbIMkuWDVBVtrbGDMqbcTJgGmpMUSCmoYl1Kmp/zc+u/XvRKjUKSMCYbYajCaPRNqrbVOOKqAZjj5C7g3iX4RFcVAJCJoIYgzEOYzJ2JlMAFIuonevBalpXadUSucxs3SfeiGobqxaiaWPWbRxzfpxP6jqtsdcwubAznZDnG3gfIOzjh48e5/77b+eWWyFgsCTXvyzELFOxcqHYM+Xo0liOkFQ46WI4aeDG9sS3tuGxHwXefHPCYPgZKm8wMVLknwg/aI1LBCVD44DkVPVECWltGlLx4TBnq6pJFoYmAkfs0nFEUwxpRshIx+5IV8Z4cmtwNjHfmqZCY8RaIcsmlBtvc/CQ5cYbb+Tmmz7NTTfv5/ob4OhRsA7+3Z9u8oNHj+P9JkU2xJgcYwSVjBCqFJ+8hhFJnW4glWw0mgSjkQqRMZPmDb769fv4nd+9meuOwvmz8M7b8OZxz9snd3j2pdeogyHUAe8jIQqKQ6TASIGVAjRD28YBXdglMZxtazXWGFxLt7HMOsmT7E1Vksuc1rMGPeVrjasZgsGHiFpDDEJmD/LW26/z2GObHDm2n43hoPVI9rLa+ySyPcSlkUYCXceMFAuIbfaToWrg/Db85++/QBX2MyhG+PGEamuHohgQmw868BpXOlSSyzSIawkXcxo3ooiE5LrrCUgI7X4WG7NE6yaCkJjLBKQtSWWMT3HN6LE2cPBwwY03Xc9ttx3lhhvhltvvZjCAYdFWX5LEWO0Sih9+eD8vPA+nTowxNiBi0ShgbFvv99o1O+KMFdzPGW6VFGkQs8nhQxWf/oxy9Gj6ZLjRcP/9GQ/c64jhAN58gfObcPIkvPlGzRtvnuLEyTOcO3ua6dSglKAFqgMgQ8lAcyKS9GmFSE5sY0dRHWnKTPOJokSJLZ/BpLXxM2s/EbzWnqerEVEM0QtZPqSe1JTFCLzg3CEef/w4X3voQYa35sAAkBR6nHkeSG7WPcxz3ds8xx6T2k/ADaGrs7fTTLHZEWKAf/2v3+K5ZwPjaj+BgqzM2Nx5n9FogIbkalvj6oSPu7W3LrdIDJRZTh1qvPeoKlYU07lHQ4aL+5CYLE9MBYzBjLF2G8w2N9+0wQ03bXDXXTdwy20FR45A3qY+qUAmy1FDpesDp2RUNfzVf9zhP/zfL6DyaULchysHTMO4JZHtfeubqwURQ16MOHv2LIcPHiJ6z3Q8Yd8oo67OYMw7fPPh6/mj/+ImDu6LVHqSoQwQBjTVAJeluakJKRzoWm7EZALvvwtnzsIvf/k2J0+c4803T7O9GbDZkEG5HySj9jnTeoCaAcY4NAoxCoLFGIO1QtME1HiEgIrHSERNPSdtNRnWpgLXMUZiTLm1xpgUr/5731Px6kXrGyIScAhWHH4qiI45cqTh+hs3+Rf/051EVQobyDBIMGijiNsCZ4CSvbL59txyjKHB2JSfGGswpSNqQEwJwLPPwYlTgdqnh0DawepMhjMFwa8TeK9WRAnkZSRoIEZBowW1xGjRIMQIW2d2GA5LBsMBxkZ8MyXqFOeEQanU2+8i6lGtyDPl2NEBn73zZu65x3HzZ+DAfshysFkSthFFqRB8YqR2samUL8S8i7iiGHJr+cbXRjz+w4yt7ZrtnTEhWoaDAZNqPJ9kr1F4X1OWJU3jiY1n/2iD7e132b/R4PKGz3/hJg7sA0uFxWNpEAzBWJzJgQpja9RaDAWCxQ1g+Gm44Xr44gM3o9yMr+H11+GXz2zy4gu/4p33T+A1pyxuwmuDRos4i0iGRov3gWqqmCxPjikNKW6tIJpcwKqKs3amjBljMMYkdnMrKJ1bh26uVBg1iC2IviLSpKwc61Dv2NoJmPcMTz8NX/iiENRhxWOMIIW2PSRNG8rbG+ztSBESnVbAZcmNhRoab3HZgDrA979/khOnJsARxOaEMEG1wZEh67YaVzkim9vvkZc5eTYieks9UUQdo6JgNAI5NGQyhXo6pdYdnKuxZkqox2xN3+fWmzNuu+UQn7v/Hj77WeHQoTTeg09yqyhbq1CSWy/E5Eazpm183Q7pef0VR9ckVbFEhWPXwde/diff+9uXQUaoGmIzhJg4ttdu/CoSYoUxjhhjSuSPnqKAGLa4775buP++5LQUCgo5gJAa21pyOpKpbW33SIOqkonDmmThozCtQBu4/Ta4+479RP0i77wDp96FJ587w1snN3nrzZOc3xzjzIiy2EdZDok+w+Ub+GBSAWtvSXmYtnXDejABHypUdSYcRWRmPa5xZcPi8LEm4rFOcVmKS9dVzrmzlse+f5Lbbr2RgwfBq+KkxmKAfB4S2SPH456rUca2/v6MpLQrGHJU4fln4eXjp6mqAcWwAElaHTEFV4P3a6bZVQyjhqPX3UxVTagrxYhl33ADgmEyaTh/ZocsU8oyUmQVyiZZMeGWWw7zxQc/xz33wLEjkNkUL1RAg2JEKIok8Kq6wlpLZtNE54ygatAoqArG9qq8KK0m2cbNABMhGvjN7wz4xTORyo8JjJhOlCzfQPXaDXoblKCB4D25GZFlGZOdsxw+ZPFhh0e+dT+5Aw0ptpybg0Bb68QmZVjEtiziZL+HKPgYWtdoKgU2LMG304QxSdh+6iY4dj3cde9hvBxme+tWfvUqPPvMcV5+5QTnz54i+JKmKVEdgW7g3AgrQ5AMjRBjjnMNBD9zp6oqqoqIYK0lrnD7r3GlwMzuT1JolPSYG5SCGIc89/y7/OKpG/nWtwHNsDIlMdalyxjcM+y9j0Es40nFsCwwLmn8YmEyhu8/+iu2tw0mG4IRQgwggmDIDGiIXOOciKsbmnHmpCfL9qV8NwJNPUZo2FcGjuxv8P40h49YbvvsYe677x7uuBOOHAEkNb0ubMTQ0DlMsWkdNRKjUOYF8+LW0rY/Mxgju6uHLRSlSBN2lsG0Tu7Zr331Vv7y/3uZ7Z0tnBzFGocPYekg1xaUhiwvCFNPJoYiM2xvvc2Dv3ETd9wFsb3GLiOV7AotKUIgejDGpRoCrZFmJQnODk2d3OJZO/OEkJY8h9Kl+9PExFf4xpfhm1+5nWl1Oy+8AC+//A7PPvsG1bRmPN6mqT0hNmgcoDFHY6qlk+KTdiYMm6ZJlvDacrzCEdHosWIQaxGNBKlRNWALnNlgOjnPjx57na997RayHMCixDQG9/ix3VPhOCsvLaQKG5Jy0TTCy8/Dyy+dQfUILi/xsWnbkbik1RmI6heqLK5x9WFUlGRZhjE10+kZfH2Wffsjt91yiE99esSXvnQ/h4/A0SPJaggemmnNoLBYq215sI6sMy+9byWZGD7WiV3aFjQ2xmHsBTK/+6VSe3mXRZFq+n716wf52VOO02fOMio/RePlGvdcRGL07BuO2Nzy1DFy7LoBJ0+d4ZFH7seYJBzzLGWbESE0YHLaUMr8Ineh2+UQUNZu6xvFOcG6lGIDMB2PKcqMgbUMhime2NQpqeQL98ODD1yP/6Pr+dVr8NRT27zwwgneOXWGqs7J3IAi28+57UCIFuccZVnOXKupQP2ajHMlI6m5ATGKiGsrWFVotFgsUYQsO8Irr7zK8y/ewl13QT6w2JbZvtdMuj23HBXIywJlJ1VHMQVb5+DHPzpFNR4QxWGcpWpqFEtmsmQxEhM55yruanCtQ6Qhco6dySZlUXHrZ/fz+S/cwT33FdxwPQwHULj0AFhimmCdAZtDTAQuyR2GgsZDE9qi4k4wLpFtrIksJyNGktUZQqDIU+cWWutzVo2nK19n2kqdWnP48IgHH7yD119/HmsM41qxxbVtXVhJ1zHLMiQmwtRXvvI57r4nVbUq7HabLrGBYpIFaQDZbGO1o5SeIUqMXVedTlImASUI1glRUw1WY1Kaz2CYp64sNbOYctFVA5PWX2Dg7jvhzjs3iHoXp07BL5+d8uQvnuWV469z7OiXOXveMJ1OqaqKPM9nMcc1W/VKRysHENLQaMl1RlE8Xi25KQih5Pt/9yLHrrub/TenTkDu8grHZZt19Zl0bpMGT10FBq7gvTPw5JMnUHsT3hsysRhtUt6bpodR1KN4MBnXuPq+R5hXv4+9wt2JsN+1jemqirRJ1hLb/oe9VjJtFZsub1Xaog6GMEvTkfa1yISbbxxy152f4fNfHHHrrTAYtWchYJkgTEhp/+2sGrLUhoYk85oqMVEzB5mzs6EQu6r7YlISeExWirRVxqwFay3znoKxfwlAla6O69bODvtGhxl7+OpX9/HY9wecObOJc8OZ92P36P6gSXWx9c6H4mIJPx8xl6vretJfL23BvCNKOqaVITubNfuGJcQpp8+9wv/wh19JP01rUoI+qDYYW6RdJRJijTWGxleIiVhjMVaQ5Bxnbrq3aT1oVxWTmf97VrS+d0rdvdOAKhSZS51WfPrsphvhhhtKvvXwl9mZwl/+dcOrr2/y1pvvUVeADhHNMJqjoZhVVenuZlwosg5oJ+27cb5431OXENruILOd+lt8pHuzxmpEIkbbxvUCziXPooaMGKGuoSyP8vOfPcl3fvNubjgGmc1Rkp698pYAu/tMugts13u5K89x5X1ePjDMEruXDq4CgQDUnNlWNgZD/pf/+TgvvZiRFTdTRU8wfjYgbcgQBdtq+h5BP8B6vNz98i62n98n0w9Q6QpHR1xbjaRt/yUBY6aInaak+mjRmCNhRDAR8m2qMG6L/JZIzImNQUKOFUPuDBqmZG6Cy3YI8T2Go5rPPXALX37wUzzQshm7eVBmrxWDX8pBbNW9D5rsly7H4vWT7temOVR0Ppnp8tjsxlwN4mgoaUKa6P7mr+Hf/7tHycpPMw0jopQp7iGyUP9TRHCGNjXAz9IDIOKsxUhO02QtQ7Y9Q0kzqbRBkXT+sfdZXLjnvq5nn0nrVk6v06QeQphN8OnzltSGEFVxzhFQVCMRnU3iRnR2OTqSSirPl5QiTc0wye0Qow0hnMbYd7jnroL/8V/cgw8wyCMZVXvVU4Wb+f3pLPWLLPwcl/aV3a/7t7U/KwVoS0akNJGf/uQ1nn7yFKffF4jXYcxhvC9pvII12NLidUpVn0esMhzuY2cnT8x5E0ErUI+V0I4HCyGVsuv6jGqrTEaTnjcJH6zcX+vz14ftb7pYSNulB1oGeiwwaiEKg6JhOv0Vt92q/PN//jn27YdJNWZf0bLN6RKfu5OinQ8rpJstdLQYcmnLnaZiJentX9OtulAwc+VH7ePMNBo2Ngp+8Qt45/0Gz0HqqWCyrN02tI1wU81VOk1s7fXYGyw0k23fEtDoUYmY6DHEVL7Np64WkUBRZljNUzyv7Y1oLeQukjnFsMX29kmMbHH7HdfxjYe+wv0PwP59Kb6URWYtpBbPB8Ctfng+9nyhC7snQWAWD9kn5Eiq6zqZVmTlgMYnAsj998H3b8p5/8wZjBQkok/KjSNGYkyKnIhSh9CSPaSNl0dCCKmoQQwMhxaoWwGU9pu/TkIU2ibNBGKIRA2oCqqB3GXMqgfpsqA3iaWrsiAYtT1fEUNdg7UZ1lpyOxeo3vvkLi2LZMsJiVlqDUKGGkXUUo8DMY45eFBRdvgH3/o8GMhtJ/I6jXtx6lAyklvsIn1bH2H3/nDp2+kGj487FGbInbdk3HHLrfzxH9zKa7+CH/14h6eefIOqEsrBATA506YhRE+RW1Qik50xG4P9BA/BRzQqqXy+EmIyV53LWwWsVzT9mk39uXToOrbE3oCIGJwxNE0gNiPOnxvz1C/gGw9DUQxRdlrx1oVT2h0F0j+dV6w3dhemqjZ2uTjSPwoW3S+zdSfQelqdYlAtEIXHfvAKm+cnDAYDxtPAvCv80kldiojqNQvpWYq0FsIEkeS7V41oKBFjcFLi8hwyi6pS7dRIyIk+YqzFWQXGBD1LCGe5/pjw279/Jw89dIhDh+eeLxSaKeQlPXfZJfhlH6aZrnKKCsxTOtpqKaT4mgFuvBm+/OV7+au/fJrMJE21K2itRsHME8pj22UiBohNxChk1pIVGTarmU5PgJm0X9tahbNK5nNL04gk4oHrymCl/qZWzMyS6yw81U7ASrt/6neS0ibmtrjGjEG+Dx9qQgiEhtnvLazDZA6NTToOmppa+M56TwJ732hA00zJ7A7X33CQL3xBZh5qmbkEFi74FeRJdAzkQHK/+VQ2cDiAez8Hd94z4o/+8b089wL8+MfP8eyzJ7BygIP7b6ZpHJOpYiVj++x7OOdSr9CsxGDnHoIsKTIpUBpmlg2Aiang/lq3v1h0zQRWFJBvlcYQAljLzsTzoyd+yec+fz+HDkIgJ2/jlqu9UT2DYdWYXXpvt3BcOdDNBV4v7pPqkXgUR2bgxZfglZffo/H7KYYZJjB358xctabd17ZSfM1XvWjM2kElzUWoUdOAePIiVZzQxhG9pYngtUbxyfKKhv1liSuV6fQMTXWa645aHvjCDdx7313c/3koy3SrptMJTmBQDBKPKru882Rf7TLL418BhBCVIi/YrnYoi9QhRiN87WsHePxx4cyZM2l7m5rymtbq0xiJBrLMtvGv9L4xhjzPGJYlWVFz9OiArEhMydFoxGg0YDRylANwLl07kS5Gmt6zjrb/Iajvhd5091JXKfWhrlNZtskExuOKqqrwjXD+fKSqle3tbba3x0zGFXUdSG0SXSsU22LfzrZCuY3DRcE3Z4EtJuPTfOlLDzHIwRrwdWo1l67p4hxwpQgEUdg+D8MhlG3P40BaGwfXHYEvPwgPPXQfp96+j7/93vv89CevMt10lNlhkEgxSoUERFOOZjX1NAHyPKcclEzrHZBmFraYhwW6up7r+etjo2tRNrP0lqxzFWIMGBEyV2Ck5M033+a5ZxseeijD+4w8azkHssru6wywVcpzZHkk/5pu1VXSOC6sg3pEHNHD9/7TG0y2S6zsp67rdn7qsdeg51ZtLZ1dyWpr/ProiCGGrq5ox+Bs6oCNJVYKjGQt1b5CqBE8TjOanffRbIfbbh3wxa/czgMP5By7IRFlqioZQlagLAcpV9XXWCdYe4HB94lhHhuPmLmAnI35lP8GYDTOuB4EuPlGePCLn+KnPz1F8CmlwVhlNMw5dHiD644eYN/+go19BaOh48BBOHAQ9u2HsmXhJtLRolDuCp53wq1LW+gM4OX1h6GaMiu4bEz3ukAkkZp09ucgaBKi40nKM65reO/dwHjasLU54dy5Lc6eOc+5c5tsbe0wmShldoioNaMN+NIXcizpNzlnjj7yfgAAIABJREFUSHHFXnHnK8pqTNjYSGtVaJoAtsJmgiXSBGH/cMikTsUm/us/uY5/8l9exxOPw48ee53X336TJkZ8Y4D9ZO4I2fAAjbc0QZlMm/RYzYz1trUaBoltCTs65X+Nj4dW2ZA4XwNdy8NUGMCimiFSUFclP/nJcX7jK/eQO4hYLEvFZKR3bCD1Fu69L7REw0WsEI6LFt0HT3TdtnOJayQnAq+9Ds/98n2sPYbY/UybBrWyIiYx/67UvmateV0qGDX4xmNNl0OoqFaIbJK5LTJXkWnNXfd/is8/eAu33wVHrgNXpElYCQyGSoiB0KT4sZNUzsY3NRBx2eBy/8yUFDyPPPQET9Lwva8YlmWKQvi2cLnCP/jmrQwHBQcP3sCnbhaO3QAbI0DAB2g8jIYsPHhCGrEhTlEfMZJhSPU9jQWxArb/4M1fK/OGv1180ewSNqZ1U7c0mHL5+ek8L8mSrXyFtQZnEuvSDQzDAejhtPVnb0v1boOWeH+I4MF78E36ja++BqdP73DgAFx/LClB04lnY+AIMbFQF3780q+63P0wgk9tzkym5GUXrmljv+IhTNjIB/gA25sp5vytb8HXvnILb751C3/76Ku8deI8J0+dpppWuLxBZB/Guq4sBSpm1mcSNYja1F9S5lGmNT4uOjdkxxGAeVWJlMalRgi10tQGm23wq+OnefkluPc+mMsrv8J6nIdWdn1da5T1e0Qu7d0Xdkuxmw9lK0ciXW8+eOyxMb4+gHIAm21AOJ/cRtqSAZRWO2i/c9b126w1r4vBzNe+REVvmxCPyhFGHdrUNPUY1fOMRg3HrheuOxL5w9/9ItcdhsNt1Zo+vTREDybR8/NsPsg0CqJFur8RWEXIaXGxbL0PYrupzMWN6cgh3Ww1o7SatogAhFhRurbDfYTPfAZuvfXGmfVVt4LDOiiLtASvKMmtphoxEnDWUBgBY7Fkiyw4JVX4gJaUk75bjGK6OGjX4zJttPSrOistrafTaVsn1GGtnbXlkjaOMswUqFAmNE0gxBSbtCZ5ChSXyuxpyiE0rcXbPfXXHYHIaFbqzQJGE4PWtu3IFokOVxDEY8sulSchNhFVwZoc54b4WgkxpQodOpC26dLP7r4b7rzzNl56BX7+5GlefPldTrzzLpvj0xh3gGJ4iGmdLBgVh0Rh3uB7jb3HkpeRiBJRNRjJaLzDug0m04of/OAcn73tIPmo24/evv3UNKEv9lblYHTDesVd7QTjB+iAM3fK8skbJjWECD954iXy/HbOnBUGo8SuS8HsRbebrPWsS4DYm7g6xSOlzDR1wMgUS81wMOG6Y5Z777uJr31twG23pd1yMwEc3it1HXE2Jy8MzhSoBmybhB+jR4MBMTN34ZV4N5W59Tid1JTDgsl0TJ7nWJNiSs66VJGlSWxUZ8Hl3f4K0bdsUmkfoM6/Zon4xGhVmT8SfeV05jq1uwTnio3azzulRha2K8sly7x7XLUjtAZEEnM178rRLGjM6eFdaD7SunyDwnQCo32tveVTmbjhMCeG0KaUXPg6Xwl0OqVBtUEkMa1NVtB5DIiCy+Yu4Z2dbcQog8EgdXjxqUD6PXfCnXcc4b2zR/j5M/DEz17jtTfPM62mGLOfqIMUttAurj//9jUuEp1yL8vx2/RQhRAwVnBZTqwzogp5foSf/exVfv/3HmTfANRk7ePXDfK+Nrdb5HXem2Wv5lKeY2ROd+1iVr34AukhEoG68WSZbWn76eAT71AH/8f/+QY//3Fg5/xhmjBiMHJ42WHid7A2a90SybKxeFCHCaPkVpUGNVdv26pLaRl9FDRBOXBgH5vnTiMiFMUAjYYiGzDemmLxlGVFU7/Nd377fv7xHxvyEtA0Hkuzg9CQKscXKG6l10BaLS5Nt/NxcnkJOZGU3dcNdDPnpy38hv44hznLcPfDs+v3XOj2XGnz4qob0Y8R9mTvhfaTrnPAbMOl+UB6H33A135y2B3mSbjQWS1tpxlE8HUq2tQIVAEahcd/DP/2Tx/DmJvQeJB6mjEoR+xsTRgOS3yzg81tUhgv4iJc6jzCD8OlzsP8wPNTA1q0J5K8M1G6RgBp7DkKmibgjKXIlLreJoQtjl1/gDs+m/Hf/7P9bG9NOHxwQIgNRmIbquiTpuZjNo2WOVfBMu/oegFlb9E1l06WpQen65tmqOuUO5JZeP80nDgxZXPTUwz2MRg5dqYN4+mE4XCjd+wuVtJpComRpGuX6kVBRKibCmMjeWGI0TMdVzQThSjs3yg5ffoNvvilT/Htbye3o5JYk85U7VFSvGqWNt6/991cSWLEJtUoEEk92JTLf/8+2uPd38ojpAa6fU/yjMzzURdYvFbLB1tezEdcr1pYse5j1fktkRR0xfHTdagQKhYViA+4fFcMTHIbk/WWFOpZNNSXzXZIPz55XJwj1UZor0mZw113wne+cx+TnRMM8pSjPdlpGA4HqUzdICeEZt004aKxXHBmUUR13VZSilSOdSUqJZubkdffOM07p+DA/kEy70yWmnW0bpIY5pboXFnuu1wXvZor3KrLd3fxRMVADMy6IKiCb4Q85QDzzFPKyVOeuskZDhWjoJpyq4xxoL7nSp0LyCjxytO+r0JYK9RtlRXnHNXEE0Kq0JJn4MN5jlwnPPzIYa6/CUJUMjtupxBLqo3ZIVWVSCPAgGTzL5pNtm6meSVL4/JRMrr6GAkX0Ptk+bO+66ZnFV0orjZT3pZcNjL/rHPjzsKcH7SWuLi9mKX/L7Tf7nXLK90tCNvz1dl5d68Wf4vpvd7FOu7ijbP/F19eCY/u3IfVx6IybpZiWIshnvaPqYEGkRqRBsthbr7B8ci3DvLKCwd47dUTlNlnaJrufidXfNCAvQSNjq4pzKRWOyZTrKD7EBHFmFTZyseUsiFmwHRac+rdMT97csr1N5RMdhKZTtrcYGPbUEI3bndND2bXI2N2/7uKij/PS4wxIoZZ7efgIc+SO2JzC376xOtU0yGD0QaTeoudapvBRkE+GDIZ1+nY2jvDGREnzqzHNT4+rLUpSRZDCApqGZY5WRYwbodJ/Tbf/e4D3HN3m45hq7abe53m9wWleu5BSJOKX8lhFgxCARRcUCh9QujcqR+uwHfjbil8MD/QBayjblvXLllaNGOePjMXRItrLul6wdJfQF8IdiLE95bQW5Z/a5vM0U/Kvoqso90zmSEu3MPd4zW24SWLx9oKYRMLHDsM//D3P4eJZ8nsDqMRTMebZJljWlfobqrxGr82LmQ5tmGbti+nqlLXNY33GOcw+QCRAT//+SucP5fkUwQQN3v6FlqWaQoNmTY0tOrOrVBz+oNlOaAZUGJbYou2wSjJalR49Ti89uoOPh6jKBxb4x1ULVleEqqMySSQ5Z12HtuZ2Pa+Y87mW+PjIbaJ6VYyfC0YseQZ1P403p/gnns2+PZvWrIcpvWEjTy2nbSzpLRIk5iPswmk6Hn5ksvNkCwc0wmWbr5tq7xc5sDjfA5fciN2n8/fWxaKHRN1vkMnbBf26ysQ/bVxLfm0Z2H/+qd/cVhl9c5K6nWCW0jRlUUtfRFzxWG3hbobV8JTKzMlDrqpTfQD1LXZSSelQRFEDFEdqdeDpSDDaw06wTLgwQfgkYfv4bHH30Z9apRgMse09oidpw+t8THQ9x7KsoBMN8trxBpBTfJ6oZFMLNZZDCVvvf0ez70AX/061A2UmQHjCDFgzRJ/ohWMZsmf0P/WC6CbOLqZbznNIwnG7mHc2YbnnnmTUO+jqkqaGLC5JyuVxo+ZTisyN+hp16TJeMZO8mm5Ihw0VysU72uMWJwZobHESEGInnH1LqP9U373D+7gwJE01Ea5w+CoayAOIPQVlfnLzpqcGw7J4hAC0n7eLZcdy4Lrg85p9nlX+iv9wrlztBeyW0VcWRUHXG3S7V7i6rX0t1l1vA/AbN/+ue46nkFwraC0JNZthpC1r+fWYq+M+9LP6c8HVxZSPwdtY6fde+wap4tGcJdL2ioCxuHVAjmGjFxycqMMHWgDf/JPjnH4cGQyPcXGhiHGBuNSmsxaNF4kPsR76L2fNa62mUFsanRR+4bGgw85zz77Pk3btSUCVizeL5M854JYSO5bszSH7b6TKyeUzg3TSu2WcWRtyoVC4dTJwIsvvI61hyAO8L4GqTGuoo4TmqbBuc7SMBjt4kM98o9cvSzVKwVdseuIgZgmwaap2Lc/8vAj9/C5B7otm3ZOL3C6n9QNIYPYuQiXrKVOJ9YMdABatIpOq9S4Boy/vG7xCwrF+USuwiw7ohN66XVys8WWyBHJiLjWFmlZsOLTYjxqmlSSz1Zpce3adK7K+TMzK5fYX3cxyv4aEi+kW1ixXrnE1tjtjhNXLwvXp2Xl9dZJSbAkUss8/rpKFC4KySsIauc3dRWhsKfIzJS+NldRNOVopxaUJVFzoARypBWfRChyeOSRL3LsWA5mQogVSsq9W+NisaxFtjdM0xh1zhFjJKhPAtLapFuqAgZr93H8+EmOvwximfGtnXO7v+JDtPkPVHPmLC8zf1iwRK/zB83A1hjeeQ9OvNMQsWSZQ0xG0yhNSK49Y6RN3eppBgvFYZcC/tcsOvdy33ozi8vC5m0MRR0RizEOFUMIacAYCQib3HiD43d+62DrxJ5iCFTVBDR5A7fP93va9Y4vy/erfx6d1d+1gqq4IibLj+Lj+4BtVn1kZiZed388UKM0KBVQkcqr9ap6zNbL4uUCwmtBsbjANh916WbyBdfy0r1ZaZWuiL2ymolwxVlJs2ejx2OAVunuKScr923XrRJiLQgZkAMWrQNEz8ZGqmf73d+x3Hn3dUym72LMFN9McLb7zg9zWazxcVGWJSJCaDwhNKkghgjOWlw+IJBz4t0dXnqlQSJUOyBYrOkpLjNSXleRza/0fO2ukCNtMrO61K+sTXZOTEBB1LF17iwHr9uXgp1ZKj3153/zK6K7Ax89aqdocGTmEASDqmFQWDSOsd0ZdJ0KusRJ2pO/yDF1WfN0PsLnH3J0okll2Iw6Zk2I+4y6Nqg3a1wr6SYrBiQSNLIxHHDuvfMUVshsheMsf/x7X+bIxjyKJDiyYmNmEG4cXl0WbJGxyG633SxuZ3dv/0ljlesTWDin5dujiy/MyvGzTPBJRcl3H0RQ7WKV7dDetV6mNK2iOK36/8PQO47AjECzSuH8kEdkFWtPdr2zGp9Mv9ILHZwVv3fF9V11Cu17s6dg5ktve2fmhsS5AFc6jIXf+4NP8ewLrxJiRVMbYuPQUGOypKQGnzqqJCKIaTuqzA/fR5Q+Y/jC+NDre5Hzp17kBHzx9/dCQe10ferpOKk+VogK0belAVHq4LG5JcQNfvSjN/juI7enXsEjA1FpJhOyUSINpstoSB60BtjYNbetcKt2mk9Cx+7SjqShcPDwIdA0UHyAV1+HU6cNNQfSpC01ieFWJDcctrVA/G6f8uz15WZyXC2IC+suMtbdMeccW1vnKUo4dMhw+swrfOPrd3D3HaA+1XOZXeXeRNK5Gy94CxYCOL1lF3vzMlsTyzHAXbhQEHD37ouHMkuLYxdjdfb7O0/L7vXsmq1cf1wsCcbldf96fIzvuaqeyuWxuXx9P/DHrHAgq2kV1PS5UpPlHhE4cAD+6B89TD09zb6BInGCSCDGSNM0qcenKiJ2kSm5xp5g+YkEqHxAbcH22PHUU3BgX2qlB0JWJqW2C/HP73LnGdt9/CW01O2ZO6U7TNpUNYJJjLfaJ1LOT356sk3TuKoeoysSJrq51Ti7np2rrO1mL027Di3xwCOSXHoigsaGQQk+nOWmm4Y89PABRhv0RkPnDo3rW7bGGh8JHUNCQJOpsH8ffOth+MxnDiNs41ydur5IKmumIrOQVFTpxbm7uPN8MS0PY42LgSEGcLakmnp+9PhJiDCd0vrKe4rwbN7r+s6wSxou/jsLyne+8+Sr77tVQqySX97khABb2/Dkz15kONh/0aWL1mjdOJqxILWkdXcTmLN62/vTCsmuyktoakbDnNCcYWf8Fn/4D7/AzZ8CTCquPNOz1qU81ljjI6J7Xlr3aFNDbKdVA7/323cxKMdY2cZYxRiDcxnO5oikZsmhq84y6xu422uxxsXD2gxjkoLy2munePttGMzKETfsppa1ceUV0+FqtiqQhGJA6AjuZraHEgikosTPPQtnTnuKfIMYdx1tjV8HXYX/2WJmD1OUuLCYmcPbt0tIS4yYWLO9c4I77zjIQw9DUcB4hy7djXlkpcfkW2ONNRbRfy567tU8y1KaNonw8eUH4ctf/AzEs4RmB68RjEGcRSX1gvQaUSNE0Ta+uDxJ98hua3xsOJPT1ELmhvi64LHHx6nrjKam7ruvu2uNkd0pJIt3ohsMCh2Lp19PAlJeCVimVfrCH//4JZw7TN2ARumxWtf4eOgewu469jzks5u3xPJtIUQKC9OdMxw+KPzu791LliehaFwzP9wC03SdPrPGGh+OJLhSz86UNm6BjQE4gd965CjXX5+hOsH7KY2vFwg481rUME/nuQJTYa5qpHZ0TR1BM6zdx9NPvUXtWztDuvSjeauERcpLWBCQS27V/j+RrhBzH4IQMKiBF1+CN9/YxNpD1FVcB533AKLSNlJNiNIy2frpFDPLMkdilhY1KZHVeJwZ89A37+Xzn4cmJKE5GCjapRmszGNdY401Zo7Old6UeceGzCXCfWZTGcabb4LvPPIF9u0z5JkSY00IDRjFuJQQHtEZ8a3zAHUQNQvP/RofFwZrCnyw1CHj7DnDU093U16XnJFCUosFN7owYv9Iq7AwMBZrz3lNhzAOfvH0u/g4oqotiFtMtFzj42M5aRx6uYVteocmoYgmAo9RixAxOubQAcO3Hj6Es5DbCEzouk7M0bdM11hjjZU5nstC0lrq8QSIyV2XPKhUU3jk2zlHjjgGIzBSodRYk5oBQGqUPcdaId1rGBWsOPK8JHiYVIqYAzz9zA4pNT9r/aCkuXDBU9phfl9+bWlmpCQC0waefuZ1qukhyvIQVa1kRZvnchG5Lpc6T/FicWnPT+bPYlvjKvXLFLTNJwxNqsShashchgEmO9uIiRzY5zh37gT/9J9+g+uPdvSeKcoYQ9kmNa/CnI389x2Xenxd6eP3UuPv5e9fyO815INB+7/HWgcCoxHUCn/yX93O//qvniezFusyfDNlPA0MhhttgY5Ies7TQcUoqMzyl7nY+XMvfuslxKUeH04s00lN7gZk2Yhp5XnhpZOMp3ewMRiAVhhRVJXQNBjNMC0FowkVmZ3PkbtmxFm+2yyx2yyQqjpb5lfHYVoX1CEHyRG7Lp20N+jlgy4H7NXi7ACNGbnNUA+hiWyMhuSZMB6f4StfuYNP35x60CXhGOkqR2qMK6qh/D2czNZY42OjnzX3YdA2Zp+eVyNw4w3wzW/eTdSzGJmgOmVjWBJDSJ61NUv8kiLFdlPXDutKGs04c97z4vOpabWRot3G4LKMrpGKorvCgrsJOQv5H/ku9lRU8B5+9vPTTKoMHwwqFpdnxLWL7uKwEKRXFgomtFWLUEvwyZVT1w1NM8FlAXQH53b41sNH+fSn2kdcFUFw5Ahmt9Y2I+ZcG1bjGmv82lhVRGH2f2dSppKCIjAawkNfNdxw1NHUp3FSYTVgFJrKszp1vcN6/rxYaIxYMUQUcZaglq1x4MlfnKCuaDMqFsvgxAghxl21cRfuTseLTP+4VIQ6WlJR6mR1CLA9hl8+/xYhlERJ3ZaNgRgvc+HpvweYVYfvWY1zSz7d1Mym8kdRa7LM0zRnQM5z//03cvtn2xZiAYiKISd5z1va6i7FtXtI18y5NdbYjV78f4Et3k2d8wfKkMg5x66Hh75xJ5ndxklNU28zKHN8Xbekm17KxpqEs6do6tR4GrrqfwbnNnjl+Dk2z6X3vI8QdOYqFwFjXFsJbn4/lu5MYuzMOoTPaP9zqMLJE/Deu1OilEk6p5l4gbq8xqVDWaZb4/KaclRR+ZMcOlzznd+6jsGozWdUyDCIZqhvy/jtKlrOQl7rWkCuca1jkYMT0YUlYZ4I0JUP7KqspGdno4SHH9rP3bcfo6rOYo2SGcGZlLsscd6daI29RQidcIxUvkIlkg/2c+a0cPyVROUwxrVVUhMpRyxtDXG7cKwVdycJut3FG9KNbzw891zA+5yoBS7P8LGiictdxNfYE7SaZooFK01oiApVs4m1FV7P4PJN7r73CHffC9aBZYI1imkNwhhszy0Q596gxS9a9eYaa1xb2PUY9Pn+fQHZ33TufTFsY4DDB+E3fuMenNSUmbCzvU2WZZhepZ11SGPvYUVn4aMQGrx6xORMJgXPPL1JiGCMQWwJSI9o1QnID7AcuyTJ2WTa71qgsHkenn7qRVy2Dx8Eay0hemL0WLcONl8U+jHAC2mV4pn6HXzYweUV1fQ9brhpwDe/fVMqiWs2gTFGQrp/AUzbAUtn+suSdagXeH+NNa5pzL0pbUfPlQ3C5kJSMUwwbCMC999rePDz92AIVJMpps1lXF1Dde212Qs452h8RSBgMwNGqUME3eDV4+9z+v3URWqGUM9eLjs+d5VataTWVMBi8FkgCGxtwmuvniez+4leZrUDowasXWtBFwOBWQ5jupIdc7Ut8aBCWWaI8WS5MCgzYtzmtlsPcsftUFcR0ZTIGmOyEEOcVb3qtbliReyx02jXWOMax8Kz0dUGSzF/s/Du4hMjCBaHhv+fvTd7suS4zjx/x90j7paZtQJVhY1YCIAgQIrgLonDRepFMz0ma5uXMZt5mbd5nb9jlj9DbTY2PZJamm4TRLWkbkkUKUoUCYAgCBAkQAC175l3iQh3P/PgHnFvLoUCqwBmVlZ8sMDNu1Zs7sfPOd/5ToMVOHkSvvE7JxF7iUEZV4r8V4xu67VIXAqS97hjqBGqukZVKYoCVyjqGwo35uaNwMXzMJ2TqfyBJtRoTNWPVmXbpd82GwoG0QFhnl0JC1uLLYJJrVw3a/jP/3nGI6e+QLVlMd4hjVCYghhrvNaoRlT1lttdH/wH/PaH+f39/v4H/7hDYokJJQBCA2YG0mT9P8dscYNhGXHiuHb5KmcePM7/8PtPQ4TxoMLJBNjAulTLYQdgS8CQVlKtZ9rawra8CoPsCCv06HHfYYdhFCxCgXRug+mGzcrwyV9zhMWYwhzDEqmbhhd+A37j8wWWGQRBQ4OxadEbtaauFwRVynFBHau73v22FO9Ot3saavAIthgllZymRuIcaxuMCMoG3/6LCwzG4AW2FpcpRgUihmorZxxXpvDd8nERXFmkvw0M1oZZZbUgCpw7O2W6qYimGVcDieNjTFdM2eMusKd9TatMURgUJZs3b7K+NqBwgd/5xldYH4OTpP+QDFymJO/w/LvX9kSf/+jRYzu25wZbv/GWQ0nBmUGOjgYmQ8+iuc7Xv/ksR45FRLZAI9ErhIi1lsFoCBYWdUVXdNfjjhAFULPNyEtuzpA+MODqFeX6DaiBcligREKIDBw70oh7zYatV69KCA0GTUlN4MolOHfhMrNqgbWpgafSIKKZAdRbx7tDCoWqiaCSEsS5YbRIA9IgOgR1bG2d57FPTPit307fNAihS/b36NFjX2ABgcV8Qdvx4cmnSj73xTNEOYuzitUylcphsDYVrNdVQ1mMbvPjPW6LnWHprEWtGFQMV69e5/33oa7AkNTeVANdieP2Esi9/gHACVEbwBOyNX3l5ZvUdcQYScwrAyohSyBZfLNnMqvHrwA1HhWfV0ElxFF6lAahhiAcWTvCdHqO3/raJ5lMwMfUGYDQ9uLs0aPHfiL1bxRG5YTo4Zu/u8bG8SnOVkn/0w2JNYTGpwblKji7W3Slx51gmbtVMUSRzOWwzOeB11+bkkohC5adpnbj1ldCIsYpNQucKYkRXnn5l1g3wDibIrDqUSpEAuAIvq/duRuoRKIEgglJuR+Ltp4jHiMNooZQz3nuUyf5whdSjc5okJiozpb7fQg9etzfyL7BaDQiappgFxWcPgNf+uopVG8SfIUThwahaRoK6xBsKk7vcRfYq2GDJOcCQ8Rhiwmvv/EOMUJkANgkDL9H0G1vSxbafwgCAQWuXIFz5yqEASEE6uAJIaD4VFmpFiPlLX+yx4eAxOw1tjIMKSwjMenDi0aMLqiqK/yr3/s060cSG9USWcx8X6bY457Hx0p4+7iRA2fz+QJjDUYMiwWsT9LbX//GQxw/4fHNNTRESjvEYnHOYUSoF3dPyLmfsdLob2VzKBbFoaQmyBcu3ODCBWgi+X0S6dHGDxFWdRBiSmIWmdzx+k+gqccENQSNKU5rU9eIEBokCqUtbvmTPT4cYqZ067b6VMFGl9Y+ZotnnznOC89nWXidITS4rIrTG8gePfYRyoqAdQRNLf8W9XVOPQBf+uqjjCZTYmhwMkTUYtquHH0Zx0eARFxEQn6Wet8mro0jqqFpCl579SpCy8HJOtatAE7GLuHxlunTNA0NHiiZLuDNN65hZQOkQEUwzlIUDhEhxoiq5DhujztFZAedOocHjIKJBUaV0XCTr3/jQQZFFrCynhAWlCPX1xD36LHfUBgMS0JsaMKC0cigMTVHtsBXvzrk+PEFEuepnjykvKPRiHOmN5AfBWRFJVwTX7WdV2sP1q3xxhsXMAp1A01sP99wa+NIEmFVoBwUOIYsIgyG8PLL7xDikKgmEXCInWSccyVWIDQ7f+3gQUQ+cNtvlGXJ1mzKcDTAWfD1nMJZNBisBB5+zPLiF6AoIMQ5Lrdo6dHjMOCgj8/bIs+o1lhKa3O0B8ZmggDHj8O3fucpjNnC13NGgyE3b95kPBlQ1bN93fXDgNSNqH0Wcx/cND9GAaQgxIJ33r7K1Wtp0SL5fd3hXeyOgZpkICOGiMWYEe+/B01TEmNJJNFiY5f0TMot29st9bhT1HXN0aNH2dzcBGA0tMy3rlIaReKUL3/5IdbLcwTkAAAgAElEQVTW2vxx+r/3sW3e2KNHj/3Grjq7VH9sSeS5pz815qEzQ4xZ4JsZ4/GIqqoYj4f7tsuHDl2rP5PIo5IIjxghaon3Q86+nxppgEW7rrdL7DaO0qauhIjDAK//ZE7dWKKabBjJritZm8wBISU1e+N4V4gxplUyhlA3lA6MWRDCDR55bMKLXywRkqhuYQqgQNuWYvfAwrpHj8OMliuwFA/QtG7Vdik75ZGH4TOfPYWx18EsMETqerGPe32IsCrRtxKiTkTHgEryIuqm5Cevz5PmtLZW64OaHa9AckfBqPDGGxeJahNvVW0qUG+1ANuCVmlA6j5mfpewznDz+g2OrB/F157ga9YnDiNX+dpvP8T6GghzYqhyOMDhbFpxel/1BrJHj31FGz1rWyBJLkRvm1otsBY+9wXLyQcjw4GnqqeUZUlV3QN5qXsFq3lHSAQd8Yn1jCOGMT9/6yIxgjVkB2O7Stgu4xhC6/0lDcHFFM69N0XEpdq7jrTTuq1FMpjiQSp6uuRdQBQRJWoAL5RmjK8bYpzyyOPw4hfT2Q1adQ09YwDrUvF/Kjzu0aPH/qAldQRSusllJZzl+6IOBzzyKLz4xVOouYGzkUExxG77bI9fGbnryU4PQSUmcRUTUi25GoQhly9tceVyu5wpcsuqJXY3O5aIspxk338XNjcVMQ7VVUsc8zeSILYhy5v1YdU7hlEIfsHRjSPcuDZjOBhj1BHDJl/9zU+wfgQEj5OCgS2IcXv7laIobv3jPXr0+FihBCINEZ9yWas9rXKpgJNRKiFQePFL65SDOa5QqqrC2kEvonLXSEI0RkFl1VELnfKYj6BSsljAW78AtG1xu10JYNeVsCbFyT3pR956C5oqeSaxrb9rk5uQV0ctIafPOd4d0mhyzhCDyXWMjkceeYAXv7hGqtQBQ1LCMQLOQdt+0/S1ND167CMiSdI6OxerdcdSAT43bIAoFWcegs/9xlMYafA+5JBcbxzvDq3XGJckUdGOQCqixAgaC9CSN994O61dZMlabbHnlRAMqobg4dzZBT4MiVokhQppEAKiBlHXtW2J23asx97Q22ypWed8a87G2pAQQGTK8889xMnjELiBENCYWcJC6oQiUFU1/cDq0WM/YYESsB1fcVdvyFxvPi4NpYOv/TfHELnBeBiwtiU1tsZ1VY5z91yx9/v3O9pzYPI1SO3B2q6cYh0hQlCDMuS9szdTE/g9TNfuILcCYrACTQ1vvnmJRTVgOJlgXCTGm+mf8WtIHABNCsNGB2JWdupW+353F/B25lf3+waJKysXYNsNexuykgLeGwaDIVSBGK5x6oE5X/+aoZlHJiMDeDCtVuCyy81w2Ouq9uixnxAchrX2ybK0SiPEAYghhIgpDD7UeAoe/wQ8/+mj/PiVC4hWlKMRVROJQTCmQKLgmwXWRQZDmyXm3JLrQfKM2qidUvJBs+TtakXvVqLvbn//A23HbaHEFfqpiCDRJ41qSV056hApRiOaKlCaMWffu8jmFhw7CioNwjI1tcvVSDtv8B6u3YDpLDAeHsNH23mOBo+owUSHUU0sIFwK+vUx872xzTDGWzyCswPqukZlxmx+li9/6QlOPQjDYntbxuUvpf969Oixz1h17IRMUsykgJax6gxVtUVpSwYWqhp+91tPYs11BmVFVd2gCQ0xaMqdiaUoBiCRqpova8k74knLsOzrzBPSeUiRTVIDDTQTdUxSdENQY7OUXMmFc+ms+R2GeZcOecznNkR495eR+XzOYDzYW/hX4tJR6pFxixu0DYHki3Srx3RRI9YuWFuLfPU3c32U2U01TugXIz16HFio7FrVNk3TveRrePY5eOKJUzTNJkl+xWCxqE+ynMY4jLjMRs9MH+mYPvlXV+aSHh328kRVQzKSAWofeevnJN5GvF3OUSxoktV562fv4iPEzkUVjErHBloagf6C/EpoV307HxG89xQuInKDz3/xcR44lceXALT9GneuSPLKse143aNHj1872lK32AkBkIfq9vlxPB7nvyJHNgCFb37zaYK/TumEYVFirSVGqGtPyK2s7K0Id3qrhfN9iltEL0VTZDTGiDEmOXzR8vOfv5u8emO2JeV2/YoxNndHhrffOU9RDJjNtnAmaxtqO0G3K5cVL6kPqbI7cS632MyuR1EDIWKNR+UyX//G0cR/q7LmbWx1Avc6z3tcjx49euwLYsp+sXOsaoxYkzRXfVN13uNnnodHHzlCDFX6jDicsRgs0SeGpTGmqxRoO/fQ/hu917gHVufXFgoac27UIKbg3PmrbE3Z5XPszjnm7eo1uHJpi7IY0jQpbt7+YGJKtm0+enx47Fzh7XyMlEaIcYszZwqeejb1HBuMAIUYHEvvcSd6w9ijx0FA632kbJfZNunGuOT1D5wlBhiNoCjha197HolzQl2jocE5R1G47nuqOyNGq1iNQN2f6M77SnepW0FECCo4N+Tm5oJLl1Z+IGPbLJvUV9IU+8t3oK4dxhRYa/E+h+yyfFzejZUkcL9q6bDnomEl57gt/7j6CcUYj5MZ3/jWZzEWnPMYkxYn1t3uHPcJ+R499hOaCXK6/cWVoFGK8ESNGBGMNliB6OFzL5acODGhLJXga0SVwoCIRXUnEzQthlsd7L3TLfcz8sJk2xwbEaNdv01VsKakqQ1nz3lCG3zrfmEHYmbCnju7CToiRBgMBtk4LkkjqxPxMtZusrDr/YpbedO7DSGwx2c9MW5RDip++2sFPiiFqxBq5rPFtlKm1W+aXa/06NHj14/VDvTQjsxVL6YlNbaknNJZpptTXAEnj8OjDx1hbeLQOCf4KvsfihWXWKu3c4nuc2wniKbzL5kjI5o7GXU9rQwqJTEWXLtW4f1e8+oKbOLj8N77NxAzYTFvaJqGsixRFYQCkSIRdAyI6G17sPXbclNNKxcldCuYpqlIo6Ah+Gv8y9/9IgYY2pBk+QgMit3J+O1RgN5z79FjvyFoKh3Y/QYIuDyOB+WIVj5lY33EoIiIgX/1r88w2zrHxrrFWU9VLygHqURuMa9RIyubpjnYkEgJ5vbzz233/y7nt4/79z/0hs1/mx37F1FViqJAMSyqwGB0lH/6wevYlap/Vd09o/oIiwquX68JYYBYhy0MahRCRNRmL2iFHammX9Fsw63XHyJJai+xpjzGKEXhEBMxpmHjaOCpp1utvxpLCtUYu6SE7+0jrtY89ejRY38Qs2Hcaxx6lkva7TWKQoMReOAB+OQnT1LVl6mra4yGlq2tLYbDIdYW7D3G+6jRKtpI5vYyOVJjB6OoBnwIiFhQR9NYqqpgPuXWYdUI+ACzOVy6sEX0BULRUYhVc2GqSroBZEeQtjeQt0cXSo3EGLBOcAXEWIMsePKpNZ59JinfNJUHHOoBczuj1zJZe/TosR9YNXe7TdhONrnb8alkVDeOwJe+9AghXKEsk4iASMxEnlQtoJhO4zpKTLqhO+fi+xS3OwPGQIwe731SzaGgqQ3zuXDp8vJzIrJ3zvHqddjcDGBGqCwNY3JLVxQZiL2f8qsgG0bVgDGC0iC5z1jdzLFFzee/+DjWpjPsZAAMMGZAqxG4k3TTnf++1qlHj32HZGKM7JI6DSTPcbX0rf1MG8+LGAMvfAaOn3CM15TZ/DobR9aYTqc0IamXJW9op0xlYGmA73OszIUme43pbLXzr+K9z+IKBSE6qtpw4eL2s7drJhWB8xeUoCXOrBGjEkLAKBjjWK6Ptl+IVruuxy2w2pVaYxIMJ6J4vK+IWnPixIjfeLHEx3SGB3YAvgByLUdoFf9vEUbp60x79Nh3SCsw3m5AGrMrY3eXjriD1E6eo8fgxc8/SQybxDDHCrmMozWKe4RVO++xx24sz5dqxIh2zp5KgbEjQig4e65KHTuyGtxu4+jg7V+8h7MjhJIYIepSecWsliC0Ln2PXwExKzSAmEiMnhArhsOCZ597jLURVNVluh5jbZpCw4rnyO7HXpS/R48DgB2ppW5MtmNXt7/XjdtEFrF4EPjyl04DcwalMJ1tMh6PkSygvctAdl3v+7l4O1bV3BJJVWNcKg3l82hNCVpw/vxlYljWou5WyBH4xS/extgBPn/QGIMxudP8Ht5Jr6/64SEiRPWItHVKARE4fmKDFz/vUt5hZIm5NaYYUnNxaSnIqwNsJ3Wc3kD26LGfUGhFxruxqO3/Yts3YvsmpJo8IsocA5w5A088dYbB0BK9xzmXGhqpyVG6nf/wHnPB/Yxb8F9UA0VRINYQEscUpCBGw8ULV/byHNNJVUAjnLswzyrlMyDlx4yNaPCdp5hWMLazzG0I4f5Gu1Jpw8+ANKg0Se4JEGuIqohYjFokCoXxHDvW8MmnYLq4gUHwPtWbIuA92UqmJL7Jvy3Lf3XHkx49evzasVPCbdtYbL09u3xjmyB5+q6PdffSC595FCNzhiND9DXRNwge0YhER5LyhN4gLrEkiibEndFNtVhbYMWg6gkhCaz4YLlxo0kiOOqycYyKRo/Ghhjg3AVownHUNczDJcZrQvCz3FMstayKEok6IOqI1NgzGcjWfW2ZVHeytWurW223+/5+Ip2HAomDbCBBzZxo5wQTCAaMc/goFG5MqB0DHeMX1/i9f3EKo3BseATDhPEIpAAsuAnpDwZAgWC6/6ST86Pn4vTosZ8Q6AbhKj9OII3dEcIAyctbkbzRDt+CoTnCYj5lMoHf/Kol+Gs48fhqypGNIUYqhAZRQWIq7TC6w87ew7gb24FEjEZEl0TRpQ5tUnGzOqCeK0JEpKEcBuq4QN0aW/OSS5dSxYZK/g0RQYyCgRub0IRJEoSzAW2bGRORVv5IYlq1aO7fKPHQXJy7hbQ1nzn8HCWi4rsLtKgbynLIfNZgrQMNPHTqCGfOwNC2N3mxOmJWBt2S/r08371F7NHjwEC4haVyQEE3hmX3Z9Oi11HYlF4ZDuELn3+Gpr7OYGhZzKYIAbPKVlfo54AVyI4Kim1EJQEsRgVDxOChnZuxRIZcvrL8qtF2CZNr5C5dhBjSrGykQKOgMT3vFBBW8457NvG9z5FF2ZMn24qFJ4QQGJUjfF1jjQI3eeaZh3jg5D7ta48ePQ4MvI8MykFaAlv4ra+dQGVGUaZ2dmjuyiOBrpEyLB2V3lDeFc6e3cIYcpnHquSPwvnzoJqUA6wtiLGlEN9O2LY3jLuT4gKxAC0ypVtxJoVCnHMQF9hiyqc/s86g6COjPXrc73C5uUDQQPDwxJNw4qQj+jnO5IW2miQrKTVprpGcf3Qf8Ms9bgdFOHvuUm5p3IkAJMOnChcvXEOjQdVgpCSG5fu3FNDu0UHFL0su1IAWoCVt9xJrCqp5xaAoCXHGyQeFp58B3/Rh6R497nckceycOBEohvDcC2eo65tYEUwsUupGaoxUXYpLsegq2afHHcBw8dINILGIO+MYo8E3cPXKFsKAGCySQ4JGXBYAuBV6r7GDKNrVHYHREok2vxXREKiqChHFOc+zn3qQI0fp6hp79Ohxf8N7MGIoXZI7++xvnGA8UjQ0mfQnCM1KWDXzEbrQao87gjpu3qho6vTUtLU2IRoaD9OtRc41WsCh0WBM6sKhty1ovN9rOXYW47blLnlhIanof1gUhDBnMlY+9+JJjMCwzKUbPXr0uG+R+jZuf+2JJ+CRR44h1LlczoD4ZCDRTAC0OR/Z484hzGbKbJb6GnfLjBggeKjriEhBDKZL/hpjkL1ErWXVEPQz+ypiV/S5mqtN0kVrawWh2WKypjzxJDQhsX1j43vvsUeP+xgi4Ew7azQoNWsb8MijG7jSY4g59Ko75t9VNnuPO4FiqCrDfAGN77pxgivhwkVYzBsEh4ghhNR70HtPCKFr1Al8bDp+H6Yf4se53S32/l2BkPbdOWG+uAmyxVe+8mkKB4X1+KZmUPYJ9R497mdoSI8++FxuUCHAV74yQNjCiMc3FTFGyrIkxAYfGoqBoQlhX/f9noc6xI45dw6QHZ7j5k1WVBc+YAWy0napxxLbRAjyqi52q7ukEF/VU4xZMBzUPPFEkusrUEpn+9PZo0cPWtHyrs8jMJnAo49toDLDOrBiISQeg0ggBLrm6T3uFEJoCram4BVMJDU49g1cuzrllkaxLaaUneUK0IdUW7TFGK0weyAp8S+5T842iJ3y4OmCJ55sv5FrSGPoT2WPA42PO/Jyv2OZb4x5JlEEz5Ej8PwLjyBsYSVgtMA3KZpmbPY0e+N4d1CHD45r15OMahdWReH6ta2VT64awLjHa90vfpy7e88hYolIPisx1SLJsnh3NHbADZ559gHWJhB9solE/RANjXv06HFosdJPQPIfiiI0DMbwqeegKGtQj0ZHDDa1vrNK0yyyRFqPO0UUQ9QB166RwqqaL4SxsLk5IzdKWtnijsddjch6tOjaeS1beiENSMCoydJyCzAzPv2Z46iAlaSpqE3fqLRHjx6ksKrIsgydRNQ78xCcPDlEqQjeQhwgIlgXiOpza8HeQN4x1ODshOvX5skmttRhAa7fnO31jR2PPT4Yq0IJrSCA716fzW9y4sSAxx9PtG3XCg+L0Dcs7dGjBzHVOQIrHBAYr8Enn3kYZzR5jTJKTXsNiARU+7nj7iAYKbh6fZMoWYhBgRjh+rWb+TPx9tseP9yXscM2ETjR7DnGVjae4Be88NmnGU9ALEun3LoUWu3R4wDjdmzyHh8RUpcHDAaLA2qsgedfGDIclkg0WCnx3qPaYJ3JPWJ73A2iWm5cnxIDODEQAtQBNrcaOk3z3G1jz8ceHwDtYv9xm1pq0kMcDhe88OmTiCap96iJvu0MINnrvOfnmA9awRpym8o9sdfwvvXp2Cl6b9A9CGVyq/251b286x9czbW73TspkDpSR1LnhYM2Rtpzs0yabH+MK8/bz8XucQmz43Fv7L6+e5z/nee+/dKeF3svdvwOke0PuqnuFbT7b0iNC1SThCeCoCjw+OMwGM4wpkRkgq8NLjrEgognRjlwd9+9hBg9s3mFD+AiiStycwazqkSlBGy3ctn5qPt8Bx7o1alE6jBnOBwSRagr5fjxk1y9fIORjTg758jRLR57JIVT1YNNjOwUdVW7Sx3j3kNrSNrO5y2W+ryRW0+vC7/AuQKDzWSE5WBvGijbPtJKmkBiSBO4KIglUiRClPo0uRjTyTELEGLAGrs0cE1MRCi5xaJEIukK1SxlutimLZ8ObTPv1Bqpd98+YXW/JBm+9sVcUNSd//QYiURM/qTGgBiLIeDxaGhwNomAJDHmXGieKQeqZJZqBCOIMd3vAIgodvW8xpzHaZVeVjVE8toiaopkpTZ6AdPJMa4aR5cPc7kvHe7hMaSWNP2ieS6wuUGdwwDrE3j6mSGz2U02p5ZheRxrSqb+PONJSaxa8ZYevzoUbMA64eJ5cOCJOBYeAgPSTdfeXbd67LE3FGuFQIPkWTPpJFqcCEYqHnvsGKNB9hrzt4IqBiEa9tIhusexagrNLh/A7Phs6VxeIydvpm4Cde0ZDoaULjcizZMymnR/rU22UQUabZ2IIv2ih1pWNIqaSIPHGYsrAJdNZ8iGtizu8DhXLeZBRGsKl8/SYzKT7XNrhLpZEKJnNBgRbfIkAxGH3e2ZC/let0SFxTw5hcamhZ4lG7pswJxLNHlp108BNEZkYLqpx5hEEEx+qyVqg8jOZXnuRnGIvMcVsmp3pZbB1eW64plnH+Cf/ullhuOjbM1SWjIK1KHB7efC7FAgeey+AdeGWxZz+jqljwDWWnzwOFciYqnrGmMllXRozQuf/hSDfP+adtGrAeSwqOO04a40ebWyg5pf3+kxSjeh5a4lQONr1AjOOIaFpSyGNF6Z1cKg1aDNk2sT4NJluHIZbm5B1cBgkFbY4zUYj2A4htEoTbhFWXaeZ8wyXEpAnOaoxJI8lXa89SjLvMcxeZm7XN9h+tH9Xt5s2682XGryW7fy1x3t+Q+hYVAUpOMxRL/8zXlQikJoQjJ41iRDN9+Ca1fg+k2o6nSenYWiTOd/4wgcPZpe97nktz2FUtDFBmbTKYOxxYrQhqclCqmrDTk60NYOQ7cgkZXjuoeN43a0YwjSdcxXL8Lzzw1xVsEoog0aCiwWiQd5cXbvQFVZLMDFvE6ZTkkyZz3uCsYYtFJwJhlK71OAUCuKMvLJp49h8mkWgRjD0i+/x1e+27E9J9RFQrOH13EHVoqeQanrOWU5IHndSojgCnBWiAqzBbzzDrzyyjV+8pP3uXRhRl0bjIxwrsQ5g28W1PUCtGI8cTz88DEef+I0p0+t88yzMB7DaJImcJUUsopUED2FcWlPhT0MZJ58JE/Iq2tJnWR3aL8zPrsnyNb47Dz/Xc5R2s8YnDHglaAG69LR1E3iizknhLwgOXcBfvzqTV7+4ducfX+LGNcYj9fZ2tpMi73oidrgrDJZcxw7OmFj3fLlrzzHE0/CyZMwn0MIysaR5HuWayVRpwgmZdmiS0Yh3yMxCsa6fNoDS++R3dfjUGD1Xkr3XIhw7DicOn2Ud9/fRMwgedmNoXAFsd7v++/eRitROp2Ca4MVnXHsCTd3heR9G1DBiaPxNRhPCHNOnhhx8sRynk2eo3TOhh4C49jZvD0mKskf2HaIOXeYEHGmzS0VxJjuxcUMfvkuvPWLmr/863+mWgyY144QBqg5CnZAjEJcNCym1xkOBgwHxyhMwWIeeOP1mjd+ehGRdxivRb74pSf54pfWOHUabAnlEApjuvlVVo1gS6Vv61e7HGSVPZbUvSbZdrPPpO2IZq9Kuv+3Bn7H+c8hutXnALObkfG6w5rUiKDxqadgXcOVq/A3f3uFN39+hZ++eYnpTFjbeIDR5DSLRc3FCzfZmIywzuJkAMHSNMLVq3DzOljnefW111lbq/ns5x7m679zgocfEebAwm+y5iIjyT6TBmI0iTGYoXntIZIXMLlIvvMkxdzrw2clNCw7XkwHb3PK99MvPMFbv/gxzh5PJyameulIr696dzBoFKZbNY4upLFcYfa4U6SG0caYTK4RRBqEgHULnvzkIwzLVWdJEQu2ncrMIbCOt8IuT7F9vkq0sBi3kZttpzF/8TK8+vKCf/j+L3jzrasMR6doQonXIVEGiFhUkjmL1vHgw0fQEPGNYbaINBUYdThnKIrAfD7lr/7qXf7u72/w9HNH+ebvfIrnnoeagrryHB0MsLQGUNmbod2+30Cbp7/V8f3a0Z7PPTSSd5Ys71HCPF5P31vM08vFEBYL+Mu/2OQ/vvR9ptMRxj5AUXyKo8dHRDHMqkiUhsnREbPZTWwscAwRHUIcAjZN7wqbWxewpeHvvnuWv/ybv+fTnznOv/n93+LJx9fxgOKBgJFiSZLK+6dh5bB2ha9bT3IHi/WehUH2MHTOpdD1C8+XfPvPA02sqUMFGHyTwwI97hipNaMym81wqCACVdXHqz8qWOsIIa3MnRic8QyKBc+/MOnW8mll3mBzE+kQGoy9UzLIwcO20Omq4Wg9xdUwZfcxR4ypl9q1K/Dyjyq+8/dv8rM3r+DDEcZrz9CEIQFHUPCJlYO4iHFCYeHctXMUpsCaMYVbp3ADTEyGtokQwxAxJZWf8NOfXuPs+X/gyWeO8tXfeobnnh4l7wSTpfyatImFuOJBimXZaPbgoTUR3TT5YcSs8oebmMq6BsOUV/zOd+D//cPv8t67C46dfJbhaB0fB9QN1FUkElAHYh3GWtY2zhB9oKnBe0F9wBhB1WAVTjx4iqvXL2JkzMax53nzjfP8X//HS3z5qy/wb//Nw3jnOL7mkjCJSdGU1nnshoeSX2zzcu1i5RAYxW6stMeyDNVLzj2qwOmH4OSDY86dnxO8ZTQcUTU1hW3zxz1+deSKDBUWixrXsqpDUETs7QdRjw+EiGCMxQeDxIixgjGewbDmsccAzbe6AiGmBbBAjBFjD0LO6qODykrEtEusxkyqaLFkQAZNIvjvvgff+dtN/v67r3L9mrK28TgTe4ytqRKjQ22JdYJIJOKJMRDwhOiZrB0lxkgMjjo0yaipRWKa7EdDoWoKbFgjerj+3gXOXbrA5nSD2c3T/OZnM1lEAbEIPu/3an2jo7twBwg7y2YUsz28vUJ8Yttnc05SoBIwA3j/PPyn/+/n/OAfLwAPcvr0w2zNLE20iDWJ3GTAUxPEJy8nClub8/SrUuKcxRQOVSGGQNMEFldrinKNohgxn82J4TRiTvDD78944+V/5n/7X1+kUFhbS/urClZCYqtaVsLc+ZDE5D/b0OPh4Ht/UG2vMYbhEE6cHHD+/AwNjsnwOItFndZ0B+u2vAchNE3AxZjm6GtXb2RCTn9m7xyKMYL3HomW4WjI5tZ1Jq7mqadOMpkkj7FtR2PLZc1YURSHYF2yvZ4O2HE7eaazG0wmY2azOePxBophOo8MRwYf4bU34A//ww1++vpbDAcnseOCeeMoJCZutXqiRKKazgs1WIgWFUez4tClOrksiZgXJQ2KKZIhCDpmMPwEAD/+kfLTl3/Kjf/uWf7b30tG2jqDFYNS42tPWU5W6ggHbDMyB2bYrBbq72RxeogN2Ei9mFMOJ6CWuomU5ZA6pBK5H7wGf/HSy/zklYtoPMXRtVPUcUjVgGmFnAJE4zHSINKk31Ywrm24G5AYUU31odaANQbJNXjaOIQJlhEE8DOYzW/yf/7v3+X3//sv8K3fLRgME/knMqdsbZ4Mk4HU1UMzWXjj8CwstxU7aSKNpXs94IwhAJ/97JO8/tNXMJUn+JrSlvRe411Ck9LT1tYWLfWLEJRVHb8ed4Yk/tuSIJSBs8Qw48yZ46murp1E99RBvLcH+JJF2GL1WDxIYDIZ04SG8XidG5szBqMNymFi4X33e/Bnf3mRn79TI+WDFJMN5rMFIQiiliZ4rIW2RAHArkySqg5vTNZF9KgEkKxvm8uUIqTJRh1QYmKRLAIOZcBf/Zefc/nimP/5fznN5hTW17JmJGoAACAASURBVAZYoBxYppszJpNxdlJ2CAccmFLgdgf2yJOKgo1MN68xWT8KRG5uzVlfP54Mo4F/+Cf4q7/9JW+8MWW4/iiFOcHFi1tE7zl+4ijVYvmLpg2RqwcaYndvt+Sl/JnM+hFtWb5tqcyql2eICk04xUt/9hrT6mn+xb8cs34UDAOUOYt6zqgs6BKP2/K8q6UP9yZaBvHyykXabj6daIJ4rKTw95nTgnM15UDxdYXI4UnL7CvUELymsKoATb1HUW2PXxkxRoxxKQsSAkVpacKCp555ANfOpdtKADgAE+pHjVWKfftaG/aKqfZztMZkfYNFnaTzfvQj+E8v/QNvvuto9CgbG0epUaaVx7khA1siRlBs6m5C3DaJiEIQEJU8abfM0oz8dzr1JjFStW1GnSafIAW/fHdK1Dn6B4H/8X96mEYBGaDBM1kfbzu0g6fK8kFjN0KmvAyHQwBCFCbrxwn5HvzBD+BP/+Q9zl6yzObHQcZoGSjWlOg9Pi7AlKBmeR93BspjNc3umgUYaDvR5HnFrBCb0unKJJr2OilEjnF9E/7iL37MvH6E3/+3Z1ibFDRhwbCcLL+8K8xidjze61i5d/cghKkYHn4UNtYtPkTm0/lKmUuPO0fqrds0Naalc1dV05dxfASI0af8iAghBJwRRkOT8o2sDl3dQZS491l2u4io3V/b81zD0YR5lUjnxsHrb8If/vE/8N77FeP1Y4wnw1SIO08V5YUbIgxoggEtULLGli6JCkhIIb7UHr3LtYk6JDrQArRAYpFCe11rsZg8S1OhwNGTj3Fjq+Rv/u5nfPvbU1ThynUIbZBl50Fum40Oiudy6/tIg8cWQxZVoA4lqlB7ePtteOmlV/nlOxVWT7E+fpTFrGBzMzAeTVhbHzKrb4CZpk3mYCq65UYsQQegAySWSHTZMAIohpBITN1W0bZzaweCYggy4cjJJ5guxvyX//o6f/3Xl5gvwNp1AqN87eNyHb/tetzb4wdYOZ6WfZvR6h0gqCYR8vEYTp/egDhDtcEQuaWOcI8PBdXEvamqGmeEzFY9uOy7ewcRI5o2hBjTRH3m9Ak21kCpkFbe6dB6j4LBIquhL4E23KoY6mBwA0fVwOWr8Md/9FMuXR4yHD1IFSK+meG1wdkRk9EaVofUlaJNkawpAJEovsvDIHUO63lEXPZsJOe4is6QmvxdaIlBIU3Uuci6iSPmixFHjnyCl/78NdbXv8Rv/3aq+asiDIo0XnbPQffCpGQQm8KSXguGzrGoUi3jH/zBP/He+8r66DSzuiFGGLpjAMxueMQ0DMsSZUaqL2w97gK0JMa0+FjWWvgVQ1gTpQHxOcxqUM2kJnVdWBssUQouXJ1ydONRvBde+rPXGI++wre+OWS+sIzHKWQuHakrhR13i0rcg+jY3NBJQGG2/QmC9zW2GOKBJ558iFdffRVnj3Jv3IMHHyLCYrFYLrWqRcOhWHntM0RANaQax6iE0PDMs0+m96hoiQtAzr1wiBjCrTe2V+46dcyIOMSmBcLWHL7955d44+c3EDnDfDpBmwmFjnCxxIYS8UpTVWhoGI2LzHb1qKScokogmEiQ5fwhGjGacjhGDSZajKaNdstuh2QPUvI+TquAHR5jczqkbk7wR3/4Pd59J5URxEykSuUdHGCv5VaTZLo2VaMMhwOCpmP6oz++yTvvNIRwDINDgscqDO2AoR1g1BFDEh9fraOLkjeEIJaQmaPd7b3z/KhL3dbbJUqucY1ZWDyKQgFViGwtLMpJbtyY8F//+i1+9KMkC7gcKxUwz4/+ozltBwHbPEdWTmb790qJh8JTT41wheAK8oKlx93BZM+xymsRgabpPcePAsYkUo6xaQWiIfLCcyYrdqacD7Bz5mi//Wvc048LS0WWbYsABLDUIQuKe/jZz+A7332NQXma6VbJfD6h1FOsmYcZ8QBUBbEKSFhgzJxyMAd7HexNsFtEM0/MVQxBhkQdgRYYtTn3mHKLSYghhVzTpogaJDpMHCBhhAnrECeUw/UUvjVHmU5LFtUGf/DvXiE04EqyAkmVw4JxudrX9jj3E3Fl2wFZXgOxQ6LC1hb85DX49ks/YH38SUKzwWIaWBs41oeG0Nwg1JuMhjAeDWgqhbgO4SgxHkXjBpEB0UC0C9RtEd11oruO2i2iaVARVEdo3EDjUTQcT9/TMapDooCamminBDul1hnHH1hnOvdcvykcOfos7/7S85cv/ZzQtLeUsjSOc7YZkkOx0NxZapOR77GiKEgRDzhzBo6sjzBoIjwdjhOwb0hhVaFpmuWZj1Hzqnq/B/i9DRVDzHRgaxuMXOPRRyFUTS5vkKXX0RXD0xL6DgW21dZtqw00qBHqADduwJ/+yQ+ZTUfEMMZHy4njY6ZbnuBBNXkpg8GA8WSEsZH54kYXqmtDqpDOOWrzo9nhDbYh1LhkrnYGpL3Xlx5l0zSIWMrhEFdscP06VPN1/sOfXCQqBIpsXm9hhA4Eci62O/fLsoBAEv+OEaYL+Hf/94/YOPYkl280YAYYY1FVVCMxNjR+QVXPaJoqe47tNsgh1RwlkAhSd1s06TxHIObr0+Z9U944teBoa1xVFMQzrTaJBobjEeVgAoxpwgZv/7LipZdS2dn2a+C6491f6b6PBqJkpbJ8MOJZfUoAi0PwWFI96Pq6Qan6xhEfCSIqQvCCCa0jE1Pu4G69F9G72/Ybd7fvBuyQ2oN6z7Ccc+bMlI012BgUxLAScsy96raRCg7A8d8VFEJNPo4IcUZsZpBZjDEJY4KFf///bHL5woM4+yiLWhiNHYt6QTEO1MzxskAGShMbFnVDVIvIEOIA4gATy7Rp6twgGnOpQES3beRt5+sRFU80HpWGaJLRLW3yNmOYUdVzJmunee+c8o//eJ1z51MAb66OBsMi1ABUi/bCxX2+hmlRYNocnELn5WrqrdkQiRbmAV76Nly8WlLHIcEKjfFoYag0sIgBKUrccIhYB0YwTrrFiSF540YjJoKJBmmvycq1MYDRuIOM0zaGzvusZbquOmRttMZ0OgdpEBfYXNzAjSYs6hP86X/8CRevps6aFSUNA6Ju4JvEjg35etzzUOhkCaUB03SaExpIC4xQYWkQ4Itf/gR1tYWzh0MAYb+QpMWViOJDm8nuhG77Uo67g+CDZCmtSAibPPLwAGPAEjEUy6hqS2poT/tqbuEehjVkUkEAEzHFanFnEkf+xdtw7mzNYrGBM0eS16eJwKGmRo1P24pxa0OC27d08tpM54e+cyV2m64+ElN6IUZKl42BFohscO265Xvfy4qqcYBicbYgKJSlJFfsICGu/tFKqxmEVGZ09jy88toVTHGE6UKhsNhBubKYIIVEu/PPtvOGeFL2MGYDKBhdvUYrbpzs8Nzb5+lNumurbeY3XQs1AZVIxBF0naBH+e53W9XbATBAJd9zkjzdg+vNf0isRFoUgxJQajBprmirC1KT78RaPXliROk42I3g7xGo5jx4bi7d4yNEDAFnLEYivp7z7NOfzAy9nTfvvV+6sReWkpAepCW/JOcxapq6vv+9N7lw/gohBKxt31fiATAwqrm/o1FElKgB5xzTWeC733uNmzdbO5jCgk0TEAOxbVR4UHDLedIQAvzoh/D++2eJIfUgbWrFGPdBX/y1oFWP2h5GMiiWiOU7f/cyly5Aamademwmg6FYdxiNg2z/s4sypQ6PApw6JQxHxQqDt8fdQnVXW+8edwuN5FZUFcqCJ54Y58nUdCLju3BYxnQevNoqXpFVZAKEPG6vXoHXX7tA7QVrhSgxdy+RA2EcB4NB6gTuayDSxAYxjsKtce1KzQ++31B0nCNNergHOSzeed2m27/LF+Gff/AG49EGVdUwGk2oa09THwTWZ9z2GLNhbNmuly7e5NWXb+YK1QLfJKk/RDHmkIQVu/toD7Wj/FKxEkI9dhSObIww0mSvu8fdoM3d9sbxI4ZoakHlw5TJuuPkA+DDXvavDWEfrptZc02jiCSvMdd426xp/+rLMy6eCwzKNYrCUtc1GPLEtv+rBOdsZxxdIcl7jJHCrSFs8N2/fx3RVBtYN57CCUjEtAd4ILGs7lTgxz++ztn3LzMZbyBi8A2MijGx4UAQ8mTbiXS5FtKhFBTlEb73vZ+wqDJ5c/9vmY8Re0SX2iiUTV6zD1AOUvNjZZEJZz3uFKukpv0fCYcMIjblsHTOmYeOdq1/dhrBwzmmI0EXmXCRQ6qthKYk7/GH//hLFvM1jB0k5qqvMcZkdu/+r/y9T4ZdiThncM5QNYEQCjRMeO+dLc6fT2FiaxOlXmNzYNY5iqJdaQmpEFFTS+BWMPzVH71N1AFVFRiUI27e3GR9/WgXAt8vJG5aqnnsTqamRWTSxC0py6P84meXeP/9XLVpITmMengIOR0HIRnHuOfNZVK2PSY1qCeeOAYs9vhcjztBH1b9qKGpgBQimDmfePxE8g+7sNv2PMrhM5FJv7Nt0roaJV3UcOECvPPOlLI4hfcm0fcBYwze+5zz2l/Exmdx64gPNZGQGy+X+DAixg1+8P0GI2QNXY+YA5brEd2jAD8Zx7Pn4Oz7mzg7oa48IhYjjhjI53//p4Rd7PV8MIqlrgeorvPKD893ofrDzUMxu592ZZ2KmIgY+ORTJPWiPu941+jDqh8DhKTIggasWXDq1CSl3fIoD2GncVxRuzgksCIo249Xgc1NOHsuMp+VDIcPUns6b1HEZBGK/T8PUQNlWaKqzGdVZ7StsxhGDIuTvPyjt7NaDsznc5axrn3b7b3/+Y7AkRrkovDO27BYjAihwBZD6iawsbHBdFrllnUHDanLStp/R7WA9fUzvPHmBap5EpNo15w2hxrvWShLr3FH3lFR2rroEFKNrqpgM4P19BkwMucgjKHDAmcRGk0dJIwxeNW7S53cZd5l39M2d3nwGsGJEJjy7LM2DeaRQARrd3pGBlhpcXUI4LXBSTpO5xIz0lg4ehz+8d+/jpEN5nNFrKHyFWIdTdNgrSWEsL85JE39OOeLKWIsg0FS3NGYJmGLwwfHdCtw9XJSJ5mM1unkywL73mtXEEKMOLG5vlTAmFQfJ/DKKxeYjE6xqJQYoSgt09kmRjawYonaFaruz/5rOorYFmpq2lQhoJTFOvPpTS5emLOokqTc8p45DOOobevVPl9xFUmEP1sa0Eg1XzAcH6FWGA7g4UeO8Pa7kdmiwjnHYDAghNDN7b1IwO3hnKOqKh58cH15Nx2EfM89D02rOSUwXhMGo5Qsh9ZV3yEF1WGF8XgQF++/Aowsa9wUsC6tZedzuH7FExmguG1GMNKGWPd58Eqb61K2a7C2Ki6CD47FAq5fT2SI1cZZ+20YW+xV7xYFfANXLzfMZ44Qbaq0lYg4Q+Hand9nA7NLID5D2i4Vqe9m0wy4dIkcMW5drnt88HT33/K4Y3f/pddlZSGQSGypXZsxcOzYEDGpPMraRCwLOfZszGFYOPx6ICIYY5YjIen19bhbiBo0eE6eGDEek3s4xg8oEj8ARuEjhMGhCFHjUs4TuHoZLl1eJFp+J/tGknxrIQdAGzJPwhFHpEyPAipKlEAEZovIhfOplBMKtsmX7TvM0jgazeIGKfS2NYXLl+ZUc9d1h1ENmCxc1E6k+4Zt/R9bRFQCsRWbxxJ1gK8dv3wnYASaUBM79ve9bgR0D0GQlVqhVmQDk1ISWZXJOXjo4WNAqsttjWOMy1KpHrdHq63aGUdVKMt7PF5/QJCYjoEHTq1RDttXY/IcD5cd3AOtPJ5Do6QOJXm7fg1ms/SpKCGHzQzb+irue75ElwounRZo9qiyuosxBt8o587fWJnCZQfZan9hVvZMc5pEgZs3YTEToo6wxYBEOmpQGlRDNo77fQ2SIDyQc2xtrq0hihJUQUp8KHn3vcudLWxriQ8FZPs1aPm7HfIaMrGlNatRwSceO0aITTfBdz93gOqIDzpUFWMMzrmlcWy7g/e4O1gsBuH0mWM50BOJwS9v1j0XcIflpk11G4LLrF1QAjHCzU2ACVECaqokDdd+R81KSGk/ERFaYfLUIFlzk+NoGtRUqZ2kEa5e2UosZAWN5uAsejqvI02p2srGCVy9DlFLjIwwpiCgxFinFmtZEWjf0YWyW0SQgJrUF1JVQB1GBly7ugWAs+5A1Gd+NNhrDOSwfn7WrsMEASJWAgY4dSppCa2GU1vDeFAUqA46VLULS7fKZr3n+JEgM8is4fSp4/nWbUAisjPmfwDmoY8H7WScagW9NgRgPgMrY1Q8yGqx8qo81kEwkMl7MtGCliueYxLMFpPCVps3F5jOYTTJwzlA3mNLvmgfI3Dj+gy0JARLiIlFLSZ5HsbIAUitmMT2RpYycl1XFZ+MpIBiMDJgsUh1jdJJM+3bjn9EuN29vwyRL481NVcXYOMIjCdDRATvfecF9Ybxw2Ob56ikMV0URc9m+ggQY8RaywMPjjBElCYlw43Zfe8f4tOdBmNEJCACixkE71IISJqcC8tac3kZse8npBPIbkO+K0L8UoM0eF9hjDBbVEkvNpBaOUGbhDwQ2Gssb81mIANiSNfHGIO1KaQdY+sxHwDojtxh19g6Zu82XZemDtR12utDmVLbSdprX1rRV43RI0SEwKCAY8eO4JwjxtiFV2OM3bzU4/bYRcixLq4wwnrcEcSjOsXZio11SNmflWXe6uqtG8xtF4PDhdSeyyAoYlMphG+yQQTQtn4tZqbqARBF0BziVVnW1tF27Uh/e+9RMTRNBZIvqUii38tBCO1lj3Elb9UuO+q6xtqiC2cbY7rm3E2oCfvc1aJt+9aeRaN0+TfJ10FEOnGAGKGq8ocPxUJzxz20LROT1XKiLom5ql2uVVWxBo5sWMqyQUPoQs1eA4G0GFre461AcPo7QuYB3N9QzcbRNbiIYq0wGieFBTEFwl0oldzl/Gbu8vrcrk7utt6xufMDEGqkuM6pM0NGw/b+tSBKbCqMG+z8AqpZBgryRHAQJtg7Rwj5Gkhaz0aEGDOpwASQESoWkQJBEOuzGooFkeyF7ZeRtCAloi55KOIht9ACiyIYK5A1LKPJeyoe1EHc/0VO0IgVyR1PXPIe8j3lI4RM+w8x4mNArMHkCcEWBVHjvrlhHaty1yPpb03HNRoMMMZQ1zWTCUDEtLWB97QHucJ6lrRYWBa2FMlfbg9T0xMrI1TTksIYeOqJMa//9GcU9gGaRhmuOaxvklawGyNaICqk9IGg4ogSU0ssFO1aj92fcEXBotriyDGXTYGQBZQPhkrJPQvxFEXN2kS7zg12r4lmR0nWYVmvpZBPauHUplg1G8eiAFeQV6rlDgJFzN3iD8DCQB0RS8sC1C6aYlDc/8/em/3act13fp/fWquq9nDmO4+cdDmT4iBRlElZasl2t9uSOm4PHTtIkLf+C7ofEgQNNPIQoAMECBDkLUAjQD+k46Qdd+SO7bbaszzImqzRFCWSEiny8vLee4a9d1WtIQ9rVe3a+wyX4qV8xi+w79l3z7Vq1W/+fX+pQlBh8qgZlYbQkADst+NLzCN6iLlEaI29QJM6cfE3JwXqXMClENzBSKtE+dP+/NAMblZtq0fzW/tFFhlikCMUVu2ElGUqKqT7OIHQUgROH1fAyqpC2MKYOAXIBR9belrOuZjKiJWYKirKg3DdHRjE4jWTBVSzsXr9fL+v7SMBrYXVtRUaMpxmUzfVm8cBydAHomccAvT6oFQy7bsE1/P5pX1FN8fYFIFExSheIz5DiYneyyCLylHFityDYuE0VdHzfW0hwOJgCKFGG9BGCEHwLiCSHTAGlbnCrGBiZCFFtHxwOFezuDgEOq0rB+Xn7yPOntWE4DBaMFrjrUNLbK3aVpRzEPqKDxziGvX7fZSkYu/hUNKwzJPFeq9QIaDFcWptGEOFnedkvrG5+9wRWvJGWTRZRCMFWqA/AOtGqcm7qwwbj9Fv6+/aFwSdKiZjDl5CMx0ih2AijZmrWV4axvwEnhBc41zuK6KHkcyxROHXKg4PS8sDfChRApnSKedoyHTeIR3f74OIAts3XlGzX0KO8hqNEJzFuzFLSwuxKKphmDqx7jl1GpRuCpdmSQACc7n0BuKn+ahjHFKN6R2PVrAw6EXPEWBxCPogCKfDDPEELGtrnZ6kZhPuNYj1yOxH344cCsRKCUHiZhsCoYx5lKASSTsp/3FAvOqu4hYHRM+xyYmqkOFrjwTPqVPL6SQfTIMyeo5qxoNcXQElJc5XOFcjXqElRzAEr3Yncfq7QtPKMyOHVDRYfPQcRYVIWkDF2qlFvAdn28a/Y4+FAfR7GcHXSHBtCFqZbjfCdpq6E0BDtyASGA77qGZy9GBIJ4x0gveG2ER+6hQpFzKtwNspx9ip3exq0yOAlK/DoUJUgqsr0O+HpGxUZxxRbOBWbV/bfqPxnGxLCCBBpdCewltHZuDChdVYoIo9GM3zwLTcP7TtJbHcKzJ0Li9Dr2eBMbaetMU63kXquP0OqwYa9qRmHzQVzAqaQhLv0GIxuubcuT5KmIYLj7nsEuJ8y7WVAcGVeG/JVOx5nG/Vi555mKlq3veowQFACA4tjoVhD0ViJez3QNSJNXF38JgscGo1VfazPffTfe1RhRDQEmKhSroeV9fg1Kk+imnR11SnHIBw3jxS03mMTkmr5AVHr6+5eF6jU3hKNcbPAdGRrbJIwrDJpC4twOpqTp6PCX6MhICIxifq330np276TOeujViUY1BBEXyN1jVF33H2XAzja9IM1RNvCKPg7NmVaJwGR5ZlOBeJK2ZHkh2QzXrAIERO6F7PxJwjQJYnK/hkzd47JJAZy8JCt8qskwzplJrPXMLN44d87QXwwSd7P+brvI1KcGEBVtZyREqU1Kgw9Q4O1J7rNv43lZNMWza0Kun3PCsr3fKdpBwPhFz2tMMmQ2LuSZ5jUcDqqqLXrxFqFJLGi8XwqzEHI7zd8PHOVlHG+z6UiB5R9OoYJg6NUvcHiqFo3yCwvNRHiYtGqtY4FzAq63jYTRg6GhMxvQHi5aCZqH+3kFg/IFgyAyqEOOn88kWoqnEspkhx6p1uP2ns9d3v5nbH40/J6d1udwMJnksXz6AVOAtCHY+p9jv0YB1NK1eJigUS6b6to1gbj+GDT94PYZ1ez+NshRaDqyvyXGGt3f+cF7Tciq6qwUGmMoLzaAKZCZhszJkzfVZW4+ttZAEgWMfdtAe/nzCmKZVOlGphGuZ/8oNXsfUNnJ9QFBllWaKCoLUwmYz382cDneyCl1TWFSESQ8TebdLvOS5eWGBlDZA4N9Q7dyxyjnvKLxXHkp0/t0ymgVBTTibkec7GxsYsReg2Dz3xt/6E5e9+v/9O0EoYj7e4dBmUSEBLbIfq9RWH3n3ZT4hn0NcoAd2mGacbMMzUbqTClSN1QcfwaOh4Xyqtw8IQLl0y5MWE0egtchMpyp1zOB8wJmsrLPcbdR0p//K8h0KD83g/wbnbOHeDx5+4gk4mtlF5JHI4AAQ/29DstVQ6rYB77wcvtxgMFNVkhBZFXdeYTGNM8sAOAIKaGqsSfCyoxDJcMIzGb/HAg2fj3kpeT6y2Pd5QAbSG4UDh3RhjVOxrRaNE44MQBLz4lGvcofjpmEMk0C8MmQIlzcUgsLQ44KBcHIcTnqXlfiekGpvD2wkVu9kdTUj1SNglihgxjQpSpbsCXLoEFy/1qaq3yTKTrF2Hc1UnJ7K/Gkab6MUqlaMkw7tEsyYVsE6Wb/LU0yZSsoVY+CJORdfsIIX1wtz9EL2ve+6B02cKtJQoHbC2IssMztUovf+/30sMAovodKMNdxFKsrxC9AYffOpMeo6G/eCIXD93AYk5x1OrYF1JkUXDTkQibeDM/twp73/cEY2FhYUBWndnoQisrC7s7287AlhbSQnHNN0hcjupVjhBl2L7aF7NEuJMRxLBhLMpMtGDJ566QpaPCL5CgqLIFD7YNDlg/9cj1qR4lBiqiaOeWPLMkJkK5Db33L/IqbPxtTGUY0AnWkDlDlbFZLucvrU5ROCpp+7H+i16PUNtS4bDPuPJRlRA+/n721Ya1em380DMAwUqtsZvcf8Dp7l8Kb6sDcWfsLwAsRBweTka5krJHAH5/IunCrKl7TzG66gCBFextDhEq7i9CNQQYG1l6WBd3IcMQmB1dYASkFDTiWvFf7vX/B5z2w47lBiC17FFI+pIXDrcx59Y48y5nEk5oq5rslyQUOEd+39hio8elFIYlVNXvvUca7cO3OIjH71GAIxAphRVSTIuoxA/GFBzdlfMeSuJtTrPPnuO1ZUhk/EmmQbvSrQKyEH4/UERUmg+DmqOCluUR4vF1rd47rmHY5hYfCvUgwdE7/8e2mcIMOhDvzCQ+hwJEmnkWjT5xiakMEvZd2yRrv/FpUGbhqAR1Csri/v4y44CplWMhDQCaM9Q2xE0RJKHHBoSbgU6i21CSsHpc/DII1fQKlDXdRTI0gk/77Nwszb+Fq0zhIzc9PDWUdtNzpzr8dSzy3EafUJqF4uVEAdiHmVn/QJJa0RI+ufCJXjyg48wnmzR6+VsbN6m3y/QZn9LpqfsLd3CC4fCIsqhjePq1TM8/sRCCnbZyBN7QMiVDgIUYAwsLS1gbdXmbZ1ztInyPd99gpWlRUyihkQTK52WVxbZ/4v7cGNlKf7dVvl6HKyyEMNcAijVFOV4mob65sJ97vn7OHPmVBrKOmE6xHX/Wwki52jA2YBSGVmWU9c1/b7ihReeZqEPmapQxDaVPANCEj4H9drpKEitovf43IcMF86faef8+VDFsOq+Q/ABfGhCgnFdtQhaBV548WmWVqB2W201uIsDJvbdsDooCMDa6jLBukQRqHA2TKuYAVri8hN0kRnF0tKwyTkalCiUwHDINLTSnfnVrRaZmQcWpreZ1x9ivIfjkBBDUoqKfi/1xUmiRUs70IdZ/Thl2Z8WRB24ascfFwK2O+/XEWPJtQ3ytAAAIABJREFUadhqZJuBB6/BhYuGIl/Hu63YeCsZhOZmWuaciLDHLa3gTnuy+3j7mWbPz8+KPg6hqmOuRmlLCLdYXYWPvtCLg8FTKmI8jq0Pvk4HfyAs7y5nJoABaVnwUXiqMdx7Hzzy0FnK6m1Wl3tMtkY4F5AgbQVo97bbN/nEvzO97TAXsCszdry+mvVvZnsSw6rxwxAcRm2SmU2e+1BDNjhBSDM1A9OlP+zX0F2ge+jDBYNnjNGJVzUEMpWmzeAhTGXTFEfABd+2v7bLi13eCDhMVtOPfPaYgEFQVBPL1csGpCTLDFUZk7haQjuCaDyqyUwvfpQ4oMYrm35MlvgPa+QuLOhwF/MU7xppJA6kZRQ/e6GHOCHalpaiKHC2wntHpgMh1CwuZgyH4H1AJI80XlrHfE82/ZjOjOmoJLvRrEN+cedFSsF1BZbKMeJxKCRNoP8nv7rAa699m/X1AVVVIGQYBeNRYGExZzIpqeqSpeUBSju2xpuAR5pG9ZaQWhNE4YMB8ZGBp5mviE7FQZL+371oIgMOVG04NKC4tbHJwnAZ8UJP1WxuvMKl844XX7jE6hIYLIJDo8gW++BBFQBDDgL7eNs+1Az+I5uJO2piYW2h4Wd+RvjO3ypur79NkS0g1qC1JjQjrNJ7gsRYuVIqUebHKzyISmMLoDH0JI348m1RjUrJ9s66tALY05AURMWoGJdb9HtL9HXB5u2aojdA+3WKYp1Pf+ZhVpfjMWQaFCXCOnlvkM7vCQB6OSwvCyafYJ0FB728TzmeoHTKNSY6xJbXWCwQEOSuSDnu9Na77iXf6/0d+R3hmKY60uNBM3uNpvUQj0iJ89c5c/qh+A4hzqfLM+j3ITekUEbTsxbj/iG4+MMaK7z9tekHBIWX+R93GNGpmGvRZZaIE+ybXKKWtLA4ciNpkHc6GY1AnvZ2xI8hKsUZPoqj4DnOYyaFpVB4CqPQwGAAn/3sM2xsvMbSkqGcbFHXkPdjEY8pFDpTlFXF5taE4DX94SpxOkYOGJrRV9IWxHiit54nD7TjGYoFqTq3aa5zWiWpKYo+3nt8KJmMr7OwMGFpdcI//Pm1xJQT0C3f5/yxHpS934lGALOMP47FfvzfmdPw93/uCSajN1gYCL0eBG9RSqG1Rqss/Y0GhrWObZu0oXwTm9azQ+PWUXzT13WLP1QarKsSRZyiMH3Wlg033r6BVp6i8IxGr/PwQ6u88FMxLKyp00hsBVjaQqgj0w51lxDI8oBIyWzLhk+RQZ9GgEV53lTO+0Syf7ixk+zeoRag9TC7MtiizITF5fjfVssZYxgOoT/IGd8qO42jIV73IaTBrnO8h36+1f2oYOcjasqim/tKUtGACL1e9Krv1jo63EiGQdt/1n08Tu1wTrO0AI88Ivz0i0/y9W/dQNSArAhs1u9QO4Nogx72UGTUE4V3gqtycHkUrGI7xTwOpI5eZBgmsjQPUqPExuek8RQj4pBX0wnlRtWXZ4bR+DZatlhZrBkUE37tnzwLqrnsNJCUb/thzXHut+eothMxtYgWsuBxtsSYgsEAnvswvPTdB/mLP/8eWX6R0mdotRTzVM4hQaO17sytjDx5Sjw+UQS2Rkbn+FXz/+bHtIZDXGdpFaJJ1d2CQpGJ4cZbJQuDjNWlwPrNl7hy1fDxnzlL0W8+ToACyNKt8X52Pfhjh6JI7UUdOXY85NK83O7suzbaNJfSSkYCeHKjWTsVH1LdxtA8h6XlHoGKQI1IIARSD1pM3O8FdeTKxuZzJ9Iqx2bdukNiB4Ne+9KdNuJ+Tz34yaOx0JKwnKPLi7NDHXU1RgSKDH75V89z/rRC6+uIuo4pKpwusaHGhopgoOj1MabH1sijWic+eo4qTTVXwaN2chuayIY0BTONdzP/2siCO8gVbnKT1SUP4U0+/ZlnuXovjDZJdS0xhbDdS+l6TfuL0Bgn2+CBGqPjsAElcRrPL/6j81y9ahhPXgVTxz4VI3gl1Hia6aPzezquuUUFjw5pAos3KJ/P5XSnnqWksHTTuxi9GGlDYibAaP02Z9cK6up1hsPbfPqzT/Pgg1CWdI6rAPrp70lItUEjYobDATA9Z2Fbm85OsuigRD5+0phXmFP0+prlpWQIN02iAAicOb0ciaFxaGmUgW6HZk5DJc2XxJs6AELh/cHeAq5Zj+l9IYRmBtiQrvzoCpOjrxgbBDxhNsLQThyPCmypX1BNPMuLcGoFPvUz17hyGarqdXr9HJMtok1BVTu2trZwvophIlWBagwwi0oFPuKb3CKgNglmnWA2CbpMjCsGH/r4MAS/CH5ICAMCyfsTC1KiZEI1ucWpZU0mb/PiC/fx/PNRiSwsRPaRme0Ph8xT8diqRIljY+OtWD2sYnj1H//ih7l00aB0TVAxxKaMoEzAhoral1jK5IW7VIRGGj+mUEEjIQc/AL8AvgehAF9AyKdjylJ4W0mFok6yJpHRY8kUnFtbYOPWK7j6dX7u7z/C8x+NacvBICpjQc16/LGV76T6kq5yNMzLsb09x6O2eDvJcOkow26YYZp+WVruoSKxEKrxghrhffbcKtrYSAxAYmxvPaVuLgG2LejhD1jPYWfvb7oeTajZISowGO4cVm3W9qgryPmja/+fQpYRMe8hlGgBW8FHn4PPfvoZLp3P2Lh9m/HmBLzQKwpUCFg3IVChVBMirZMnGDoTHKLB4lUFMol5xeYCCZKq8zTbKmJniqMqRuuvk+t1nnryAv/4F8+RmehIubKa9jRO35D+NuHE+XzHfmG+YnUKkxd4W7KyOMDW6+Dj8T35GHzmF55jcanG+ptsjd+idrfRukZpR8Cn/GBaS5r1jGxIvs0Bm1S1avBkNLnhQGJNajzKGa8yhsVFSpTfhPoGtnyDn/nUE3zqUxcQAU1JYCN5naqxteY23VEx0N87GhEzGM56jSE0zf7HcY3mPcSukuxe/57z59dimB8w3bBg9BwFrUvq0EuPq8h4EgKeaS9XSjXOVF4eXTSVd52cY7NkHUXZ65lUkLMdR10xTrFLI3kan+ScRZRloZdR28jm4T18+MOwMXoW9/vXefUNhxuXLC4skxWCtTFPFvNbsW0oEijPfm1oCsba4phpYYpqZxs2xVIpN9YWlwkiNfdcWuKeK/Arv3yBXEfPCh8ZZLwNsX+zqcSdETZmLse6H4i/Jx6hilGM5lQERWzr8GxsbLC8WiC+JoQtdB4jHs99WPOjmw/ylW/c4LsvvYmzBs1pAgX4DFE98LHaL35sk8eNlY6xid/OCCJPU/iRpXc1v3FaJQiggkWkRjFiYbjJBz/0KJ/5hTMMFqAqN8iLwOZok8VBb5eim+65OA4yaWeEWFhMr8e0AKojq45FwdKuqb07Ga+eSxfOEUIcGm1gamGoEMNHWpcQ6laQiEyrVhGXFrib3IwffPShgJBysXHSfVy7eOwzPbbHIvk9C5nJ+s1twrRPvINMK+qqjJRg5FR17Dz4ez+tyYrz/H+/e5uXv/sKoazIdC/VeeSgTae6TuG6yik1NUtQiJ+1ClUybCKHZKM0o6KdEu97NOs8/vhFfv3X8tg750FCRQiWPO9PtbGQilBqmirXqRJi3xRk6PzbtKZMt2E67hqWV88wGW3RGyziLBAcWjRG4Bd+XrO8epZq62XefnOMUjm2XsBZhdKKgJl+g8qBKrZ8SJ1aP1w61xrxhpDaaCSoJE2ac+aSdw+NklWyQabf4bmP3M8/+sXT9PpQTgLDXo4PExYHy7TFNzBXgLNTHvk4Iq7ydGpZoxB3KRY7SjUiqWtilyd3ebxbTW1ZXRsQUifUtkz2vfeCZkxwffK+YTwqKVVNr59jvcU1LBoxlkVokvVpHtN8NeuPi33d3rH6KP2OQPf44p/IMuG9w6jY4+WcpdfLGY9vR+o42a4Y349ZkYcHc7GEMPtclg0BS5Y3Qs7TL+I7nIefeg4GxTJ//EdrvPr9G5TlGFFDnNOEkOODBsnwOuCDw0tUXkG5uKGdifLZx8kOSjIUGklpgSLP2Nx6B6Mt/aFiNL7BpNzg4Yfu48WP3sunPhbH/mTJ9hMU6Hz2ohMPTIgeU6qWPDB9qp0KPGDa3wWIib0QwdPrx4ZUrRsjN/YOBuDjH4WrZ5/n937n63z1y2+jvSLPVhiNISuSGpLYfG8BF2qUqkFXLYlI8Dl4TXA9hICRAq2j8eK8IjiHKMiyaPMosWjZ5L/+L5/jnquxrcwHYnsUGVo03rnpaCqZHmZoFWNq5TnGMEZRWVhaAq0FV1kCHhGDc+6ODHJ3G+Had/MkzDf9h5nHtVJUVU1RFFjrCdhIlKAC1o25ejXHW8DMK0eBIoelRc3mTdeGEDV66jnObMD5kthDboV0rahtFlXcVW1+NpXuhxAQFb1JfVI0N0XYQU+0V47prK9vIxRaKajgQx+ER69d5v/5TfjjP/oWrhyQ5+eZlBMGw7M4ArUXagREEZQBJQgeLQElGqwQvCa4GBIXNKI85eYmCwOFSMV49CZFf8TTz1ziYz99miceTU3yMPfj55RfG0pshHJXAb2fi/he0XgJnbYamEZ8drGuBbCTdUxvkYfuF87/54/xJ5dHfP7z3+ZHr79M3r9IVQ9iLlEbgvFoFTk7g4rphdpuYkShJCA6KkZCWqG0J7zbYnFR0x9q3r7+Gu/c/hEf/egH+ZVfeopzy7AynB7GlJC+6Rvu/Fgaxdjcjm84dR4isZJ+Fh053cnTHydEpq5ACN0IRvQcFwYF/SIabMIOnmPegzPnlvjRDy14G0vlJYZSmqRukNDRHbGJ9wBJhp844rSAhCZnooQs2/Utxws7KcZtr0kXbtsf6BA8g55hMg4sD4Vf/7XLfOzFy3zuc3/L17/5Q/Jiha3xCBt6eApE91Fa473CVh7vakRZCq3IswUEDbXBWtKgaYumphq/g8quc8/VjI9/6hle/Fgc1TYel61HFeG3C+R5xo3ukR727R9g2Fsi+MhXurYIP/upAQ/c/zR/+Rc3+Oo3fsh4klPajIk11MEAGYYCyAlB6BcaUSA+I3hD8IJzFcHXeBxltcHKqmEyfpO3rv+ABx9a4zP/2Sd57IlolAw1CCUhmDgRBelGztMdaAVbi27R13GGR0ShdJRJIoHEw5eiV/vu2+0rvI9GbWiYtLCxFsJXrJ1aYtCHJqg1oxyFGHU5d3aZb6rrsQlYslh0ApFBoZv4biy6trn66CvI+bBDHAnjUDr2iZ6A2Zqc+e2w57XpqCcb9PoL4A3jTceVK4Z/+k+v8e3vXOPzf/AS3/jWG1R1QVn38DJA1BCRgqA0wSsyAkbVSNjE1pu4Mnr3RitM5lB6xCOPnOOZD3+Aex+ApZVYEKTVFkv9RIYm3cjILsdBRrwO8tnn93H7x2XfiSGka4gwmx/tPg74SUDlgjEwGsU9/dDDcPnqKR75zgq/83tfYH2kuLUOo5HB+QVwfYIroudZjUE8KqgY2g4KozVZAZn2qMURlX2baw8s8eIn/gFPPKnJ+zFM2wcUG9S+IrgcY4ZROaboWJDuT22iWM2xztOCHV+IxNSANrJDEc4hj+69Z8Swu6jIIx6CQ5SPKRk8zk84e+4Uxkz32PZAoIfz51cQ9SaurBHpMWsdh50FXJqt5o+BBReCtGZsCC5Rbp0oR2B7N09HIDfCrV0+gdmwvCLrDbB1jXMli8sDAlBWcN/98IGHP8D1Gx/glVfga1/7Id/69uu8df116joj0wtkWYGIw9UV3lkCJb0Fw+ragAvnl1hb6/FTH72CyWFpORafNVS+Dk0M8aYfy9z4rJkwe8ZMKHXm+f1lyJn/BdMIx/SxbVdn9xyFqTAdDOO5qn1guCg8/azmg8++wNs34Gtfv8W3vvEmb/xgzMZGRVlmhKDJBjEnb6sJLtG85QUMBoqicDz66GWefOohrj0YC9hiULoESmq/iVYDUHmsjE250BBi/lE1ha9tSJtE3TDNmx5x0fOuIBLXVmuNqEDwDjB3rnsIR9+zFIkV5wGLSJTdiMOHkosXV6J88pbgZbtyDALnzg/IjWY0mfb0ee8R1SjGpioobkwJ7mjbbG13sYq5Kwmx8KapDwxxwc1JWHUH4RSFWEg9Lu28Pum+vFGQgbKqKfIiraXDB4symkxpArC6DCtPwBOPXaK2lxhvwTs34cbbcHsjjlXUJpIv9/qxMGF1LTa653kUHMg0CGerOBMw1z3YFhVpjikyy0RMG89nj7nhsdxvxpZ5r7H7d3oOZF6RpF5N3Yu9p7W39AcGiMU21luUynA1nFrt88mfXuGTL6ww2oK334IfvRHPw3gSc5C5iVyty8tw6jScPgWLi2n9VTRK6tpC2MLkAY2jUD3i2k0p4byPylGnayt0uVS7vaVHW6a/S/i2gFDrpBw7CnHPVo6gjlblKoq2cro9rrjpRcA5G0nYxSLiEeW4crnx/Rwh6O1XsQBnT0OR59RaU/nIjhPaMdG7MA8cyR6j7TtpusGmitFjYyHH8ctv74KpkplmZ5tC/tn9Mb9bTF7EgJlzTCYVJu+RZ3Fh6wp6rZCMebFhLwpeuRaF/qQCDGQmFSWQvNUQq2Gr8YThoIeWJpyqMDoKV2dBm/mij0Yx1umBbFoY2UADjIlCOzW7Hwio1E/oZx6DqccMJBq3AFJjCeieRgO1H1PWNcZkGN1Ho8myaUuOc7DQg+V74QP3pSxg0LGStS2miR6fST2jtg4EV2MyjTEKwiJYT3AB0QrrQVJJpfeOID55mDsdR9K0naLEdEDHHrEgh23K8di0W8+jmTATABG8tygdYjuZAR0C5y/El6oAQanZq1gRx9ksLUIv14yUR4nDeYdres18hqRqQ9VSQoGXZP0ficXv9EzNcFJFC0MHF9sEvCEECwhIzbbisGOJrgALc/d9SzS4W71k7WqMNiidR8YhD9bF1opeTtvkDNFDFDyRNzIABtVXSUiTAhwhtqFLQLSnGBqEGu9A64w4Tqn5vL1OYCd8N/8wMC1KO1iY1qzutu7NEKoILQFPhSAopRkWA2aOO62/VtPB8iHYlIs3MUcoRM8/a97laap7s1za720IBUDFNK+PSru5jkR0KraNHlFVlxRZQ6i917k4voi96Glajew0firthCYyElTizIjDyDsZo8OJlgQ/9R83rUXNTgwWvMZ5hfaCoiDDobIRp9aS0ajixKQ5E9djcNQ24757L3D9+i28BLzW9AYLjEYVWoaJUi7SeCkUPjb3EdB3FA93invv9/6WprNYmpxGQzGWLFdfRrfcGiTkZCbD+QrCOkXvaPnN7w2zK7DT+dyelZ6+p9DFzGOiZl+/ffuozmeptkwmk8Y72l4pIzCV7HfccIqZyQ/Ne7pRAoHpPMf9ja1vPxyV1k/tsO7x+Sk00qkaCO3a7lCY1PU8xUz/G2btyen7d/CmGzqpZi31rEcb78dEo6DpZd3P6CjHA1AMdVCgRahsLFBdWFigfr0GL7HVxsd9EIW0JEKMrjmb2L/uYh339xQEUBUEg/gkR8QTJI48iJzBAZ1pcrVIqCAXTb3+Kk9+aIEihfsb42KuWtUj1ORZxqULC4i8iRiFszXO5QR0ZNwXjwo121mYjxC2sS00VbmWRuCE0DSXK1STBzm5QBN2NxN2XiK163N3XtLpd83rrXf7m+78+XtVrsJ+K8W9IHusbcTsPr8rXbOrbN1h7d/1F6i5vzt/7wlmsZMHOJ2jmR5IOTmZM2oOJzpsN8D8pgjEkL0LPkYpgkaTo0Rz4UweqSLbIsFtu03FqjAF938AkBqjheDA2ipZFR23tfXBw7St42SXnuAEJzjBvqNh5jo+7Fx7IFkKDZd4Q94SqDEZXLlyeVtUagdTLD504SKYvG6ZFryPA05b7dwdGNkqzJOTcIITnOAE+42daCyPPnbIQ3cQC/OSkhRBKcG6MXkRuHRxsOOnzUCTIcBwCCsrhkCNNoKWSJE29dWbZHpXOZ7gBCc4wQkOArqe4/FTlLBT42tkj1NoLRhlsXadpZWMldXtrt22sKqIJqXRuOe+M0io4pge4kDfllMyTWKPijGk/tGTcpQTnOAEJ9hvNJ7j8VOKiplxdXMIXlDNFCodCDLi8qU1+r0dP2n+3SlzqODaw6cJlCh87DMSH4tSOple3/aCdX/YCU5wghOcYL9x3BSknwmtdnvvU/eBKIIHbyuEijybcO/9wx2HRuyoHBsWiyuXAcb4UKaJHPELJRzRCtUTnOAEJzgimFeKR3/gelRcfgdbQKWMoJbYmmetJVBh8pJz55Mi9LOh1e3KMZViewdX7oHhokoaVoPznTfvrCDn49zzt6ZSaLfbQYfWGueioaCUwrk42kuf0OOc4AQn2Gc479A6kmXUdd3KXe/9DiOsjiCCpC6KbksHtNN0giI4KLIMpSzajHjg/qRW53pfZlcrzN4VgatXTiGqIs4ulOkXSWKRCQ0TAcz2mBxNzCvwrnXmj/ahn+AEJzjg6MqjeYfjMDgf7xfikW4XyN771mCwbsylK8uRt3cnb3P7u+PHCjVB4JHHLqPUJH1jN6eYhkRiaGbe+SOuGLtovODmPpwoxxOc4AQHAyFEReB9k2s7LnnHlHMUP0dqED3HEAQlBgkOb0c8+thVTENzGNy2T5pFiCwwohwE+MA1jc5qgrOR67AhGZcKsBA0oWEHOdSkfO8e8xutUZT2pKPlBCc4wQFACOCcaz2l+NgRl89t732j1mLbRVctSZimw0R5rj24RssYOsf4NkeE2TT5BzIV2XJOnYGFJY21FqPy6VsSt2ps6WhKfTqE3UcU895icz+EgHO7vesEJzjBCX7ymCrCqXJsHj/yyhF26ZZIDh2glEajcK5mcangwvmmG9JvC63u8ElpYjIBAYoCrl4+m75CTxWh1EmZ6tjvCOxWpHPUMK8YTzzHE5zgBAcJTVj1WOYcw84TchrG1KZ25vLlCwwWwIeK6YzQ+dfPfHCTyvTt4IIPXLsHrXX60E5RTksjZzqPHW3s5Dk2OPEcT3CCExwEdHOOXQP+6GN2xOBu0ErxwP0rcQavuPTaWQG+vfUx6b/g4vBeD1y+CJlyOGtBLEGVOGWjYvRNkc50BMqRQDoWFWKhkUpjXhCFBIm9NBKHsYoInizWMm1nLLoD5k/gIV/Dna6/bUbT/DH+OEbVdK7gjjgudQcHFne5n5vz2pKLuO4DtCJr5jrrvq6htTyuiOvvQ5xp2nYYpIIUj4kt8ZImc4jtrOPhv3hUO4k8dk64doppTAlKsCgmaHOLi+fPtAPRQBG8b6eowW7KEYUWjfdxottDD8DFM0u89sYIyxYYH6d1e02wDlxABYMWSRWru1sod1z+O7zgTtbP3dYEhWaseNMrE2z8SUHitHgn5HmOtbG9RaTG2RplBmxttVuTXS/QbRe13+GJQ3pxh86tnXvk43C55sSEnWYadffMu7hAww4KcuY7f8zffYL3CdOahV3bqXc1HtM1M7MNaqBMzxlo0jrtuKX0OmleB9Dn0F4/d4249taDyeHWrRFLy1fYGJd4pcmLjGB16jpoFEidGLnfXZ/2neSvusuL727GZgkeFSqQgBOLU/H3ehTKLyA4hC2MukW/eINnPngNsZCZ2MvhnaBFtftz2y4KEr1AQZOJoJUnU3Dp0ioiY0RXeGpcEKz3BInNpZkyGJMfIe9RprPOutZwiAwLIoIojxcfh2hSUO+Vc2yUxq5PstcLDg+6h9BY/23YolGS83SDzaizO10ZauelauTxEVi+w49d9nLY/andIwd+7rYbdOd2fC2jZlm9gK0BTPIcIy+2D6kvPSQKtPm1PQKyWwiJwS0ek1MQUHgMIGTaErjFffcuohXkGiRFQJWa9RW3E48rg3eRQ04kbTeBRx4xZKZCi0HTR7xCfDeO3XFnjzDmY/chhDb/WDbG67teh/kZmIf8wpb5W8djnEE87unOUYS2X9ZMK6C33eamvze3k1GiBwjdvbz3CKHt8G0rdcATMAQKAgVxmLRKeyp+fBx2ACEYCMN42yEYdhxRVfFvaKZIHDtvOm4k6RDXCA4lDgmWJx9/uLMi0bqWuSXavpOCwlmLyps3eRDFAw/CYMFSbxb4kEf+VdEgQsDhfI3z/igYH3tCRAi+IfPV+BDQ2uCDYzSaf/Uu4dWZ0NI8Se4hR+vcdQ2E5hiF+S23LYwyHyrdCfPvkT2eO8E+oFGMezzdwm/761Hp3RpSD/XMVui8vzWw0jUlP3bO/yghKkEBxuMYOfVMCwh9iB0ISNj92krRssOPZBCEuB4qWJCaEMb0evDQw/1I2qKBZvixzKZ8djSzuklcIfKpnjkLFy71uPl1SwiGoAOISZVQIRajeIuoo80x2vAUahPNV2/BmBjHH23tcWU2D++4KdUu9w8bLIEyXZCNImzoBXc+rplHkydwx/Bom2uC7V76cbSSDwrexT7eU3HFkXjxnQWgGsKuXd+vjkjQ5f1DXL3xON4PTSiVWL161K+MkGpmooxQqKDw4pO5VkEYc+bMAufORv5wycAHl5y99N6EHdeqG3sNqQpMNDz84BmCtwQnBKfAJ9GnJQ5EPjLk2zstS7LAVJevUCIdkYrx7HHckXfxnYd96wZi1WDsG4qhMUlh0+06b+pPegRLnBXaPrg7tj3XrQQ6wf7i7vaxoBAMkgSc2vXUWmLBTnM7+imdd4dYezkeQazAlNYrmi2mOeprNe2/VwFEakTGKDXh2oNXETW7pWQHUvYdPUdRUzcnCq4KTc7Dj/YZfs5QVj2qUON8IEgA5WIiVAt+m6l3tBA3WUPJJJ2co6IsK2DAuwopzReuHIlwUBNOi5WFssc6qGa+2raLNJWWS0fIbivy2f7wDk+fYD9xB49vO5ow2PS9be32jHdoiQZYVIjSvhemYdjjmnecXm9VBYSm4f2wG90/HnxTTIkCUQgWRYWSCf3C8dhjC4hAHn2a6DXit1XSb9tFzqUXp7hzjNhaHHDlUs4B9UKEAAAgAElEQVTiQKNUhi89znl8sDgXUOKTwDvMJ0K9h5i7QkQhaKz1HaHwY6zDkbEnFEKR9kG02ny7xbpl/vG+dCtpgqEtLW/2kcyFZDvrNJurPDLWxeHHj72Xm6pJNd0a3bC5gIgnzHiHofPe+XN+mOXP+4G4jraOedhpikzFmbwz+fkjI3iAKBN8R/5K8hwFj6gSxZhez3L1KngLWR5f2XiN3ltUJ/q5bScpDbMepqAIZFTkGTz9zD34ep1qskWmBa2j9zQej8n7vTsewJ3mPf6k8a6+v1sVOQelFEop6irOcczznHJS0+sNuPnO7cSS06mD6ujZqpoLGx45Wa7AZ4gvEG+QYHCNTMPjmDCubwFjoMZTUZUl1Do6AzYKykBFZbdwIb6upSrcseOjOVe6c/8EBwZ77HPvwVqPc00PLNMoadugvk7gbSxv4bhJ5TcAYVx6qjoHhjg3oBxrCNt7HMuypK7rn9DBHUyIwNYWFEWfybiMfKJaY8zh96j3ngfsiSUvAa0zNja2WBzmaIFqskGvcDz+xL2oAFkGmxsTonASqrqaUYywiyQJO7xEEZvhH34QkHW0snjr0BIoehl5r2C0NXnfF+NgYDq/cjZur1LoIuB9wFpPnS5snwg7nHPRowTy/PBvzjshWPAVjLegmkCmohCsSoNigV52BheGWJ8h9MnzBdApnKGhrGocntzkaNGAp7YlZTXC+aYhfB5Nld6JYtx33KFy2FrfGoxKgTEKrfSs0NGABILfonZbWGoUPYQFjDqL9UOKbAl8zu2bKV5R9BiNHN7D1tYWW1tbhBAoioIsixWvo+3l5EcO3kM5gdu3HLb25HkPJQZbu3cx7PjwXz8hOFCCrR29YsB47HB2QlEE6vImD1+7SK8fj7Tfyzrva1pepriztA46hjZwCHDtIVg7FSive2oL3sdKH2MyyrIk04d/gfdCCCH1zMxW5jkbqKp6midRQIDMaOo6NTf4ea+cI+Y9eiTzCIZ+BniYTMAYePkl+NznPs/f++RPce/9BSvLGZMqKtLBMC7DaFzRHw5wWMZVidaaTCuMaRZNEV3Mbkg24SSqenCwx3lozqWzMezXBGu8h+AdeSGx5J6SgMPQx1Hg6LO5Ba6E62/C53//61y9fIWf+9klqhqch2KgUcBwOGy/L07LiYphMBj8BA/6YEBJ9IpGowkhaPr9PpXXjCZjsiLfswrgKMB7iyiF9z4e+2REZgK9zNPvBR55JDX+C5gsGt+gUGIIzPL7zCjH1nhrS+SZsiZI3Hi9Hjzy6Fl+9Ac/IjeLjMqSqoqWW6/Xw+1JE3P4EdJAzGkIOCa8nXNUpY2TOeYEdQw9ky7So1LRuxM8td0gyxaYVBmZicbAf/ht+O3f/lPGpeKVV/6ScxcW+PCHH+JDz/VZXIL1MWQa8mHOqIS8MGR5L2W7LTiLmQl5zLPsMN28JwrywKOrFJWK97UCRBNkQiy60Yytwvk+IWhGW3B7Hf70D0u+9MXvMNkq+eIXv8yrP/wAn/nsRZZXwAQYbdUURUx3QFNAF7DWto8ddSiB8XhCXddIPk0XHf2Bx7EGRgJo3Y/mswh5pnB2xGOPPcDCYNr/qXQUGiEIJiu2fdoenmMjgLJUpDJtA3nqmSG///lNUKtoLbjaUVnLQn/hCCjHOzfli0gSyMk9TKHVunaMtmB5CNZG4nadFASS+iG3ffbRsNgiAibLqILDFBk3bsBv/WbJn/zhd7H+KiurZ3jn5pvcHo343qt/w+//keK5j1zjoy8usbIMP7oBZ1bj5g0CwYEog9YGRwBf0TqRTSFH6NRknyjIA4qpIdNET1o2kjD1Ij3gtEbpWLsgBrbW4Tvfhi/82U3+5qtvsnlbsXb6XrYmNyl6FX/91dd58+ZNfvlXH+P++2CwkMUcU1XNhFXdMRmZU1Wx7W60NaEqa/A1utfHGINSiiCeo8zUIjoQvKMoMiZji9YKpaAcbfLs0x+Olc8elIn6rS49WZFHcd4x2mAH5eilI667Frk3KBWF1uV7YXm1x9tvT8jyPkpn1A7GVXmkRP3eSA22MrXIvI8Uckogz9N9HRe9sZC347BX+E4R0JQuCrevfm3M//lvv8jNG2uY4hzlaMC4KugvXaV0m3i9zvWbt/g/fuPP+b9+q+LZZx7n4x+7h34OvQxM1lRNN464YBHMdEPSVMSmLz9RigcO8wZm5GGOlG+J1SZEI5IATsCrjImFN9+EL31pnT//i+/zve9vgT/DcHiFfDFjbDXFYp/x+C2WF3q8+sbb/E//8x/wS7/4PC9+uGBlEfI8p0ocak3BxnFAnkHtYTKpYrGgj2HlhrxEaEKJRxDi0Vqwqb3OVjVZofCuZnVlkXvvTeH3DMDFPlpoZYcNkN+JIWcqdjohq9QPosVS5IZnnn6I3/3dH+B8jVJ9NJqqshS6Kc0+mmj6G2OPo0ca5SgagvDqK+vce3kpFRvQCoLt2G2NDrOiVCjV56//ep3f+Q9f4ZVXtxC1RtHLkZ7mxuaEKpT0+kIufZwNmGKRLFd87WvCl//qy1y7v8fTT1zm6WcXOHMGfA2Vjcoyy3KmDd8QF3enaQ4n2D/4Xe435fLgbBQoWeozI8THN0fwtW/BF790iy9/7SU2NxULixc5fWaFrYmwMaoYLuZYVzEuNzG9jB/dXGfYX+XM6fv41//77zO6dZqPffQyFy5cmAmtWmvRWh+D0CLcvAnvvPMO/f55fFVQuoDHJ67so5zWiSQtIuBcTZZleF/jXM2TH3yUYb8RD5Zmb+psGmqfL5fZUTnG16RN1E2tCShKXG149mn4oz+o2Bx5VGZQmUYkxPmGDdEh838PA3arhpyiIQKAaJUqFS0HH/r81Zfe4uq9S1y+3HlrU5aOY7avj3ZZdpbtu1CjzTXFh87r97ViMzGaPP7oEjfe/CDrt7/BxkZgUt2knGQsLpzCqwUm9YTaCnm+RgiBjY0JIpqF4jIvvfwar3z/r/m9/5Rz7QMX+dCHrvLwo7Hqtaohy7KWakAS7+8snRx7KMo9DJJ3tUV9+/Gzu7vbjH6X/a3vw2Xynq++3ZyrbR/y7qMds5wsKi61jru08lBX8Oqr8JWvfJNvv3SD194YsjlZRMk5+osLTFzG1vUxogqGw0W21kf0+ppBvyCEMYPlHlujd7j5zjrPP/8kTzyxzIULCwBsbGzQ78eQYlEU+6AY34uTsMu6zp3EnbhuQoD1TXjpu/D919ZZWbuEaEVwDiWC0QbfZL3Ed6SF2vXUHzbY4PAi1HVNvxhQjSfkVDz15KDlFQlYxCcpksh4XZpf3IWEuXhDV9DGFzQFOR4o8YzxrLG1Dv/jv/ou61tn+f7r6/SWh5g8w02qeA6bZvruX+YLWWB+M3j2OTcwc7ywOz3L9tcJnsnoFg8+eIaPf2KB5z8Cgx4QxuBv0dMGKCCkmwPraEfVSSekHZljaqKVE2jZPzrz7Jr+Xt8WUEXK5v1UkCH9FO/hlVfhC392m7/8q1e5/hZItgZqARs0QTTKaKzUWF8jylMYIZRbBFuSZRlZrpBQMVxUPPXkFZ79sObSlVi8k2VgpEMR4GNjr9Yp4Z7yBy0ToniCr1PDrwMvUd4EibHv5v9z5mNI14EPnhAcWjVUF75VEZEqm/S/7Yn97Qt0B9yVDO/+LlB3oOaQbmQjzOo/F4gLqQPaxOvYO4dIQES3vJ3SmYGHxKIIW0MQj86ixHFA7bOYmnHw1hvw9a/DF7+0wcvf+x6eMb3hMjc2MpRZmFJROo34jOBzcAqxisx4il6FyA3gdc5dFH76E4/w4guLFLDPvtFOnnNIp333WgPpysOd5pXGF8V9DFhiVXhjPm9tQV3D//K/fp+3rxfcumUJoUBnAxCN8zXWezKV2hekke8hyRHh3RCg3HGe7l0aIHfz+V6VOL0BQTOUK6y/eYuLp4YMhq/xL/77B+gNQLOV9FOqaJZkLcw5K7CDciR0hG7nYd0OHrV4v4B3hn/372r+38+9jMvOMvIWlMYEOdzK8W4QDHkxYGvrBssrt3jxpy7w8Y8PuHwODDXObpCbApyhLgWjcySL6+0FytLTLxq/fSflaCBkM8rRdzxPaZXjfsFDcJQTh/c98l4UhK+8Cn/0xxP+6ovfw/khGyOhtBqdD8j6fYJAZWtsXbE0KLBVjXOhLcOXUNLvexaXPKdOC48+fI6nn+5x6UL0VK2FngGTHEDVWQDrfAqx6Jk2mtDKLTUNlXfWMoRI1ByCQ7TCKL2DgNvp/2ru7x3wvnuPjbjc6ftVFNNBtn9FiIqyrqKBobqjEQWC95FwP+sWrE1Dpe1amUDwCiRO7mn4bEZ15Pv8wp/f5m//douXvlWxuZVTDNbQOYzLt7k92iArVggYJCi0SBzI5wUTNJkoloY56+uvU5VvcOlKxic/+TA/9cKA4RJMxo7lvt7nGNVeynEnzJ8LRXBxqLog6GkWJ0YotKcmjvOqvUKraMR86a8C//Y3vsC4eoCt0ZCyLFvCkvab3gfP+UArR6mpzQbeCT17lkEwSPUmH//EWX7tv8ow2RihBDICw7jnJcnXRq52LpvtypFODU7nMd0S/TrqukBJxg9eh//uX/wFw5UHubFRY50mN2bPsOr2gztCyhGY1CXLiwW2uk41fp3HHjnNZz/9CI8/EmPa67dGrK4NAEvwjklV0e8NCd1KvpkQSqMcu4ghgYDqXH7No/sbwHa2Quu8/U3Ox5zhzVtw/Qb8xv/9ZdY3NJsbGZOqRwgDrO/hKRDxGLOFqKptylXKoFCUk5pqMmLQz3HVbfKi4r57Vnjm6as89rjm/HnIi6gYbdgkWMizIhUgxBFIk4nFKBOF/7zuaHLrcwrUu2iEmCZiOl8Z24UAyhKNyPkvuNP/ofWDdwlWvDv4ub/QvaJ9iIQWUxOq+zoD5LQCOviUNlCxHSm9ynlH7WPuV2uNFjX1sPEE+oSkaN/8EXz72/CNb77BD37wNhsjoa77eLeIo8ATcFRkvYqs0NRWcLVBhQGZGoAFW1u0bJEXWzj3Qy5eUDz33FU+8vwZTq3FCIG3kJmDMO54L89rj5BpA/EE7wlep4HqzeMxLVOGCSI9rC9QCtbX4d//+5v8yR98Gy+nmdRDbOi1itEno0YphTEG7/f2DO+Eg64cfV7iqoAaL3FueYHJ+jf5Z//sET7wIJi8Jg5FUAT68fO2tSx2vuvdK0dP04BtbYaIwjr4H/7Vy7z6QxjbpXhSQucLgW6AB/wRV44OjEWCJRMFrsTVtzm1qvn4i4/yiU/A4nLkr63qTZaGsVPeek/wiswU05DojnvEgsRzQLIe45kxB0Y5tvFMohB1olBKIjuci3nDr3wF/vRPX+Ll725QVgtk5jQhDLHWM6puo0zAGNWh9dNEzlaFLSsG/R7G1IxH1xlvvUF/YLlyZYUrV/t85COXOH2m4PTpuI51HVsF+v1OyDotVuJzmCnjbmaIbGPp9+k18wqya/8pQDfKcR7vxpNUbB/v9eMIsxSS6+Zcg6ftW5YA7fXVNaumbwjtmLG4m3z6XB+ioWN0arlI7Ta6s9lcgM0JvPbDmm//zTrf+dYt3nrdsjVKqyoZPiiU7qH0Ikr3qKynqsc4xihtCb4m2IBRi/SyBRRg602KfJ3B4jpPPb3GCy9c4urV+CvLsqZfZPF1FRT5AVGO88J2/nrezQCa6SdwsYYDcFTUPmDUAJvOy3e+Cb/5m9/i5ZcnFNklxhNDFUCltg2IvdXeR7mrtb7rqt2DrRwduhdwFZiyTy6bXL24zn/z396P99AfNHJzKi23ydvdlWPz5mgmzyrH+LyzFq1z6jqe/z/8E/jf/vWfoLMH8azg3ZxgmAuvbj84P/e/w5wadvQGgVu3bqFCj7WlM4gXtjbeZmXZcc+9PX7pV06xtgbDRWLMkUkqH47WdzxVJuUlmRXAAqjG+nFppTI8WQxFcQCUYwBnPT5MyHJNwLZmlUWj6OGByQi++hX4wp/+iL/9znXG45w8O4Mu1ijr5K0ZsK5kUm4AnqKnqeuS4B0qQJ5l5Hkew4GTkqpap8jXWVsx3HPveR557ALXHoLTp2Pu0dbQ69PxmRwq/SpIuiTUBJdUglLoJkcTJMYPlekINjWrHAVQdwq73mHxOpV0e2MnZWvAZdsF8XwmY5fHAh6LxQU39TC0QqV8t0fY2gqYTCiyFHq20Tt85fvwxltjvvzVl5hUBZNRQVVmeJfFa1pqHDV5L2cyrimrHlqGGLMw/SkCRt8mUyUhOKpqE1dvcu58j488fx/PfqjH1Xuivnd+RN/E2stJVWPokefm4JX9dW2P+ccbdM6FtxC3nKV2m3ip0ozcHBuGeBedkv/4H0t+57e/Slmt0isusrkJZeUohoYgfoZztJG53fvv+XAOtHIMRMZJYUDB5q1v8+v/xUN8+udzyhKGw+6yRz0lFB3FOJuO2EE51kk5ZrPKMV38ro6N7ZMSvIbNMfzLf/ln3Lp9BcIpXGuO72wpx7aH3cq9D79yrO0W/f6Q4HqUY4dWfYZ9jas3Wd/4HleuCD/7Dx7n4x+DoogCJhOLSmN44lxDBQxiktgxpxwBKYEyrVTjORYHQzk2SSYd95L1Y8bVJkWvQFFQoZEwbJ2Z9XX47kvwl39+nb/5+pvYcJnb62Cto78woNfrYd2Eyk4Q5SiKaP0G73FW8E5DyMmkh1YexRitKjxjbH0L0SPOnO3xwLUzXLm6zMMPD+gPYXEx0kgByTKH4Et6ClSaKxmQFH5s9nKT+0132yTlXJ5xW3Xnu0Rb0Xwn5bhbeC6LObodP5ttCrGpLWgkgO/kCOn8bbKYlY3FULduRa/lO9+5wQ9fu8XbN7YYjzzW5ni1hHMDAhlC9GCUDqDGeFVTVSOM6ZHpJfA9JmOwtVAUwtIQcrPFxu1Xqd0t7rlnmY88/zBPPaM4dy4qz61RxfIgT+fI4p0n1xkgjEYTBoOFO6zd3yF2Uox7hcwlTUXSgFQESqI3n8UQdIjXym/91st885u30eYcdTWkcoYs7+NcjSgL4nHOtSHxhnC86Xe8q0M6wMoRoHaCUZ6B9mTqNf75P3+Ce+6JRkduppetJ/I0a/qzyjFMi8vmlGPMK4ZUdbdNORJDFyaD2jmcaLyGf/NvXucP/9Mm3l2MBvbMxTsbImoPrlWQs1Whh71D0ihNVTu0zjB5n7KsGW9uUPRyTp8ecPvm99HqFk88dopf+If3cO2BmCer6opBUQORKV4YAH3wyTvxzMZNpSQkIR4FWhwSq+4wR/Enjhqci71GqmjCeBaPpaxsJBpHxz0WYhSWAOu34a0b8O8/9yZvXYe339piXILRK2RmgA8aay21rzEZ/P/svfuTJNeV3/e5j8ysqq7unpmeFwbEEG8QIIkXQYIPAHzvUlztLter1e5qIxzWhrVhK/SjHeFf/JNDVvgPsLUKh0IhW1rZEba03liJuyTFB/gCCJIgARAAAZJ4Y97TM91dj8y89x7/cG9WZdX0DEhMD2cGU9+ImuqpR2ZW5s177jnne75HWz0h7CAGa3OsNhAc3lWE4LFGyAuNpqauNynr0xS5Z9++gnfftI8bb9rLu64vWNsHK6sxZFhWQ/LckZERwy4yYX0qFAYzJZzBecLfvLVxvJg55ELzxwW8xjbRLg6peLd54kQqSlM6g9ZqoiQyGMLJE3D0TTh9Cr75jR/hfIEPGc4bJGQIBhGFSIGoXTivolYqgPYo7VC6RqtI3PHeY8RG1RYl+FAhfohWI7bWX+WDH7yVjz1yA7fdDv3VWNhOMoaWHFd5pNYs9eJCJbKTxxhrODcs/evFTHSubRzbz+2Fim6WHvEDXlSK3YfEKYgh7Vdfg5degi/+x2cYl7tYP2Px0qXbW2ZYjvBU7FlbZWN9AztpwRTnW2vtjMbsRf2+K9k4isY7S6ZLrD7Bhx/czZ/8yR66ReQMxMgQyTimnHnDLm/SDxc2jpFMIHTPyRwqgWoEeQc8JeiMGs2Pn4Y//1+fwtXXESgIM+WTc5Tldg8x1a7jewcYR9EosQgKlEe0YPMMYwyuDlTlCE0gNxWZ3mDvHsdHHjzMI4/02LUaczbWDACPJgMyVFO60Z5sFenceWJ575ShqCkur3Fs7nMFrvQEFciLbCZaEK+0xnkXzY1R09Crh9ffgCefrHjyhz/n+JEKkVWUWqF2OVp3CChcCGACSnmC9ojUhABGcsAmqxuXaVp5rCHmtPwQUWO8GxAYkGeeleWctb27WF6Fu+8+yNq+Dgf3F/T7KVMeIplKm2m+slkszp/pbVvkne9+3u71XzZwcp79yNw2255ggEm/uyBxovDpuckjrp+K6jQvv3SCV145xvETAwabQlVZgi/I8l0gGd4bfLCRqUrMC2tTEGQqxYUKqYdgPApFiMsiJWhqRAYE2cRkY3atGtZ2Ffz2b97BoUOwe2/yoBAUAzQVATAsocjBp1E+4w2nsNhlDJ2ck7o6r3EMk/MyTWfFERs9RY1I7Gzz8kvwjUdP8vhjL+HCKkrvwRYrBNGUocbkIDpQlyOMGAqbo7We5Bu11hN92YttW3VlG0eLoUCziQ/P8Y//mw9z731gdUWhLeNxRVFEacLI8nfTsp92m8Jf1jhOU5fxxncl2ByEEoejlthS4X/+n37Gq69pnKwgKh6AtZa6iheo0+kxHo/TxUkT5TbGUa5mBQuxqFBE/UJV4k2J6DpeCMnQoUCFDBPAUpKpTXrddW66scsjj9zMPffBsISiG2v44ko51tghgtEZ3kusARPwQah9hc7AqKbS7jJ7jtuRJBvM57lmwohxpVzTpU7kl81NePbpAd/51s949eUaCQdRch1nN2Fl1TCqwOsxo/okK2sW5zyhWgEp0Cl/p4iTs065vIZzqUJisaabQoW4oMFsok1NkWmWVwr271/hukNLHDwIq7vhphvBZDEk26QhUTHVkObyKfFnm6Esrclw+nZz0jReQJGYitvM8hd2GgVHSRQlsGjyyd4gHqsIjEdw8mTsbnHsGBw7OubYiXU2zpZsnAkgNhnZMKmhlfSrRGkQE/PckoNkaTGcZMlUW8EIYv48Eo20BERKDAOGg9e58eZlQjjOrbev8cjH7+Kmw9AxTI2egqakqQl1x7E9W9I0s3i8zHmFCxvHAOJaLKY4Durgkk3X6ZWYHNs4A49/G7785dc4ftSxvPsgY+fwShDt8DoZVKVjCgaF9ZfTb770aBvHxnQ1z0o0RnKUHOddh0/y3/3399IpILcVUTqkFbFKmzENeU5ipChuKD1tF1aNxrGYWXWmFmvTF/QYHwKie5QO/vZva/7yL5/Cy0GUWcX7MKHjK2KjTefahJxm5QQTBp0KyNUsbyQ2FiyrEM+PGSO6jBciFCBdrCwjNegQMLIF4RRLnQE3HO5xw7t7/NEfH8SF2KVaAXU9opOBxjOqxvTyVcBMwnqNp+CBuhzTLd664fQlxXye5XyeVMv7nZJQBD9hNhvqYFA6py7hZz+FnzwDj37jNbL8EEePDOj0l+ksKYb1abBDxnVFpvciUqRJNaTpRmY8Oi0mTSYGFaJn3ryvJ466B6lQpsLoMdqUaDOkrNdZ7sPaWpe1fT32rvVZ27vCnrU+y0uwfy39NLXNQ8+pcGwzic8b1OCnRm1eGHnyd3pdVEw5DssYpj59asCp0wNOnxyxvl4yGChee+U0dV3gKkuQLooOQo53xJCUWgIsolw6KQ7RcQET0mI2jrnIjA0pjBnD+g5UY8hiSFBLEq4AFDW7VmCw9TK33NLlhsMdPvXJGziwPx5/CJDrbbzxeCZoL6RIpMGJkZzMS9uf118XZo1jE1tunIF4EcfjMXmeo42hTpntgObscIt+byUyUZ+FL33xTZ57agzqIHnWY1SDtxWihwQzQpRDlCZIBtJBi0GHcA0bR+jonOHwp/zu71/H731hP5kCTR3Dpii0ml0wmlS7j3SnIdXtjWNcpZFc+3OMY/ORAOjYlBZdMKxgaxP+2f/yXU6dWUObA3gv1JXH2gytLd5JohK/k42jRklSvtclXteIjmxN0gDOVA9fKXQQMhUQP8RXZzG6pNMdc+Bgh8//1u28754YvtYKNCMCAzI0QTSuVgTXxZo85WMSVLpGl9P5fquw4IXeV+CdI6gaoUIZsMoS6OLRnDkNw0H0dv7F//4zhuMCrXtUAWyeYYuMum7Y0tHDaVbUWhoPhonhREW26rQ8RlPVBpROTFUVvVvvCFIjoSIvFEZHnUpChfNV6mkqaF1jpaTIoNvtstTvsry8TL+/RLfbJcsMRRG9TGujyk+eJ7UfG19vcnWNMfSOVGQfH3UdRQ/GY2EwGLC1tcVga8h4PKasFUdPDgmSRWYiGq1zRBkQg2AR0TEn6BUBi7U5OhFalGhCnQhhoglKtcJNaVyn8waOoOt4flSzwAETms/HshAVbPLcK5Te4K67dvHwJ/Zyz90gHgoDw81A12iKDijdGMGW0ZsxfNN664iWclQaQ5cTU+PYziWek6BiVDpEZdg8ikvEVm1w4iR85Uuv8di3XmI83kNubmQ4yPHB0Fk2OEYEM0D0KJ53MQgFhA5KDEquDeN4jnaNCEY8XRuAl/gf/scHuOH6WLmrRfBujLZm0rcxNOmRRmhFinOM4zYB6Gic2hGw6WGEuPxtKK/eoNOEvHsP3PW+/XzjWxsgJVpblPYobSItu67omqX5nb2zMJk8mpWMgpARmw40SfaaSFPRWJORZ6uErIuEikDFiZMj/vmfP8ZHH76dL/zeHnbtgcp3MQZCGFPogk5uI0tBomdR19EjsY2Q8+XEeZnIc4zOdiKsNciMthhlE5+9pqyH1H5Anq+xa49hZRWOHIOiu46XZZTpEqoMX8dBrxUE7dDBEppAlbQWXCpEik2a0L3yoComOdtOkdxxjycKNavMYuigUZRlidUxGgKkkodUj4lHZyVOajY3A+ubDnltjJMheE9QkNvoyxolBHjShjsAACAASURBVBUDPaIVWiIV3aiYp9WiCQpUEDwqPovCVRWiYvAcY9OzxtAhqA4muxkRg/cuqdY0lH6Pk0Cnk8dSDeJ7lSdS0AEhkOlWbLIxOE3JSjN5SJoHUlg6qFha05xfHdKxC2k7Oi3cag69azfvf3+sd+1ncXJa6RtMgMEmLK00pV+cJwphW4uZxvDUady38kZXBOZXgpq6FLI8I88tniiO0d8Vf8W3v1Pxt3/7Y86uW8blGsauEbDoXKfwaSJRSRNajhwH1dS2ypX16y8FzpeTjPXQNT6c5e67r+PQ9VB7R25sajFo0Wra3HjC2KalqDQ3d84ZRz29Ac6hxjSDsUqxJxsn/RBbDJUCH3noFh7//g/Z3BpQ5EsYKxMCTggObWIN3DsZ0sTnRKMln8S245OOOQcRBKEKjiA2zjWqIKgOW5ueQ4fu5cknX+PJH/+U3/zN9/GZTy+Tmy6iulQuepN5cuVNc5/Mk3YuO9pxB2giEtF4tobdfBixAp0DwYKyWNUl70QCyaiE4RC++rVvU7sxyhhM7skoCLXB+xBXh6FJP3mU8jMklaBa04ekZaIkxpoSrBGEEu8kemqh+Rxo0eR5B5X0RCU0jWTj+17VjKoyrh/RoAp0pjA6GQqtIPgYQhRPECGI4IODIDE0KRa0igsrpdK6Qcf3labb7xBEgQg+QPCBEITax6hLcLGfXcPK09pgrEYpwWiHDx7RAW0kdTBIodJkRMMMo6eceNuN4ZkYQRQ6GBQGHbqJqOTQqvFoGh3gPJ1jg6iSb37j+zz00IPs3QvgqNyADIvRfZb6acjIecbH5FQXQEYTao051kaVKGPbNf9lR4xi2CySoNbPxtx1rw+vvQL/4a9+zrM/OcL6qZy9e29gqd9haziirM/Q7fXR2jDYGpIVOZChXAZKJtdDpRDuVc3ZuFioGqXW+chHbyOKR1QxHCOgVBNiC8QoR3vhp5kKrEzZzhcYRfNGLK3SVNLTEpvCYKByGJfr3Hrzbt5940GeeWaEDyXW5EgIGBvpxMYYvJtvhvxOM5bN4ExNv5rBKy3DaVScXCWpyBPPrg6KpdV9/PwXr9Pt5eza9S6++B9f4Lln+nz2M3dwz/vj10VBGUBJILMak667cwGrLvfaMXrIEe24w2xJz0QXq11CCCgbvWEUKJOExCUaR6Pg1Al4440BmVljOC7w4xpMQJsMm2lwAyZ+eiOunPYpKmbCJoEnpUHUNIdGoCzHKC1YZdFWY8iSBxe/UlfRy1KpRZlSrTZIIhibT7Yf6zEFQpN/l5R3j8XYWptYB2gLdPJGo6bm1NOVyVpLIUFxdhAXGXGlrFEqroyVMaAlSjeqtN/kBHpxIAEJPjV/1ek8COI8Tlx6DuSdJKvV8gSn12ea65u8LxZF9HwRDTpKCbRqjkAsAY0JS4wGlq//55P80R/vxWMpbDcusquACjratnmDuN3fKc8Z9xMNZPzI5R7/7cNsxv+sR1uWsNyHwRj+778Y8vVv/RjnOyz1buXmmw9y9NgmJ89ssLzcY2lXl1E5pho6sqIpO7Bp8U0KowZUopq11nLvSEzyi3OLAKUUWgUOXd/j9jui05bneQpv65mAR5icqanHHQewY3LTsJ1xnMkoN5YUphY3zVxpRlchbrdTxG4cD37kEK+8eoThoAQVcL6KeQ2tZrtxv4X6+1WJSbijNVTT79RCCmWpSMrQesIIjO1jBASGdc3eg9dRVxVbG2MyfT0/f36DU0ef54mbl/nCF65n394mH6kRGdEkgkOogRUu58o5Dp/zhbdC6zHNMzfPiixO9iSGro4sybLWeAdaw3/665dZP7FCp/sucr2bYa2xuaXyQqjGdIyeMKu1ylLuDKK1ldY+Q8oNt0JzQKY7kS0qMScWRHDeE3yUe+50OukGjZ8PqskRxm3XLnp4E+m7VDDY3MydboYkTy2EQO09wTmk6fphDE3+jnQuo5GN/8u6BZLCEUK71VA8p8YkJqw0V0JNQ6sh4JxMJfm0jXQ5bdCFAi2M/bhFuIkTRTxtzWQcFxF6ss8KlCQzoCB04ndVPZ2kVYglTtJFq7384Hsv8/GH9nLdQfC2QCtHUAGTt8aMaq5TW04yHo+09t4ea5ffLG4TuJFmso0T8WAYy5W+963Al7/6DCdPG3qdW6nKDptbgc3BBlmvYM/yXkpXsrFZIiiyvIcxhuCilxjHuMYEgxKTFoNCML+swtLVjbbaz7R2vuLBj7yXXjeRu6wFakQC2tjYlkprpg0dutMAl4ZJrjvhgrNo0+5mEhJEA4KrYolBe3HYUQXDUPGBu3O+9rc1bwwCyts4sSB47SjrAcbk0zZYkDzQEG+m+ALbDLF3COL5Cz424xQd+19qTTSQEokjm8MRucmxxSriHKgeg80hP/rxCX72s9d55JHb+OhDe1jbB0g31vBRk+WdxBrcBudjjU6J/mxv1ALb32xzOcRmH2956RrPsu1VBppKx9Ew0O3laF0zKDfIih46W2I4hueeheee36S/cgeDQU7eyaldRaZaEbfmUFQTLmlIJY33HjuXNCUKzWuNOoZWFoKa5OuUUlhjUr9SReUaUfRk8BqVHR3ForVN2qQt2URBJh7gaJRkqya6sRqj86QcJYTUcK95P6JR5VHp/SZvO9fhXgXET0sp4jZtZLJK/H+WwgwhgDhFHeKiV2uLMkSvVUvLMOrkpbTPbsv/VvFcSAqXB4m/XyakHVIuLOZ+u519HD92jG8+uskf/+FyzJfnFqXLVsi9Cb9zzoBqD2M9/8L50Ay19vNOY7Ld5rh1uvbxvSAxnPriL+CrX3uBp55+E2EP2u7hzFkFQZH3VqhlTOVKpAygFZ2iG+uknaMclWRZ0xIt7kdUHONBpuLvVy1mag3rycth4s1NS7GgWesqlPJoSoza4IMPRLH2pg7Zh0BdVnSK5cQU163YViuCldIYbWwrPN4cEsw5knMXvj3QRNUEMkZDePyxwL/5P19EspsYisOrimJJMdjcoGOW0GIxoelAkBFUiPRk7dAhj/mW852/y1yE+pZQ8x0z00TVzDcthOaNmQNQk9q7ySYIMX/GmCyvGA2OcP31PT772ffy4IPQyWMBt1JQWBAf80mmUdoIIdbxGYMb19giizZDHM5VGEts2NzUj013zHSVNb+CT7VtTX4ojYXpb0wezMzs1XyPme9M/ibtykBQp+JKmC6lLFGV8M/+6escPdLFSz+GqFXFpIG0FChRUT5rYuibTc+FdJu/VJisuBtomRrT6WFvN+lsP06m1YvNLdgOM/8S2E5F4Lz3w7kLmfO3rd1mG9tIPDbFNJM9zH2mfX9NGwy0ZglJHVl0BUiq8TXoECvNCqNw1Un6vbP82Z+9h7veG9NChDNYHYAlmp6Ywvb3zcwvOoew80vgl50iZlZb6SlEGTZj1FScXkBcTAmgY51poMuoiqpLtYNnfwo/fHLIY999Di/LiHRAugQsU8JYE5a+8KiZXBFpLYQnvRgvzkBe1pBsqhOHgJgtUI4ojWkmTlTwQ/q9Dq4SyuGIXmeJ8fgkS/0Rn/z4Yf7w7y3Frjtpk9t33UikPOxc+mDWQbiA56in25p7bfKGav83sjL7Xbj1Zs2hg8u8dmREFRRZv2BUbpB1sijq7OO2VEhFmSpMiCtXPc4TLt5u0OnzvdGw9SCdF42kQurRAHav3sHZzbP8xb/7Pt/81hKf/MSd3H8/FJ1kKlITuM1hTaYUnY4FDaGuMVbFO5m4wsrynGZnVeXJs2xuka2SN7od83SbQ5+ZzJqQZYO2LmnCfHqyArpQVRVZUeAwiIJvfhuOnnA46RMoEDVEqRqtokq5CVFjdnpKz8eaPfdX6Plr8EuF/LcfsNMzE+aef0n8SrPTdtv+Fb6/3e+cZzzOf6ZdZza/T0njZEb5Jb2tNCIG5zXj0rDUWeXr3zjLoUOr7N4LRhc4tlrte/V0H9t4e6r1mbmDmf/g+bGdR7mdsW3PcxqMNtR1zNOaVPajU/jCe00VDDqV67x5BL77eMlj33+FN94YURTXIdIlJHlCnVqIxTB4XOhtE5M5z/G3lKhbi/B3BnSKTaRxoOI1zwvLcLhFkfVRonHjAbuWc4w9wYMfWsJMgzmT7QBz46DVjUO1Pzd7xi9Jcuq6Q3DvA4d4+a9fpMj3J4KFiZP2hCGYPEflkEZV4zxi5dceZJuJK56bXatrrJ8+FldQS0u88spZ/uLffZ2nn7mJhz72bm6/k4nIbtHLMAJlFcdAnmc0qjQiUUWl3UMwt1nSxm37PZaARW/b4T6g0g2qWoNslpCwzTVtT0Lz8dBEbrRZD6GDpuDYMXjiez9nNHJkWUwGTkL9k5zOxa+aF9hhtMZwUClaK0LeKfAy5sdPPcc9936Yjz0EXnWZRAFSlEJtZ/xmJrP2vprn+f6napvPx5HdjNvp+E0053ZkbG4fIQSU1mS5ndmekxHDkcfIMlkRy1K+/NXjfP3Rpzl+wpN1rqO/vJ+qygktRuQCbYRpOFVaOrkqoFSMYCmVGkHrHKM8Re6RcJZb79jPuw6zoyHznTWOifmjFTzwIfjGd2sGlXDyzIDV3cuMxgPsZOAlpYKG+r1Agsw+K5i2rdcMtkqyok8n65PnjrrK2Rqc5Invv8rzP32J227bzSc+fg93vifmlUZl7GVogNpXZGbKJlQoQtD4OoZ/UkqUhm8Fb+X/NKzHJpy3neDZdpMTc4M4GTYFWBvbomXL1KIpHTz+nSMcPbZJka9NmvXOhPgnq8DGY1ngisEkChIISuPqkl0ry4yGQ0KwPP7ET7nz/XewezdAn2kYv4H+5XOFCoQ2W7a9FZlb9EVi4ezdNpevn1m4xUXguBpRdJYm3xuNQFlNnvXodGC4CV/+8haPfvMJ1jdqit5B1vauMBwbxkMV6zcmknrTbZ/rtl6DUAFSJxLI0cFExrkKoCqUBOpaUeR9xFsyW9DpjqjdBg8/8kDibuzc4ey45+hcvO4Hr4N77tvLt79zGh16GJURah1bemCng125lDs6H8PxWsR8KCuaINCEIPQ6fVxwbJ4+Q2a77Np9K96NOHn8GHXV5Rc/f57bbtvNRz52gDvvilONEFCmZhDGaLHkuosQyRo2I7aWDOemTOcxf/s2ZrFtqqbj862uaWPkZkNwlfPk1iISWyM9/t1fMB4uo22H0AywZvti57b3TonPv7Mg2qOCxicxAuehyFd57sU3efSbh/jsZ5dZ6kIsyq6YGshWHui8pLK0D0LKcp877prs9+xomzegujWQG51pn7YdNWTzTpcKwXnBGk3WZdI145VfwNe+8hwnT1UMhyvYzjLVuMPWKBBUxlJ/N6OxIKpZRF7jxvAcNDwCC6HJMzqUJDa5AuocbQrwhswYBlvHuef+67jjDqg8ZDto0XbWOEbOB0HHxrIf+vB+vv/9oyx1utTDCqs6ifCgYi6tlVFvmGfvnJj5RWJeaUZZkMDy8hJnz2zhvbDc34M2gTMbmxiVs3vv7Zxd32A09nzv+8d5/sXXuPfeA3zs4Rs4fIPGhyWWsqXJGtUF0DoZNBPDr0UyjvN0knmO6fnWuWo7j267KNfEMM7qZXrAFgVVVG3jicdPsn7a4kM3Ch5MbiBSSPUqlht8x6MVEUiM1qwoGI0rsryHkwpfL/Ht7z7Pe9//QW5+N3FAToxWYhNKe0xdCLHMI6YBmv1HzMVjLrytybwkgEvGVCPEek0FGKNwIbbxevEFeOKxV3j2J28QymW63X3YzLK1VSFYur1lxFgGQx/rUc85RwtEhBhFnCMkNoxoLRptutSjQMeCUiU+nOY3fvM9mGznXaudzzmqGFYVNebmmzrcc/dBfvj9IVuDktyuEiQ1kp14ja281AWaJF87SOdDYNrWBhrh3I3BFp2lHtZqxEFd12jdo3YVp84MKXrxkmbZAcrK87X/fJrHvvMUH/3wnXziExnVMqysRIagB3AVRWp2lhVxMore3/zzzJTVMprtsOoctrOeM5R3ScGu9iSmEQ3lEH7wA/jJ0ycosnchtSZ4nXJKepqzTnV309D8wnO88hAmD20VrhasyQiuR6e7n6PHj/Ct7wZ2rWqu2xUlBKffI7G82kx5zrnMTdC0GaeTnPR5cN53dJn2a4EOsQFDIBakKcYu7v7MKfjJ0/Dt77zBCz89CpKxsusWOku7OX1mQBDF7rX9aAvrZ8eMxyVFt5PkBqcLhtl7ZDF2z0HKNWqJ97z4WM1gteD9ae6573puvjUupDPr0my1MzZkx42jDwGjoZsFPPCxj+znxz98Eqv7cUyoqTD3lIRj06S3WEXFMGHr5pkgvqaUwbka52JD2TjhGLJiCaszYEjlPNVI0clWKLq7qMZDHv36Ub77nSEPfuhG7r2/4L3vjYLXweTUOCw1SsU8jEoDrCFETJ7TjWzii5g04Zm0wo54i8E587tmPYKAJZBR1rHr/Je/8iJHjjrW9u3BGE9Vj1GZpAmlSZI2342tqaQl57bAZYLo7XkESqI2rc0ZjMYsL/VBWZQpefTRp7n7ffewfxcYyVrjpNlOO/S+nYGMxlE3Dh9z78+zXROrepZdHWiSEE0YlXQEDZe0HMHj36v59qO/4PU3xojspr98K4LFOc2prZqis4qIcPLUgICn6HXo9bvUrjzXKC6G6hyaE+LidVb1ZEGsJMdXQq+waLOFcyf51Kc+gHOxnM1MCF07gx03jtrGQeylpKwVd9ze5Y47VnnmqXGS3lLYjiYwpg419UiTZYZeL2c42sBow4xQ9K+Ii65TvEhc1P6bonUMEGX6VAophNTuRmmFSB3zKjp6TR6X2hoFlOQoctAxd6dFUKZAJMO5Pj94YoMnHj/DzTf3+fRnruN994K2lrHU5ApqN8SgyGyHqBYRe0eKZ1Iv62rwwWGzkEpDEolCKSZF3JPf1Pp9adw7X4EGoxRehLKssXmB0RmjOlLgv/TlkmNHKvpL1zMaasg0WjuEekq8EdIMN93f5b7+73Rc8Pw2rUQmn1NIGgCSOkgYkyIbeYdxVUczZFcp8hX+7b95ivv+6d0cW3fs32eRoHGuxBgwttEV1Bc0KOl2oa7jsLAtObqm5Zf3Hl87TGYx2hB8KqEwGicGpWKJ2biOrO/g4bVXYyTj6197DicdgnTRdokQMkofla8QjbaWKtSgBNNVGDSeMd5vx0An3R9TX/eix+/l/fpFQsW5SxqjGNCMAY8KGUhGt8gIrqSWI9x0S4877wJtQVOj5wlVF4kdNo4x7e1CRaFzsjxjYwCf++zN/PTp5xC9QuwdJ1RqE2MyOr0+eKGuBzt7KFcrJstYm+70aAC1pFpQSR6khKSOkcKTOt54QpRMU4RUltGEHgECp86W7Nuzn1dfP8v/9uff4frrDR//xF3c/8Aydhky249alwJV6bFWY0zMSXoX6fg2i62k4go4pMR5lo6tCQPPGcjJBCVYYxACZV1SZD16nR7D0hFs3PZ3H/c8+eTP8Cwheom6sqBqlDl/ifsCVxC2MQIq6LSOkcRpVlFNRwQfNHXtKXWHf/8fjvMHv7+fcWrhlOddUIFyPKDodKaMmgatsaUI+AqM0WSpJKjtqSkVGI9GGGPIO9O+p1GBJjCuotEeVaBNFPV/7jn4xtfe5KfPblLXqwQ5HNvGqdjZxOGTmH2IUoEherqT3pe6YbptZxibyEdgkTsHUNN5o+mWo1LDAsnRwVLXNb1Ozbg+xm/8xkOIip1dDArnajK7c+fxktQ5lmWN7XbjZXdb3Hprn9tv28NTz5zE5nupBARHQJFbSxBPVTmKLMeHazvnOBFDSDd2PBvp3xQyivTmJnQVUMol+S5QjeK8RCPZtGTx2iPU7Nrf48zGcbSu2LVykPVTJf/u3/6UR796iPe/9xAP3A8HD0KvB8Ya6lhjjzUBZctUDyZUI4fCkpneLFvHNk1ymQ0dpd8VpEqN0EPsUdgU7nuLzmFcwTe/9RyvvrbF0tJBgisig1aFuESUenaiUamR8SI8dfnRLkpPaFpvAUnvVk3GRVzCaYIP1GSoccbXvv4MDz7wKW44DIMRkcHqFXleTPYBbMNNiIPQFKQwR1osuhIfAlprMJpON6e5n1wQXB1JMtZqjMR9Kg3PPwNf/tKrvPLSOt3OAYw5wJETp+kvLyNiCNJJ96EDXaLMEFGCzEROGlnEOYs+UcGaeWkB0UCqxVZlKzSvIc1jxpT4cIzb7ljh/g+AF0HjUBSxd+iVG1aNB5ZnBQpDkMDaag8f4JOfPMDPfvEMA3cWZTpYY6hqTyUlhtj+J896jMr6LfZxDaEpcFfMsHibGyukG09UQE0Kp9uFFWYaeSR6ns4LOutjlFDVOcEJdbXKqy9nnDx2lB9+f4N77r6eDzywxLsOR9WdoMERFStCPaKTFeTdbjTAASSJDMTFbxT7Pfe3kEKpGsEhCN2ih5cYpu0WUZD5K18Z89qrI4rePpTuUTpPlhuqQCzcVMx4wo0Q9mTVeS237LlS0DZgqfi/3akkpgxSHlspRKKB9CGnpM+///9e5h/+6Y3kWaTnG6Ww2uL9CGPyWerphD7dELPqOKl6H9MQWYad5Kct48qRJUMb0pgUYDSONYtPPgWPPfY6P3/hOFm+G831vPbmFsp43nXDzZxe30IIePw5aU+lo7j7dFE4SzaLx7zd+Ly2HYJzMLmnIzFKhSzNeQ5bDFGc5nN/54MxbE4Vz54TrM22JWu9XVxAW/XtIQggAfEBHZuqs7GhKTqaf/mvjvLNx97EmzWK5WUGgxrxlsIWhFHJ0tIS47raycP5teOiVoASaejRmEWCUtRUTV4jmlgGkyaa1LUg6Gk3ey0NyaD1WZnqEwanKfIOrqoZbG7QLSxre1fRKrBx9hTdXDEanqTTLbnzroN86MED3HI7LC3HFGdSoqOZ4yb9lVvlaDEU0urk3niOKiBEPdSyrsmyFVwdRQjyHJ59Hv75v36Csxt9uvl1bA00IXTIOzlbgw2KTspFNGxCManzPDTKKNd0P7srCs200gwMAJU6iui5jgoBwYOM6XcdVfkGv/X5D/L5vwvjAayugnhHpmu0il4EYbbn4+SekVErHQEiCqVyvBjKCvJC4wOUkf6AEjh2HJ743jGe+P4rHDvSR+m9KB27piil0KagqoVyXNHtLqWQaWwaoJRCdNO+rAmrNsShCxAMZ8oV1PS1i+xWdLGlcJdXW1Wjk+coOnYbUpITtXlztNrE+Ze57/5V/tt/fBu+DvQ7qWWXy5mjKl80djysKgLidewrqIC6ZqWvcQIf+/hBfvTcEY6ub5GHVbTt4PwAYzNEZdRVLBwIFzlArlaESZf6lMtTEnvcwdSLRKPTazGsQ9RnTM3KTBPDEpJkV0geZozFF50Ow2GFVpb9h9bQwKmzW7h6RDfP2BwKxh7Aq4pnntvgh0+9yJ41ePDDd/Dhj+zjwL7YV1HNPbSOOUlrGi9u219I7UZkNkNSx3ljwCoYDuArX3mBM+sana0yHAu1C3SXbGq5FMjzDlU9ZUHqCat3gSsXLQMg05krdjwRlNJMKaMZdWXxYQ/f/s7z3Hzre7jrrhhRyI2dREdiApEZD1JBXIkHlTqAxzZnZeVR1mIzhckjCxoFVQlPPwtPPP4KL774BqOhA7VG3rkR5zKECm0DThxl7bCmYNfaCuPxMAUvPI2+qxaDzDTTbe7Ztkc4cXHPPUXXfPlagmrYwi0WeyiIIVUPusTaTR751AOxJVVHYumGT7bGEeUnd+pwdtpzrOukUuAkzqKVh9xQC4wD/F//74gvfe1ltD4ENqcuT9LrLOHOFmidobQjqPmGyFcPLmblFVrfb4StTIj/05K6xDf1fYAoR1Ae0ZHurARMyFCpVY6ogNcQlEzEuF3wZLZAKZ26xseWTJnOEPEoK5TVGLwjz2I9UQhDVBhh7IB73n+Yu967xr33wPJKrGkt/YDM1GTE5sDTLvA0PwZ0VLlwYYTRloChdjlWG8YD+PpXj/OfvvQMA38T2ANsbY1QpqDX7VNVFQGPsQpfx/6BjVj4dKXcsCIX1vJyoulwMi/m3rSp08rGdmD41PA5Lq5iizBQwWCyMT68zp139vlH/+gWrIKVPhjKpoV4GmPtHcSHd+PIbMXi0zrNExftgxG8/hr85LkRP/7Ry7zx5iYu9MnsLozuIOTUXhhXFSEE8jzH6AyXGrRbGxdq2xKOFJN7antjN60MJpHlWmdtkpfVF1nOdlV7jqSZTQVEOZAc5fuAxjBC2Te4+37Ff/1ntxCqmn6hyLAxmBQDEOc2y74I7HydY5Lw8V4wIpAbfOWwHUum4KMPdvnBDwKnT29g1S5cqu8VHd0Pr2br5M75nRM207RWTloj4kLtrq4KtMgsTVu9ptmsQCuG2f5KksySFEIVQ8NpbzqFhxQGivJKJcErBIXSMTBaORdb8RBQ2hCCZlRBpg257iNSMR5t8t3vHuMHT/6CL35RuOPONT74oXdz+3uWCMAoCEtatdrAtJ/jqtBocFKh1TLOGXQGR47C17/+DBJWqeuMzGSIqsisZjQe4H3N8vIy6+vrdDr55b+DF3jb0IZosDxAKoFIEBG0iaznaqx45aUTfOOre/jt39lNVUE3L4iSbi4ZQzOdDyblrx2cxOimqGgUT52GJ39Y8uRTP+eN1zcZDi2V75Bn7yLL+tS1ofIGrTXD6izdboE1Bc4FqrpGm9h5w4tgtZ4c86Qr/aS4cjvLpLf5uzGU1ypmksUzz9O5fBplMOJQZhOjz/DQQw+QKzBFRlVukufLIOBrj+nsLON3xz3Hybw4s9XIYPRkjMbwxb/Z4q/+6lmUvZ6xK+KA9oK1ecsYhFaurVl5Tllek7i/rgjKx5yTaLRMsmBXJc4nlDVpEN1elTbswIngtpptJE2Tl0zbPk+vQD2/3dYRNF/RSYUmyBitKtAlIgO0KTl0/T7u+8CN3Pd+uG5/DJNqiRNhlsa4MEYYU/shmelTwTLa5wAAIABJREFUhw7jUY538K/+5Ys898w6tjjEwPXwqtVTcgfyMAtcHVAiWGupq00yUyLhFPvXhD/4/ft54H6oPXQLh2cT8bFBs1bLcUHoofSAjXSw0RCefx5++MRxXnjhTba2NMquEkKOSJFy+2omWtMwn/V0Ffr28KuGSd9B43t+/pnOaK25p1FCm3sWFQhGMR6P6XWW0MFgg6UanaTbOcnDDx/kH/yX+1JbKhfFSUJiVE14F7EV2E7gEpRytGLuiknuDByGjNzAgw/0+fajgkczPFGRFyvYQjMsxxht4ppB0sQ+OadzP1h0rCFKahySCB8zPXmvQpzvsk6M3HlvJDX7ue22fSGPa9IPTm97czdsQ22WCKED4lBqF7Wr+PnPK156+RW++NdD3nO75n13HuC+e3exdw3qEMXolemQWYs1cWJSOiPvwl/+P2d5+dWSsTuAqzqYbja743fQxLHAhSFKxRC6E3LbQynPieOneOw7b7J3zyFuvBG8WLRaBeMBQx001SgJUwg89Tw8+8IZfvLMzzh1akRu91AU16FtzmDgyYoVmubXgYAoH0N4qWxAtfKibxuLMfu2ERD6y6uUg4qONQQ/ZNeqkNkhDz3UGMY61so2bcUUk0jZLAHs4nAJjGPLMALzvlBmYP8+eOihe/mbLz9Lp7vGcLjOrrUDDAYebRLdsgnFqea78UeH7Q5ZzHkIIAv86pgjucyFsUMIeO9RGvLckBc9nMsoyxFbW/CTp8c88+Qz/NVfam655Truv/8m7nov7N0LjpgLGoxji6znn4evfPU5Blt76HXejfIQpGQiLL7AtQXRiM7B5GAsWdbl7HDMk08dYd+Bgxy8LgoJhBDVbLIschxefx1+9KMtXnzxCK8fO4UnR0KHTrZM8AWjoaCUoddbYsrnStEWlfp1LOaPS4zWpNIsQOafk8ZNNa7IdMF4sMXeXZaNjdf4nd+5i8M3JhvYjizp9vav6DrHebRXUNODLmt45BMFTz7d4aXX1ymyNUbDEUXWYZpTCK3i7pSHnCTDp95NU9YQVxCLavCdQdv7n10Fa61RyiJE4QY/qlFaKIounf4qg60Nev1DZFbxwgtneOaZx1lehptv2cvhG9d48KO76Pfh7Ab8zZdeo2aNvLefcR1ZidYsrt+1iqDA2AyvLKULKNuh0zvA1uZRfvTUEZZXrufTn4atIbz0Ejzz7BFeeOENjh8b4qoO2vbQZjdogzEFKEsMs2UE0ZOokiLMpH+mqZxpGmeBS4mGeR9az+l1D74OKPEs97vU7ij95ZrPfm6ZsgTb3YZ0pNre4s4Zx0uXc2wrQzT6l4lF6VL084kfwp//i6/R69/GqVM5/eW9lH5jxnOYzTk2RlJHVqLoac0fgAoYWYQ0LgZKpldwO3jvybIMrRU+1JTliBAcxhistWhtqWuPd0JmDEVmySxI2MKFAT4MOXzTDZjM8vjjP2bv/lvodPdxZt1TFB1CGKG5etnKC7x9BDS119iiQzWqMAhL3RxXbiDhDPv39Th0aIWTp45w7MRxvINOdx95vptyZBkOKvr9HuNySDmuUcqQ2Q4mywleUXmHtUmRqQnDKUdQEsuhgB0tlLsGcS6t4TzGaj7nmOBDoNfrcfrYGQ7fsML66e/xR3/0AJ/5jQJxsc5aQSuc2swVl6DB1KU1jmmpJo3LG70DbDSQwxL+9f/xCk987xh5dhtbQ03W9QTlzlnBTRO9jTG0aS/RYAo6JtOT17nA28NbGUfnXPIeoxdps8jkC8FR1R6bdxExeKcRJ5HaTsAojzaewIC8UGAgy3NObwzJi2XOblQs95ZRob5oOvsCVycCmkFd0++v4MY11bimv9TFaqEanUHpCq0rbBZQ2lI5GI8ghA5ZvotunrN5dpOlbkG3m4MBX0Hp6lRXqZBkBKVRr5mQ2aaqUgu8fbylcTwfWSnN2d4JnW5OqErK8Wvce1+Hf/JPbqb2wmpPMGmenxgaPVXS2Ul1HLikYdV52SQgFYs3ak/awuc+926efvpVCu3Z3KhQUqCxF2A9JSjHpL0TOpVwLGIiO4Jt+2rGUdfpxJ50dV1TVSWm1mRZRgiBsnZsjUbYrENuO1EhSQHBRSlYEzAqY1AOqeuSvQcOUlWOECpWVlawyuIW8oHXLpSnyANBBigDeSe+FgKoLEcrA8pSupIgCp3l9FeXESkoK8XGwLGyskxdwukzJaICuTXYTANCCHUqu2hGc0P4UzRGcVEldLE4z+Jazhf2nNXKzbSmGg7YtWzQDPnUp+8izyFUoyRY391mu/qSOPuXWJrh3MIErWO9m5MRnQwOH4b7772J4dYRdq9kmEAUkBWTCn3bj/kmqI3I9Zyw7wKXDGVZopSiKAqKokBrg1KaLMvpdfv0+z2yzCDi8OJQ2oMJePGUdUVAsbK8ytLSMuunz7B3bT/GGJa6GWfXT1/un7fAZUZmoRpvUVcjbBZbtlXVmKqqCWKonUKpLjZfQrxlazhiY2sT72uKrmUwDqCh2yvodrughdrXCDVZ3lSKtyTeJqmaROZYqNX8GjHHZwAyq+l3NRtbr/DQI3dw041xgd0vMmo3QlHPEQZbf++wgfz1jIQ5NQiRMYXyOD+GAL/7O+/iwIGM4M4SfE2mO/hS0bFLaLqMh0Ke9aOWMLbVqim2ckqS2Av53p3CthNEjGUYY/DeT1RDtLaEAM4FfKjxMgQ1ADNEqRFKxmg8RgcyY8EbxsMavKawBeVgiFUw2NhgqZcvQqrXMLSAcoGuMXQzi3KBUDusMRRZJ3aAVwWIxbuon2qtJi802tYESmwWCNpRS4WTEjEOjEOUp/ap04NqLaaTcIYW01p8L7CjaPFFGk1dY9RkDjFWUdVjtA6IGyFug9WVEZ/+1DKrq1DVseY9txlRI257Ayk7PHdcYntybnLbuxqrFILDGo8xsG8NHnn4PSjWyTOPkoCvPcNBRW40edZnNHRY22NK/U1oD/TFxLoDeJvLL4mhK6XKaBQZ0zQsje9nIAVIB8ISSBcVYpsZnXLFetJzfYFrFUosSiwmWJQoTFN3K413Z1Bi0BKLvZVoFIKSEIXHVd16VMkYJpGQSZeMwPa8hEVM9eLQsCdb53ZuoR1LwWq01hirCFIR2+4FvB/R7QpnN17hs599H/v2xU12MoWEgCanUdrafs/N9d0ZXMKlUuukSBMTjp06AIKPnkRIZNZPfBye/ckufvLcOjrr0utZhsMS53KKAjY3hazIIFiClsk41klNZyeLPxc4X9yi/f/5uqWGHlWmfHBBM3kRiiiWPvPVIt5EuiRQ0wgOy04qBy9wVWFq9CIBT6NSD8jpfR2EVOYl6GTswkSeMNB0p0mfbi3O0lNTGpY4EIqQWO+X/vctAEoJ3vvYhYWA9468MGS5QvyIqlrn9tt38YmP92LD6hDplhJMJKxMrq2LpTqXcC19Ca3JtOwiIg5epcB7h8aiMWgFW5vQ6cCnP3MzvaUSkbMs9zV5HijHY7QGYyx1FWLwVOa8x4VR3EG0SmaAX2k1LTp6iKEgssfsZEUXVFR6OmdfkqElQ0sO2IsWTl7gKocYVMiYCuxPZRNDe04Rkz5jk6SknlNJOZ93OCevSMNcbet6LnBpEKJ4O54QHEHq6DmqKnIT9AjhJL/3+++j14fRuCQzMaJkjY3dNyRj3qcTNUmyTdSPdgKXNsg+kyydruhEDJntAbH7dqZrjM547/vggQ8f5pvfepVR5ej0VhlsgfMdskzjJcnsT24SJuoKTR3kheTTFngLzEvHTVbkb8EEbtitkoHfE69yiyqvzXCywdB0606TnxabwmXdFPqqW7VLC1yLaDrIBBW9hpCkIeMIbHmRM8L2EZO+p+fBhJmgYhpgOq1uL3qxwE5hel6Vii3ojFEorfC+oixLcjvkgQcP8/73RcnJIhM0ddRQjQqkYFOhowppvmibsJ11ki6ByzUbxgBmY/0iWJWDaMaDSKVeXs5wfgtj4TO/sYfrb+iwOXgD9IBOTwiuRGnIsjYdeFYUYFG8u1PY7rz+chClCVIgFCAm6d16gq7So8SbEtHVpM1WUC6JyDf1Z5fgJy1wVUCAoDxB1bEVm6rxpkrjpSToOj6Uj80GkNm5BZgdv3abR+NxJqScZNDxscAOY26xUbsSYwxKC8YKRZHjQ2QT7z+wzG//9vVUDrSCwhrKagiEKJzbkI0DxGvsgVFKy+w8Lj09a1KYGX+VeFDGQoi0Xe/A5A5jR9Si2Lt3iY8+/B7OnN3k7JnTZKYAp+Ohqu00VJMn2Qz4CZN1gbePC3iKkxxOO1w+/Vt0lcJTkSEY0VrUKD3JG2lCKuIVAi6FRBaLnGsWKgqBh8YrIIASppWJ7ZKL1hiZtGcDJJupkT5nsZXGr8znJ5VLjcWv7q4+VyRaddMiQpZZRGrqqowt6Ais7d3Fxx7ey9peKIdjep0OGjAmzuc+1BiTT6v2dNouI2KH42zHRQAufbJOMUvltTmSrL+xMBqNQQSNwaamvB9+EO684xC+2kTcCGsDylTU9Thus10DSUqqq9BaRS5wcdjOMKZRt23Xjum5V/jIGiS0xmnr+oeWrqLygAdVpc4IC8HxaxsyYxhnc4Dz+USZPoh9S7fHfPQjkcdS+LUxpIt04w5BhWloO5XGxLxuzO1qDVmWIU6ohp5QeTJdc8P1mk88AnUFK/1Y0rW5uUlmOoQgGKNoGlrPGkB9yYzYjnuOahK7n38nY6JmY/RkvPZXO+n1ZTSBnBqbZ/zu56/nF8+dYmtTGNYjlJEUX+4y6TKvHFGo3E/q4652OYDL2slbBWSeJj0TFrnQxuPnpuzh5mDaQ1fNfFY170veWtFf3NLvau+Efm0j9WuV6E2E1Bc0zE2GwJznqCd9Xqe5yQZzheYpagEQgkKnCumpXOViALxdRPnOEJnGYgmYaSQgwdcVvV4PcQW50uQBtD7Kn/5Xt2IsLGXR3ClgZXkXENA6m+YWZ/LMkZyjGqujdvbq/Rppnk3IomU8Vfu9DDAYKnzl2b8X/vDv382Zs69x3cEVyvEWRrcFgpnNiTX1TFe1abwCoMLs41f9egpvTR+q9Zhb8KdvgDo3F7TANYpmYjCxMD89Tx8qPmjFI2TOpZgfw+cZ000B0jnfX+BtY3IG5851o2WbZRmj0QglgX17lhlsvc6f/IN7yA30sxpzTsQptrmbXJ6ZzEvTdcVekqt3RdVAxHVcgdEaZeD998PDH7+D1994ltWVZULtQdVoNQA9iszGGJmOpQIqLFb+CyywwAKXBSopmAGqBNWkwXQMeyuBINTlmF5Xsbn1cz740T3c+wAs90EThR2uFFw5RwKARmEprEJS/9Hf/4MD9PslwW+S56BUGQ0k06a4O1nbssACCyywwK+OWG8YpUCCjizjpjcvqS1YcI7lXoYPJ1netcnf+/uHJpS+cIVVcF15VkUgeI/VI4KU7NkD//BPH6Iqj2DtONW9OFCN3FijrNIUgC5cxwUWWGCBywFBR/INpFRXjaZGSwyXWm3QqkTbE/zOf3EPBw5Cp1thAKuuLGLUFWkcjRGgprCBysG998LHP3kn5fhNNGVK+pJWJHXKNaoJe3WBBRZYYIHLgEmeMZXbKIfCxSxy0PQ7GeunXua++/fz0EOWst4gV9U5nOIrAVfY8QRqNwQEXysMlk4GZQlf+MIyt97aQ6tRFKqW1PRSVaAcAUvAblNmsMACCyywwK8DTUFXkG5sMpC8RxPifG0oOXy4z29+7t0YBUbVk3hfuIK8RrjijCNkuQFCbJZLhsaz1IV+H37r83di1CZajWOrKpkPoi5CqgsssMAClwOBpp6RVOOopuUdBAxjnDvO5//OXRy+ARQlRZrnq7KMTSmuoCn8CjOObSmoLK00TFxZKHjf3fB3f/sBjDpLVW6y1O1TDQNFvkQIgSAXLyMkIhd8LHBhLM7fAgtcu3DO0ev1GZdD8jxHHOCgm2l8fZpPfeY93HFnU5UhhDoDCvKOAWquJBGXK8w4zneEaFc9gVFw373wwAdvoNep2Vg/xnUHDnLi2ClWl7so7Xg7tXkLLLDAAgtcPFZXdnPixAn27lnmzPpJlpdWGA+GlKPjvOc9e3j4YThwIM7nSiyFzZOETqB248t9+DO4Ao1jlh4JMq35VAquuw4+9ald7NpT0+spjh89yb49+9garGN1RRSjXWCBBRZY4NcLzfr6Jmtra5xaf53+kqIcjVlb7ZNnZ/nCF/azbz8YDb6CUE/7MXrvybIri1B5hRlHptqdE0WLRpYoeY8adu+B3/vCe7HZGZAB1gSM9jh/adTZF1hggQUWuDC0QHAegqfXNcAQo8cIG/zBH36AW2+LDg4S2atZUoSLomeKX0cfjF8FV55xnCAAU9X8RjnIe8fqKnzwg/Dghw/TXxlT1SexOmDUFfxzFlhggQXeyVCB3XtW2Tx7mm5h6RQw2HqVe+45wCOPwLgECSVGeSZOoiI2UlJNE+MrZw6/co4koVFwnx6aTzJxNYoaRYVR8P+39+ZvllzlnefnPedExF0ys7JKtUklCbQgkBAgGiR2oQUENuAFM+22+5mZZ/6s+WWeefoZT890z0zP04sNbXts08Y2NliIzSAsQBKSalMtudx7I+Kc884PJ+LeuJlZVbILkVlZ8X2ezLhr7Pd8z7t93zrA5z6/xgPvGqH6JnVZ4SiW2tX06NGjR49fHarZJsNRxsbGFnW5zUPvPs5XfneNAAxHkDtoDZ+6ruYeQiOW0Cvk3ABLYuQCVKSeXVOgIrc5AHkBg1X47a/cw8nTjuFggK8PWC5wjx49etw2UKazqwiBtfExnHP89//TA6weg1kdMMbTJlwGf5XIJsk7aIiRVMpxgHDwyLFF2xNsxy6qCiFAiLBSwDvuht/80iNo9QrjwTR9UV1aSk06+drpBG6alevivfkG+1KDHj163L6I8+Z/7fiY/kS101Gn+x6ghqgFqGV1ZMlkC6NX+N2vvJdjR5O5sjaWJPfZjOs2KyiKAoCyLKm8P3B2zcGKgLJTW6/NXm13UxCxGIXcJEUF8fDhRyH8qwf4X/+3b4B9gsCQwciztb1B4YbkbpXLb1asrx/B16mbh7adxjVn3nwXELm+PuuNavVEbu4K32xXkbd7/24Ic/313+z044a1kjd7/vf7/L3NOOzHdyPs9/G/7ePHTaw/YohqQRSlwkhKcEzt5tI4mWUZk8kGkinGWsqZ4LI1MpdTzWBoStS/xjPPfZQnPwE2A+/BZoGoNVaKRlZuON9uUSThl6STfXCE5A7GXuyF+TV0NHmqdLt4C2CahNZRAY+85wife+69xHCRzFVcvXyR9dU1NML58xc5deoI02mFSitQ3nYTb0hyuVFYjx49evSYt49P4iy+KimKgmFegCrWWrIswxowUlFOz/Kpjz3ERx7PEAOqkGeK4LFzYm4qEmKXCA+e5+7gkuMudIr7267xujidp04bnnrqPj7w2DqTyU/IjSJxSKgc49Eak2mJZL65xBmRnIhttP88ohaJWa/N2qNHj9sSSeatSr0XcRAL0AI0a/rlQuVrjMkJPkPrjNxlWErqagORc9z/4BGefPoUZ+5JI7YYECp8LJmTbNf+iDRj7sHLF7nFmKArL5cCuKZj7B0/Dr/+a3dx3zsNuasptycMsjGr4zW2phsYE5t2KiZ18FC38GPqwTHne/To0eNXD8UQUvO/aNMYGQuUrGkJCJLl1CFSlYqRjMIaqtkFNLzOnac9X/jiI9x9L4hNNelWPFBS1a36TWM17jISd6uj7TcOzp68ZUSk9asC1iWfdmgMy3c9AF/+rfdz/EhAqw0sytbWhPX1dWZViUpLkK4hyEETd+zRo0eP2xsWj9WYSuI0S1aj5kQxRDFkxSCNnSZjkA8JYZt6do4zd3o+8+wDPPZYsjfqANZ6YEakIsuuk4o6J8qDRUcHa2/eIoyFGFN2k0giSGOT4oIFHnsvPPv0ezh2xDOdnKfIhOg9zjmQSJSIIigZUQskZhgiBo8cIOHbHj169PhVYZGN2rYETISoIigWRahrRVXIrSOGGb66xLGjgQ998BSf/rTDGAjek7kKoUYpsQiZKfAxkEboWwO3IDkqgqAEQqjnCgsirQCRkik887ThIx87ydGjUwZFxebmJnk2YuGWNclibP3qRJDWL96jR48etyHUJauxle9sjQU1oI66iinjVWq8v8zRI5FPffwhPvGxE6nAXyHPE5VCRFUQMsCm8XYvl6rQvHawDJNbkBwBFJFEkO0JrX2dsqeMUOQwHsKznznCex5e4/KVH3NkxVJXE6TJVW1W08DME3P6rh49evS4PSGI2mYZU524tPWMKWnGOUeeCcZMMFzmnnsKnn76GGfugnoWmgbGgiGVlTgZAhlKhjW3VvjqFiTH1MTKiMFZR2sJZplN5mOTeTybzjhxAn7vX93FR544xYULP2J1LGxtbLI2HmPFsbW9RZaDczCZbB2KfoMict2/Wx1v9/H15+/Wxo36ie738R/s+7fxpqkDCVgXKXJPpMR7j7UWUY+RKZsbP+Pe+3J+//cf4M7TMN0OjAe2KbhzCBlORghF85cjrUu1uxvzx8vJlgcBB04E4NrZvItC/d1o6xSZ15EORwYVGI3hyU+/E68DvvXtn3LvqUd44+ybZMWIkydW2N7cJsaK1fUjhBCI8RacL/To0aPHzUINWT7AVxVRSqpqQtDAaOUIVgq2Nq6yulLw5oWX+MD77uArv3M/d9wBVQ0ro6aQX00zhP9Tx9GDQ4otDh45Xhdv4YQbUvpqJgg1WS489pgjK+7kwoU3Of/a66wWx8FEpltXwMzIc0PtHaq3TrC4R48ePX7ZiAozXzHILSujMVvbV6gmGwyHkVERmG2/wv33j/jsc/fz7neDenA2IsZQTzzZYG/Xqe6wFqVZpvqQeCBTPW4RM6lb/3KDpWkklBqik7iNAd7zLvit33iU8WCb8aBE2ELjJkURMFYpa09Vm14EoEePHrclVGBrOsHmGWoEVWU4HJJnSj27RIznOXq05De/9B4eeyxZjGICmUtWnzNNH6prid0IC8/gLg9hW/94cMbfg7Mnbwk3IkjSrKTIIKQTnTmHxhnWwEc+DP/dV95Lll2gLs9x/PiIEDyTsmI4WgOTUpd79OjR4/ZDpIwl4/UCH+DihatYzRgNCgwbDPOrfP5zD/PYB6HIk1xc4RITTjcnSC6NJcgyCXafN9tZii/qwSNGuOXI8QYQCCG2iVXEAIaC3FhiWeMEPvUkPPX0/Zw4KVy+/AYhRIpshRD0UCTk9OjRo8c/B1EixchQ+ZqgwnB0hBDgwvmzrIyUz3zm/XzyYwNGw1StOMxTd46oSjZIHTb2zBlZSrrxLDp6tOTIQQw5HkRyvEbGkr61v6AL7T4Raep2MpyxhBpcBp//tZxPfvI95C6Sm1Vyd5TprESs7L3tHj169DjsEMUVkUubl0Ay1teO4mvDynDE448/zGc+u8p4tVHRYRuhoiwrjDhcZqmquimHa5dtaZxnmRTbZg87cMBsk1snIaedfbRm+zWWWe6og8eKwRhDqNMMIM8NSLoseQ4f/WjG9vRh/vpvznNl8xzDwRgxEOrUuiX918XG2ywsbXpANgWy2pqp6khbCn2tZI8ePX71UEMkqYAZPAuTzCAqtHE9nRf4p/EtCqCSkmYCmBiwxrOxuYENl3n6Mw/xxS/CeNA65Wq0We+gKAhBiTGQFxlphCXJ7OjC2BC0w317aKgewCqiA0iONzBmdwZ0dwV4Pc4u1mMdS2a9BbankdOnHF/6YsbWVs63//4XGDlG6YfUoWAwXKUsr+KrktXRGLBU00DhCqK2YgElEIlkEIdoHKYN2RKo/vmHH2+u39vN9ou7WdfyzdZqxZucPspNzj73s58e3Pj4b7h/N3v/7PcgdYP9vyFusP/7/fu4WVy/H6NDNbk3o2xjpAQ8ogajQ9AMYxylL8F6nBPUKMEHFEvGAD8tOT4+xvbkNZy9xKefeoBnn4X1tTSiOgHIEBo3qpokMG47ymPznd2x78Au+bhrjuP7jwPoVv3nQxsFgDh/vhMRIbIycmxPlcEA/sf/4QSf+Ng72bj8IqO8InNKqCuMMYxGI6zNiD4QI3jfNuPcveXFTKy3Gnv06LEPkOV2UHFXpwtFNZDnGcYIs3JCVVUURYGzAyaTCYUFDRuMBxMe/9BdfO5zx7jzFNQVOJPWirrUi3FXTXg79pl/wh/XSNrZf4ju91Tolwht4pURg2kbI7fXSwDxhFhhTEYZMsSmbh5nz8Ef/udzfOv5VwnxNHUcYk2GqlCXNcY4MlcQY+xI1iVCXIjRpSt70yoXveV4c9vvLceb+v6tbjne7P7fypYjzJv5Nc8MptldoQ0DeTCKMQYRoQ6CrwUxGQMH+HMEf46PfuQ+fuM3TnDnnclatAJVtU2RF7szSxtiUyJyiOytA+hWvRnsUdrRhaabpKq3ybIVFMflK3D6FPzu757Ch4oXfnCZMC0xsobGAl/DcFiQFTmbk02MWZ71GI2NLuu02UjBraQ836NHj8MCxUgFGKIOQe08f6JNlIlaIQiiOUJGJhbrGtm9sEFmL/HeR47x3HMnOHUnBA+RwCiPCE2+xZ5bhkPmiDxkRwMsHdIu9XfFGKHIHJaSEGccP5aaco5G8Hu/dw+PPXqElfFVyu1zGAkcWVnHmoJp6Skrn3pBCk0LF0vEpYC2hEakt0ePHj32AylsJBobi9GkJsWiRBuItkacYpylqoWtzRpfKePCMXBTyukrPPLwmH/9+w9y333gy1TPOMgDW1tvkufNpL+1Gg+Nz3FvHEJyvAaUxGohXdGy2kbiFMFjgKpKQecv//a9vP/ROyjyLWK9gaCUpacqIysrRzrkuFhleiFJ7vbo0aPHfiAl3pimFyMki7Em2IooniggrmA2E4QB62vrSJxx4exPcOYCH3niNL/9mw9x+mRypQY/wVL8PW6EAAAgAElEQVRjqMldS4zdDe5+6TDhkLlVYVfG1BJMyluWQJGPAKUOE5wdsjbKmFVw8iR8/rl3UNgRL3z3KlcuvwlxBZvlWGcpq8ZNYUKanTUzNHQAGkF6l2qPHj32A4KEYXpoIkZqvE31hioKWHxVEGplUAwY5qDVFLuywfved4YvfvFu7r4ruVKRwNHVjBiniDHkgyF+VuGKNkuVA5tI88vCISPHroCAWdQ/tlADrmChzhARDah6rAiFE7a3PPfeW/ClL51gc7vkB997E2cNdYhcuVwzGA2TG7W7WkxKAtL0rK9z7NGjx68eBjRL4SNKglSI1A15ZRALyplhfWWIenj9jZ9zdH2Dp558F089fYy7z6Qy7mEObea9MZboa0QNrlhZuFTbJJxmLIzNf3uIvGeHMFs1NLZjcnNKt65jXkvTkGhbqCrQJtlEhbICm8HlDfjqV6/wF3/5EltbK7jiNNgVLly8zNraCiurA65cuoIxjrWVFba2JmQ23hQ53ijb8qBn090sbjrb8NY+/H0//htt/23Pdn6b9/+G2z/g2eDX3XZ0FGaIMVDFq0zDJuoixWAF70dMJzDMhuQWQnmePDvHRz96nC9+4U5On4LoAwNnm7GyFRFoF9IQ43KW6oIc05hq9yrwv0VxqMgxpSq35ChNWrG5dunhNe5jBUoP0cLmFnz1a6/zZ3/+MsHfiXICNWPKskQlMhwOqKoZdRkYj8f4arsnx5vAfpPDfmO/j78nx1uYHNVgQ0aIHnFT7FDAGqoKQj0EzSkyw8bVl7nj2BZPPfkOPv3pFe463eTX6wwneadMo20ltQfZtfFGSZ+LBEAOFTkejqPYAUNEugX51zrKri5r81wb2b8iq8nNlPU1z3Ofv4tf//WHGA0vs331NYYCQ1dQTzzldEaRO7KBMJle7l2qPXr02CdEAiU2i9jcol4ot8BPDE4zVgeGydWfcvrEhCefPMlnn1sQY11u4cQ1NYw0f9cguqVYYzeUdYvPTHfgkMUcIV2x7gVtEnQMy0TYfrSrzQr4GkwG1nqULaow5djqXXz26TswfsBf/H9vcP7Cz8iK4xxbG3Fp800wOePVEW/ONnBiMfteSd2jR4/bDSpgHJhMiFEoS48ExzDPMZSUk8ucOD7lmWce4KlnB6yvguqUgGeQj9Bg2dWxbykctXOLy00izCHLzDlkblW4ZlePpuZHdA/NclmEH9WDseDjNp4NCuuIDJlMVygy+G9/Dn/4hy/y+jnPytEzbE9rtsuK0ZExxhjqMt4UOfZu1Zv7fu9WfXu337tVD65bFRRjIHhPDJDbDGcyREoMV7HZRX7ryx/kA48ZTtwBwpS6njDOVkALqhnkg/mqFlhyobbYa5w1h0oh5xCSY4v24rVq8K1F+VYvXg3UCBFVQXWMKEwm8J0X4I/++Ke8+NIVXHEcsjEzH3Auh2Bu6vboyfHmvt+T49u7/Z4cDzY5qioxRgo3JneGzasXif4Cjzyyzkc+eopnni1AILMzHB7B4r1FYo69Rql2m4+zwE5iXIyrh8l2PHxu1XmXqVSP2DRlIUUiWwWbvQRzF8LhZV0zzFaQmDHZqBit5YjAlSubHFlb5SMfBVPcD199iVdfn0G2SpCc7UnJKB/Qi4/36NHjVw8hqCXLCqzNqKpt8qzk3vuO8umn7uFTn0pqYEGvNiHDHHRIPQsY6XYwSuPlThqP8/8LJTCzK4x1eHD4LMdOC8ZEjp2+ZaSL2QqTt5QZm96NKR25xmCpy4LMGNqJYF3PyIYO1XQDBoUX/xH+j//zJX78jxuMV+4kMMTXdHcg3VDz3mbQzrLM/KwnbVZp+6DpUo+tXegtx+ujtxzf3u33luPbbDnO6whDIxbevpZIaP7tpgtQ24txbrmJkFkotzeI4QofePQkv/b5O3jf+8A50LhNZgJgKWeKsyvJYgRmZWAwtIBvGiosk14aJ2OHOnd74w6T5Xj4yHEXFlbcItZoduTixOaiBlIvRgO06vPNl5t2LUqk9IJYCxFe/hn86Z+c5bsvvMrmpGBw5B1c3apRYxmPx8yqkhBqisGIyWRKZgagGaIu0bOUiEwxsp32Vsco2a/m1PTo0ePgQA2ijqTAVWLavrDqUnG/5niN+FgjxmNzi1hD7ZXaOwyB42uOq5d+xrCY8fiH38mnP32Mdz2QiNEomHn9op0T8WJCETvkttsaTONlXMrROaxWI9wW5PhPgSfFGmEvcky2ZU1QJcSMzFhihPNvwDf+4jJ/+VcvcX57lXx0HAWubG5w5OgxxDguXrjC6dNn2N6sEDVzMjZSIZRNY1KIOuzJsUeP2xQSXbIKpU4df4A0+KSAoBrBxxpjFJMZKh+YlZ6sWGV9Nef8q89z6jh85In7eeaZo9x9d1qD+ophJnRJsYUKRBJpWnqN6BY9OS4huVXnMkywgxw9NTMsFiWj9o6skVo9exb+/nn49//v91hZv5srG5cQZ6m9EmLOsfUznDt/leFgnFwmMgWpMCgSLWgOWLSvk+zR4zaFJmUaNaAFog2RSQApQZKAuHOOGIRyFsA6inxA1EBdXuD08ZJPffwhPvVJy9E7UozRApaaGGusyRtLlKUs1MOocHOz6MlxCU2wWQVwu9OZxaPUc697wBJ9njqmKXgPz38P/s0fvMDWtmcwOIb3BciYq1dr1tePUfopSA1m2mzPYUIBcZS2KWUj3dSjR4/bC11yHIJmTc5CM16YEqMRwSEUaICoHmtm2GxGnm/yr//lB3jkYVhdAw1QlRWrK4LDE4LHmiHzsW2JHOGwaaPeLHpyXEIEbbt6mD3IMaKUVJRAxFGgDJPwuAcseIFXXoX/5X/+Pq/8PLCy8hDTKRTDgpnfBDchmsZ1qxbiGLSAmNTuTU+OPXrcvmhUaWJDUmqqxnJMY4KTIfU0lWoMB4bJ9i8I+jqPfuAYn/zEgzz+wTRJtxYGGQgejdsIijUZkDfxS/Ygx75Nexc9OS6hKenQDjnuaM3idYKV2FiPAFkTI3QEFknOG5fgD/7NVb7z7UuMx2fY2NokOo8rPNHUTSePDNVxIkZN5CgyxdCTY48etx0adyqQxghTo1KlGGSTlGPCEIslViV1dY5j61t84INH+dRTd/Huh9IwFUKa3mfWYymBkFxbYoBhkxHfQHpyvBZ6clxCW+9oljUGSS8h4GOJNcn9GlDq4LE2w1KgQMWMsswY5QO0hv/yn+GP/suLiDlKFRxqlGgiUUK6KTVDKVAdIkqjZtGTY48etx3UQRyCRKLdQs0UNZ6Ig7CCiUPEG3ILEi+zvnaFxx8/yjPPrnPyVBqiQog4azDU1H4C6smzAhC0UiRb2eUR692qe6MnxyV0lB+0E3PsWI8qUPspiid3bv4trxEjqXpSyYGM2kM1heefh6999Re88uoWeX6MIDkKhIZ/g7QJOYJQNxWYPXr0uK2wFzkKTfhlFYmWgbNMNn/BmbsCz332nTz5KRgWqcTC15N5cg5EzLygv1k3dpfVCH1CzrXQk+MSOuoP3WzVneK70v18q8KTbqgQFWsECMx8TeZGBIUffR/+9E/f4Pvfu0Je3M3mtqDGkQ8LKj/FqyfLHaHy80JhYwx5nifN1rqmLEucO9iiRjdbJH3Y0Z+fHteEGkINGKEYCHX0+FoRmzShh4PIpTdf5FOfuJ/PfOYYD96f4opOm9FnPolvBUXoCJDsSDCExYR/3nKKvpSjg54cl9CVRrLLdY5d7By/us/nRFoy81uIs1jWmNWGSxfgG39Z86d/8iNqf4x8cIKt7RKTZ0QtiQTyfEiMcT6IhhAIIeCcYzAYUJblL/mYf7noB//roz8/Pa4JNRCFoijY3Nwkz3NcZvBhm+GwZmPrJb785Sd414MZD94P4zzlzEsAq02T4r3mzrrjcVesa4eKmPTkOEdPjkvoaqx2imW77tUWe41hAhojGEXEokSCVgQCVnICGWfPwrlz8G//4AVefTVy7OgDbE0gywokN0wmEyKJDLMsI4RAVVWICIPBAO8PdjyyH/yvj/789Lgm1DAsRpx7/RynTp0mc8rG9uv4+AYnT1f8+hce5cOPr7E6SBxoiRAUg02ye6kyrJX9uj7mHjDftGZoxTV7cmzRk+Mu7EjKaXGt2VcXTbmH9x6RDGulQ5AlVnIiQy5dhYsX4Gtf+znf+dZF8uwM5WzAYOUIk3pK0ESAxhistajqkgV5kNEP/tdHf356XAuiUE5K7rrzOJcuXkZkA5td5h3vFL78Lz/A/fdDZioyaoQcjQaJFtsMUzGmdntAVxuzs4Hm+XxY2925SPqY4xw9Oe7Ejc7GjdyskgbAui4RsWRZ1vlaZFJtk+VDIo7tGfzJH53ja1/9R2x8kKubhvHRVcgsdV0znU4BKIoCa9NrB33w7Af/66M/Pz2uBVFldTjg/PlXWB0HRsMJH/v4Gb7whZMMRjDMSqDEkjUiAe0XAYmEWGHNYCnUuNS/VrrtEPbuedsT4wI9Oe7ErgSczk2k17lxms8FBSNJOzXGVDNp2q8JTMorFEVGwDCpHEYzXvwx/Lt/+yJXLhec31CK0VHyPKeua0IIWGvnFuRBv1z94H999Oenx7Ug1IT6Ernb4tgR5Xd+54M88XjSJRnkEXSKSCNtGZMHSZsMepG66ZphuX4nwkSMssSsPSnuhZ4cd6I7oWpmZN3+ZfObaanllJJEyw2VB+uK+a0mmopyNdaoxBRHVJhMA8UoIwQQgctX4d/9+5f4wT+M2NgaE0Igz3OstVRVRYwRaw9+iW4/+F8f/fnpcS2IbFHkZ3niiXt57tk7WF2BYQ4rRTMMtWPTvPY6EG0AWfTTWPzfi/AWY5mZxxh3ZLL2t98cPTnuRHsDLlmOi2yu3XdPG8xuu5xlxGgIQXEuefBTeUcEEeo6kLkMBeqQYgRRYFaCy+G/fg3+7u+u8OJPXsXYEcPhUWYVhCjkgxHe+8Zd0pJyQuoPKXN1n25rGZXYcbPoDXre3dyvox/8r4/+/Bxg6E5CaQYD2clKLXZcK3VJLBxQCUkTVTxROqpbGIwKok2mKRVIjUiNMZf4ylf+Be97H5w4mdRqYgV5Ix5OTXrQbtZ5kJBqpZsOi+3eX69vbXf/5zHGnhx3oSfHt4S3UpTf0WR9K2jLj7praHj2xR/Bn339RX7wg4tcnaxhspMEVqmiQa0hiieGElWPldSd0mAxajE6SK5cIlG0WUaMLj/ffUxp37WVAurRYx9wo2bHNxyuzE3cu+qQmJF+C3HhNVpadj/f/a0YiAVOHXUN6ipMPsXLJlWYYF3OcLCGLx1+6nEqjItIrC9gzRUe//A7ee7zpzlzDxjDvMn6fAs7M+bnXq3ll+m8fe2+tV307tRroSfHgwSFycY2o5Uxsyn88Z9d5et/9TIXLltqOUoZBoQoRCNkuSN3Fg2Balam+iiXQ0gz1+bn3ZAhDTkm+ovzH9VuguzJscd+Yn/J0SCaJdKT1lvUIUkgNR9YJH6KGlSSJYjm+G3LeOxQG9mur2CLwHhtyGRacv7sRdZX72CUZxTGU09f5471kueefZSPfWxAUcBgRP/zOyDoyfEgoUkGmk3AuqT09NpZ+L//40/5zvdfw2THKWdDxK0QvMXXQp7nrIxGlKVn8+qbjMYWJCAqaeaoDsWmHzEG0R1uox1EeX2Xa48eby/2lRzTFto9ueYn2gBK8sjQTD4B8YyLjM2rm0TNGI3vQHFsbNVkxnJk3RBCyfbWq4ie5eMfvY/f+tIZTp+GGGBQ9Lx4kNCT4wHDbDsyGBhUYHMCxSil+vzdt+H/+g/f4M1LYOU4sE7wOd4bRDIyl+MypQqXQKrG5ZOU/JNObJPFpgs3kCxF+BNR9s2We+wn9pcctZFe69Y5m4b8ZNnPMt/RxeTSSA1hi8FggGGNySSjLjNya3EZwARjLnLydOSZZ9/Jhz4IRQ6jQSLF6eQqK6MjN7H/PX6Z6MnxoEFTMW9QMG6R7rO1DVsT+JM/Ocv3vvs6v3i1pBjcSVEcZ2sTYrCM1gbM4mUwdUOCpkOSHeWLJlZilmLzncSiniB77BP2mxyjqVjkDwBqmkQ208wrd8ToOq4WocZXVxgPhmR2nboyqLc4G7GySYhn+eCHjvOFL53izJmUkDd0IHiCr1PJluQ3sf89fpnoyfFAoRUyX7h2QlSCF1yW+kXWFfz98/CXX/8xP/nHq1T1ETJ3nDqMmZUVdmxRE3YPMrv8pW3mXPd5T4499hf7To7dZDWJu382nazT5QmoQfAMCmWytQkxklkDYcZoUPPIIyf54AfX+fjHYWMLxuNIkQWUmhQAKQhRcSa7if3v8ctET44HCh5lRtRACJCZISJ5siYDTGeR0dgQNNVF/sXXr/DNb/6CS29mIHegss7Ut13Eu9l2KeWbtk/kUmo5dH/ofbusHvuJ/Y45RloLsVO/vJTdvSBDtGk113hlREFDyZGVjKiXmU1f5eRJ+PhH7+NjTxzl9CkIEXIXEWqqusJaS4iCqpBngz7meIDQk+OBQk0VN8iMRSggZIRSsM4uqkQizOpAVliCws9fhq9+7QLf/e7rTMo1jDlN0GHzg/adH3ggSoccW2iHIJsarB499gv7SY6pCtDNn81JsRtygCaprWM5NoRpiBS5YWvjVUYrEz78+GmeefIkDz4IGRD9hMwJ6j3gEOtQFaTt6xpDYzn25RUHAT05HigkyzHpXQwhZrv1B+IMMgfimFUgLs1Gn38Bvv6XZ3nxxyXIOlXpqeuAcXmjrCNgpNFnTRl2Ipr+jIJJ6v5ad6uMf/m42SL4m71db/ci+4MuQnAjcrwRIv/844tNKVNZe0RJClWSNI0BnEtqVYPcISbgfYk14DIIwVOVV1G9yuMfeYAnnzzKfffB6hCcBAqaWKYWKUGunZ9aQDxKCSjCgOvLv/X4VaEnxwOFiJJ+iEIG0ewhzlM3FmRkFkFsARYmJVy6DN/6Fvzd3/6cc2cvUwzWib5gVgKxwAeDzYa4PMM5Qx1LZuU2IZYYB7nLwTcdw98m9OS4v+jJ8folGrN6xmi8gpOC2aymnkWcyxlkNhXmK/hqgsqELKtRmaBxymicsXZUePrph7j3Hrj7XhjY1FbKMUntpTAQVhZZdq3haSMwaeone3I8KOjJ8YBhzoOtALp2XmwRFUwEZwlEAh5tXEIBuHIZ/vzPL/KNr3+PulrDmhPMpgViVplMAMkwmcFmIFlEmeHDLLXEYkBPjocXPTlehxwlkA1gNpvhS8HIkMKspZi/Bw2wtgpbW1exdpPheEYIF8iHM5544hGeevYUJ04tFN7ScpsMkkxbNMly7Ib123CJ1KQ3erfqQUFPjgcMqns4NXdKR4VGnSMDlZKaGUGniAyAI1ReyC2cPw//8T/8jOeffxXicWq/wurqGSYlzMqKKtSIjUgWEZMUQKwW9G7Vw4ueHK9PjmW9QT7IyM0K6g11aSBmZMaRmchk+wLra4LYKxh3iUffd5Jnnr2f++5rOmQAIhGlgliTi+CkKaMKAk2C3Vxmp/vX40ChJ8eDhmVd4OZH1GaXLj4TAkRqjI1J1JyaQESwRAquXqkZDsZYB6+8DP/pP73KSz+7zOVLEbFrmGwFMTlRDFGV2NRwvd1VHD057i96crweOSq132a0MkSiY7o1xRrD2ngF4oytq+c5sgrKFd79ruN89rn7ePe7Sfk4CtZCjIoxEdsw4LJ0QMuITdup9qUueqPxwKAnx1sA3QtUljVFkSFACIEY/byhctJ/bDJSKVA1bG1DMYTaw/e+D3/8py9y4U3PmxcrZlXOYHCMfHCEqIZZ5d/2Uo6eHPcXPTle//iK4ZiNjStEXzIcOIQZZXmZYVZybN1yz5lVPv3ku/jAY2AFyhJGIxAiPlQ4m3e0Wds9aqQZiY0UeKNfrE1ssbvLPTkeGPTkeKDgoUnIgQIwaKPd2GJWbTHIs+bnZVDN5qWMGkGacGHla7JBhhiYVDCtYLwCPsL3fgh/9Y03+MEPz3HlikPkKFl2FGszYqzeVhGAnhz3Fz05Xuf4NKeqM0KoWV2B8Upksv0yZf0673/kJJ/85Ht49L2OlVETlQ8Qw4w8b350KhAawmtcpZGIagAjqFhsx3+6eLSjjrJnyAOBnhwPFDxQNo8LwO0ix0Senhg9hgwrg8VvS0F9Cmu0LtkqTMmKgoihJuXyqMD2Fvzox/DNv7nEiz9+g+m2xbh1fByhWJa6EiyhnfWmH/CiJU5Xj7JBpxdmq9m6uN3m7aCbLaQ6MZFUXya63HKn/fzu23XxicXza2O/B//9xttPjnsId+u1B3shNvJsN1rf7m8mdCUR0/G165sX88P8fhaRTlea9ruNAIaCVcicMivPE+NFHn7vCT73uft4+D1p4jlwbe+aqslAJflUvaSajrZMo21uI4ujCOxOdZP5jzc0X+rIPPbYV/TkeKCw9wxS9/iMdD+zV0ZrO3a0pNR8fk55PhFlOYOf/xT++q++w99++w0oPsJkNibEGdZFxNRErTEIzhVUZcSaAUbytO0QCYTUV9I41LctfzxIjTbLaDwLkjRE7Fz3VZvHgsfKFKRO3Q4wGDVEacl4r3OSlBHaCYRZ6rHX41eLRTu0+XVopdWWrkt79eKi3+jc+ShL61tWp1n0TDVq5so0Xd1gYwxBFWJMn7YgAl6n1PWMbGipQ1KmKYohUS3TSYXGjHFWMtBf4OJF7n/wTp797MM8+r60S3UNRZF6LRrqDqm1rtGW9rqTw51n51p35s701R4HAT05HjbsMXHf+ePTCN6DNQtBke0tOPsm/O//zznOXjRcevMK3keyrMBImhGrGop8TF1F6jogYhGbISKEEPDeM8iKZAU0yjwqkaTO0+jGymI/YkejUsUgGrGUmLZ3XhOfiR1S3HmY8yPsyfEA4J9CjrGZqqX7A5prqLbxGLQW5U6ChIWHwqbJU6PsFAXKssQ5h7UWVSXGiAi4XHCZYTbbRjIlxIrpdBMkUhQ51grGX+SJh8c8/cmHed8H0uRxOoHRCjjX7n69vC9zYr42Kfa4NdGT42HDNclxMetuPxdDmlW3H50FCDl8/0fw7W++zE9f3ODqlRG+WiX6AUEzxIJKRPHJChVJggUyRExA9Wqq2VLbJBw0S93pLmoGRUkWZQqaGiQWLJxPaa6tc/mu9nvdVluwe+bdj077h84NuORObR8v3JwL4vPzz6gWRDHLfRKXXKPLaN2n7bIOAZdZCpfut7r21FVAQ7ovBllO1JKiCLhiwrR6jXywzYeeeICnPnEPp1bg6Era26CN5WnS76Sq2vhi17vTeEC6ZmF/+x0K9OR42HBdcgTvk+JHt3YyhJTMo02GeWxef/nn8Dff2OS7L5zjyiVBzSreG6LJwAjGOYxz+AizMlDVWwxGsSG6tpdkhsQcNGusiXb34tz1apos24iDuILudC0t6cTu1Tnkrccce7zNuFZ8ca8JzdwiXJBNJG+ac9Npzr24pmbulejeBwEkuWddnlFVM0LtMcaRSYEVhxOLEYihROMWdXme1SMVT3z8Pp5+9hSnTkFVwapLnW/qEkbj1HS8LGucVZwz7LrXuhmnfb3ioUJPjocNNyBHRdHY1lotkmraPIwQIQTFWElWosL5i/Dtb2/xwx9e4Yc/uIyYk2BX8d5SxhnRBLJBJB84ptO20bJpBg5BopsPcokgU8zUNJaDaBrkFEfQ4cIObBMqut1FmuNZGoJ3JQH12BfoDvdix+KLO8S7u6UO86/Pk1cMog4lQ2LbrLu5V+cW2mJylf4qECVoBRic5OQ2R0OSeyNOyewEuMK9967wyY8/zMc/XjAoYDpLMfi1tVTylGeKJCFjIOKDx4hgTZeozd4TgZ4cDw16cjxsuAE5zl+J0P7AQ0gkaADXzXtpkmcCiTTrGl54Ab77g4rn//5lzl2cMhitMlgd433N5mRCURxFddGwVZoRT3TRO1KaQaU7tIgmcqyNbSzHJmuVwCIutbAw0rp2JursZVX2+JXhmtdC9+wIowLdrjC6FFtsXPFNSyhRt3RvpwlVpxVb46LXRuDbImisUT/BuYo7T+ScOp3z9FMP8s57kwycr0ADjIcsLD/jUWp89BhjME3CjWCYlSWDYsA1ibHZtx6HAz05HjbcgBxD9KiCs46dMcj5MgIV1KqYTDCNq3XmwWYpQnT2LLzw3av83Tdf5ucvTzB6jNH4FJOZpuzTpZWmfZjv0nxgaQui02sqkWBDZ5CMTVbgYj0CnXimwcRGi7I1O6TuyXG/sAc5RhPoEuXCZb6cjNUlm5S9Cgui1EU4T5mXXiyyVtNzIVDknrK8jLLBykrNiZOWBx48wr/4wD089G5wjUFopSPvHaGeRKJUFCuK1ymCxYil9gFfQ1EMsH07qdsKPTkeNtzQclSixmQpGoNGSW5UY7DGEqYB2xY1d3QfVZJcXSRQI6Q6TJhN4Ccvwjf/eoMf/uA1yiojNAIGifB2DoCuSeRJG2hrHNP2Amqqhhy1caEtW73SpvCrAxwmWpKV0ZPjgUAbg2vIcKc7VWVBiq3rXbuTJOI8pigdj0Hrel9K0JnHJNNjqxUSNlkdB+578BgffuI4Dz8Cq2uJDAWYzbYYD4qUD+sj6hWXN4XB4lGmTa1nW7nbFg07ZrOKwSBnZ9hxvt/NfvQ4HOjJ8bDhLbpVl9GZzXc/JrDoFpBm/VEFJE+baeorKw++Tn9f+69XefnnV3j1lbNMZwZrV4mMiHGAygDVgpkPaW2ZQSzE6IniMSaNiyEEovqmttIkEicSY+wMqolojXZdq82x9uR4QKCdgnsAg7MZMYKqoNEgZKgIGgGJWBfnHWJE07U3xmA0ZUhrrHCZkjlP1BkaU11sXhhGeeTXn3mMB++HM3enZJqgkGcppl77msxlSWxivk+tZ2KvjOc9PCtdLBFjlxx7gjwM6MnxtsDu5IfdSD/q5ZshqfHM1W9whGAal1PzEUlxmxADMVqshVkFr/0CXjChYa0AAAvHSURBVPjOBs+/8HNef22Tyo+w+TouX6cKhqCgTaFl0IAYxdkcgyHUEQ11U6MmYKVJ7Y8dBZcmbjnf4T7YczCwQ7JiqaZfKMsaYxxOHNY4JLWWwSuoeoLfYDDMKIoBGmA2rYi+wlqhKARlRlVdYlZdwrltTt855tH338eHPnwX734Ayktwx5EmwUzAh0WNYogp0Wz599AtB0r39nUJsYu5Ak93Pb3CzWFBT463Bd6aJaVEIgFdmlkbDKbJ3nNE3/z0l9LWffrTDO8tzqUEHx9gMktE+bff2uT5F37K9sQQZUyUAXXMqCqh8opzOXk2IlRgsBhjEEnrCerR4AnqyYuMbgwrtok6TecSo46eKPcLuy3FeeIUgBpWVsZ4r9RlRV2HZgJkcM5hjOJsoJxOqCqPKOSFSzWLUqO6zWR2gXe+c533P3YPDz865K4zMFxJZGgVVqQEImiG1imJR9oGi63TAQ8E4nzS17jmSeu4oWIdCy/+TnKUnhwPDXpyvK3QDgZ7LxVPoKSTuofgGmp0i1W0PlWNyXSb30ICkgak2idyNDa18plWsLkNP/4J/PhHG3zvB69y5UpNNjhKURxlNg1sbVaMB0eIQVBVgqbBxtqMLEurns0WqjuIT+QonnYCYOKAnhz3C3uR40IMQIDt7W1y68hzh8tsko1TTwg1RCV6z8poSF5YqtkW25NL5Lnn1J1HOHV6yCefPM3KSiq7WF2FrFhQkaXGsQV1icYMsWMwg3bXOvlfsZkIKjstvWuSoyw/Th/ZaYEK0rtVDw16cuwxRxow2hhjssAMi4Ft2X3UPm1VQuYrWaQBSioBmVWBLLdJZCDJXrK1BT/+MXzvO5u89NJZrl6uCNERokNMhtgCIwUaM3yAulZ8iOSDUcp6bOTpUjakR02yNHpy3F9EWQh/o21dq5knV2VGEAJRZ4Q4I8YZ4HFGcSaDqsBXJTYrOXkq56GHj/Pe9x3j/nfBkSPLDos2MtiKWBggs4BWadLWqi+hqdGwyZk3G6ZzJ3duF1nw3PJ7O2L4u+QL5/vTE+NhQU+OPZag89lwV82mxY74itIUaMviuYWyDMzqbUajAc4u2r0qwmQaUXKcSQOZKmxvJjWel3+h/Le//nsmJUwngaqyGBlj3RrOjDF2yHQWOtmuSRUlZbmmOjobcnpy3B/Mr3NLjm2pBem5wePrGc55XBawpkJlglDirMeK4e5TZ3jg/rt4//vhzD2QD6COgIBxJU4qjIDDJW+GZnP+Sxtq/yIpZl6ne1oFkRwolj/f/c7O9czf3xlX7BaXJPJvj31n140ety56cjx0uEZK+Vu9yntmu3bQjbtoJ8uvqWGrvMFYwXZiMkrAhxrRQO5ay84Rm6z9NrlnVkPM4I2L8P3vbvGjf/gFr722zdaWMJsVhDAgy44QNZ/XUsaGJNUk8Wobe23V/cKCHJsSCzXzu1A0YqRmOICq2qAqLyEy5dgxxwPvuotHHr6Te+6Fe+6EqOkKZhlknfaIAJaIakNNUZPnwpiF6WZS8ycFYlQsMs+CnhPgXth137dx7a74RAvT1GsKcVEt2exfj8OCnhwPHW5Qb9UdJHYuYe/Bo8M1oRErn5cmtt02iEQkSX41XymrEhFhkDnamXddz8gyiyDEmBIynLFgDIpju85Ql+rSVGE6hVdegR/+YMbLr1ziJz95nagFqoOGIF1zxJKs2DimHaJudGPHXRzaFp9f7yQtllG06QaRlr9StN3mdy7ZHVGef/66SN9YFO13X28edZNr9lhnty4xaaB6hOT+FqkxlGRZzT13H+OR997FQw/BnadhOFwkebksWZjpLKcaXFFtMqQFY6QRgqBj7QUIjas9c8Qm6zqGFO82DdlWlZLnsrAE5zdIR4SgtTp1UW95PXJs77+urEWPw4GeHG8z6LxAca9BvyG+bszlLaEp8Ab2ImXpfIZdj7tIyTzz5HpZVKBp8/rWNrz6KvzwH97gpZfe4M0LE2ZlJHhL7Vfx/i7Q1aYExCCSknt8SEQciPPaOYykLu0kV6ARRQhIDI28XsQYlwwTMfPnMfpUqycRaZR9iGk7Tux1iUia2hNVXWo83FaoiJj5e6q6a13GmOZ7ptl3g4gulnbh1lShMwNI6/F1On4ndn5u2vVFU6NmSqBEFUQEK67JwARRQwg6jyUa47CSLKcYFaMzimyGMTOIJZFtBoPI6dMrPPTQae6+e42H35MIK8uSW920yS2hCVdn3fujG+/egetklO58S/a8nzv34M7rJTve34Mcu4//yT+XHrcEenK8zfD2d4K/SbRxn3ncKC4IEkfpQRKv4QNsbcDrb8DLP9vijXNTfvrTGZPSMdmeUlWeqKlJc5YPsKag9J4QDTGYlByEQcSCWIwoGmYYCYgIxqSBX1WpvU/EQDpHKolgrbWI2DnJSNTkYo6y5zLLsvk6u3gr5CgiSQgB6NqGIpp6a4oyrVIpg4g0f4kELbbzmiTy1LS++TpNwBYQSSIMqprML1EsioiSZ1ki5RjSsplctG7TUV5zz13rPPSee3nwQTh9F6yupIJ8kSQUYYySWe243oGoqApi+4SWHgcDPTneZrglyLHFLnI0RE3JD9JaCLF5L4KPsDWFjS24cL7ktdcv8Pprb3LujQ0uXJww2VKcO0KIA4hDjBlhzQpCnggzekKcISYk68rm2KaZc1J0ATWtZWgSkTU2Qwg035+ABERMcgF2liLgvd+DGKWzTI93Wpbt+1mWpSa+gURgUYjq5yQ6GAyWyFWj76xL0VDPCZI2fmc0TQZkQDUzGDcgdyDGE3VK0C1UtxGZonETzBTnKsarhtN3HuW+++/moQfv4fQpOLHeHIE09pVJz2OE6CNZnmwtS+se3ctq69Fj/9GT422GW4ocYQdBLlR8vELwKSfDyEIFZe6S7axuexM2N2E2hR/9aIs335xy9vWrXLiwzXQSicEiFKg48mJIFSK+rKh80qAVWnHzVHMZ1aKxJUiLIsnlqJ5ibFIFXUNIMcYlsnJukcDRui6BBWGpmV8jJcxjie3nQgiLUyPSiCVI00FCmG3PIO1ZQ3oky9I0Z7A5n2IU1YBqWrczYCQjhgwNkdqnUgubVRxZcxw/OeTIEcdD7z7N8ZOWe+6G9WOLy+Rj6tqyWqRzX9fp2mVOUlIMbfyxLXloK/J3qNH0hmOPA4KeHG8zHHhy3IU2npmWISpiUuF290h8aLITm0G/JS5pLReSdRmb2KXG1NR2awveOBd47bU3uHih5OcvT6jKnGpWU/lA8KDRomqIOIScGAwxpMHdSIZxGRZHMIat6QQ1C/dlS17SuDVDiAvyU9lhNbKLHAW7RI5Z1rpw49wl2hKvAQqbI1ERWvJrWzlFwGMIiAkNYUZEFGPBGcFmnuPHLCdOjLnnnrs5czccPZZaOuVFo1Ua0tK1qjMxCT2YhtSqsI21AdvJ2xTAqyd6zyBboaFuVIVujWzHcO7RY9/Rk+NthluPHKFbdO1DBSzcjiKCc62TrlHy6Wbe7jBMWosyaGu5LZ6HkAb5qoKtTdjYgCuX4dIV5eqVCbOZ5/XXzlFWkWoamZYVdaX4WvE+EqLgRkdo2zItLMZmH1RwNp8/Ttdix/luybGjNJOsv8REdd3tOhKXSRglTrcxolgrWGdwzmBdmjQYE7nrzCkGg5y1IyOOHxtwxx1w7I5UYD8aLUS6kaa4vonxOsd8okFzWtuQZOrwAtZFlCmpvtAkIcIYMcZiW+u7zfLUlhyXk26ktxx7HBD05Hib4eCT495lBMvvd52mnognxoAGS2ZW01s7DiOEiPcVxiV3o7W2ydNdEE3EEch2eXaVRAAhJIvJR6inNGIFMJsll21Vw2vntqi8oaoqptMpk8mE2ayinFV475nNqoYwm0zRuJMkW8uxKVCZJ+qk/S6KAmuFPHcMhgWj0YjhcEhRFOTOc+JoQZ7DYJAzHjtWVmE8htEgWXzdc9NuMTabN9DUnaaY4OL4tUmYSedtflK68EkGLqmx6TzDdS8CXH7SqZWFlBzVo8cBwP8PHk0liR1btqAAAAAASUVORK5CYII=;hachureGap=4;fontFamily=Architects Daughter;fontSource=https%3A%2F%2Ffonts.googleapis.com%2Fcss%3Ffamily%3DArchitects%2BDaughter;fontSize=20;" vertex="1" parent="1">
          <mxGeometry x="124.93999999999994" y="410" width="60.13" height="60" as="geometry" />
        </mxCell>
        <mxCell id="33baKkjj-bV65DGkrXEN-3" value="" style="whiteSpace=wrap;html=1;hachureGap=4;fontFamily=Architects Daughter;fontSource=https%3A%2F%2Ffonts.googleapis.com%2Fcss%3Ffamily%3DArchitects%2BDaughter;fontSize=20;fillColor=none;rounded=0;strokeColor=#2499FF;shadow=1;" vertex="1" parent="1">
          <mxGeometry x="80" y="210" width="160" height="340" as="geometry" />
        </mxCell>
        <mxCell id="EC2pHV4Bp6479LbBstPR-1" value="&lt;div style=&quot;font-size: 13px;&quot; align=&quot;center&quot;&gt;&lt;font size=&quot;1&quot; color=&quot;#4791ff&quot;&gt;&lt;span style=&quot;font-size: 14px;&quot;&gt;&lt;b&gt;Discord App&lt;/b&gt;&lt;/span&gt;&lt;/font&gt;&lt;/div&gt;" style="text;whiteSpace=wrap;html=1;align=center;" vertex="1" parent="1">
          <mxGeometry x="100" y="470" width="110" height="40" as="geometry" />
        </mxCell>
        <mxCell id="y4zS1PU2GGqTvw1V18AB-18" value="" style="edgeStyle=orthogonalEdgeStyle;rounded=0;orthogonalLoop=1;jettySize=auto;html=1;fontFamily=Helvetica;fontSize=12;fontColor=default;strokeWidth=3;strokeColor=#FF3E17;" edge="1" parent="1" source="y4zS1PU2GGqTvw1V18AB-10" target="33baKkjj-bV65DGkrXEN-1">
          <mxGeometry relative="1" as="geometry" />
        </mxCell>
        <mxCell id="y4zS1PU2GGqTvw1V18AB-10" value="" style="html=1;verticalLabelPosition=bottom;align=center;labelBackgroundColor=#ffffff;verticalAlign=top;strokeWidth=2;strokeColor=#0080F0;shadow=0;dashed=0;shape=mxgraph.ios7.icons.user;" vertex="1" parent="1">
          <mxGeometry x="130" y="280" width="50" height="50" as="geometry" />
        </mxCell>
        <mxCell id="y4zS1PU2GGqTvw1V18AB-11" value="&lt;font size=&quot;1&quot; color=&quot;#4791ff&quot;&gt;&lt;b style=&quot;font-size: 14px;&quot;&gt;Users&lt;/b&gt;&lt;/font&gt;" style="text;whiteSpace=wrap;html=1;align=center;" vertex="1" parent="1">
          <mxGeometry x="100.00999999999999" y="250" width="110" height="40" as="geometry" />
        </mxCell>
        <mxCell id="y4zS1PU2GGqTvw1V18AB-19" value="" style="sketch=0;pointerEvents=1;shadow=0;dashed=0;html=1;strokeColor=none;labelPosition=center;verticalLabelPosition=bottom;verticalAlign=top;outlineConnect=0;align=center;shape=mxgraph.office.security.key_permissions;fillColor=#DA4026;fontFamily=Helvetica;fontSize=12;fontColor=default;direction=north;" vertex="1" parent="1">
          <mxGeometry x="110.00999999999999" y="350" width="40" height="20" as="geometry" />
        </mxCell>
        <mxCell id="oMrBiJAYyab4XBpnOJNg-1" value="Discord Server" style="whiteSpace=wrap;html=1;dashed=1;strokeColor=none;strokeWidth=2;fillColor=#3399FF;fontFamily=Helvetica;fontSize=18;fontColor=#FFFFFF;fontStyle=1" vertex="1" parent="1">
          <mxGeometry x="80" y="150" width="160" height="60" as="geometry" />
        </mxCell>
      </root>
    </mxGraphModel>
  </diagram>
</mxfile>
